999
FreeCAD v0.21 33771 (Git)
  0
SECTION
  2
HEADER
  9
$ACADVER
  1
AC1014
  9
$ACADMAINTVER
 70
     9
  9
$DWGCODEPAGE
  3
ANSI_1252
  9
$TEXTSTYLE
  7
STANDARD
  9
$DIMSTYLE
  2
STANDARD
  9
$DIMTXSTY
  7
STANDARD
  9
$CMLSTYLE
  2
STANDARD
  9
$LUNITS
 70
2
  9
$INSUNITS
 70
4
  9
$PEXTMAX
 10
50
 20
50
 30
50
  9
$PEXTMIN
 10
0
 20
0
 30
0
  9
$HANDSEED
  5
FFFF
  0
ENDSEC
  0
SECTION
  2
CLASSES
  0
CLASS
  1
ACDBDICTIONARYWDFLT
  2
AcDbDictionaryWithDefault
  3
ObjectDBX Classes
 90
        0
280
     0
281
     0
  0
CLASS
  1
XRECORD
  2
AcDbXrecord
  3
ObjectDBX Classes
 90
        0
280
     0
281
     0
  0
CLASS
  1
LWPOLYLINE
  2
AcDbPolyline
  3
ObjectDBX Classes
 90
        0
280
     0
281
     1
  0
ENDSEC
  0
SECTION
  2
TABLES
  0
TABLE
  2
VPORT
  5
20
330
0
100
AcDbSymbolTable
 70
     1
  0
VPORT
  5
21
330
20
100
AcDbSymbolTableRecord
100
AcDbViewportTableRecord
  2
*ACTIVE
 70
     0
  0
ENDTAB
  0
TABLE
  2
LTYPE
  5
22
330
0
100
AcDbSymbolTable
 70
     1
  0
LTYPE
  5
23
330
21
100
AcDbSymbolTableRecord
100
AcDbLinetypeTableRecord
  2
BYBLOCK
 70
     0
  3

 72
    65
 73
     0
 40
0.0
  0
LTYPE
  5
24
330
21
100
AcDbSymbolTableRecord
100
AcDbLinetypeTableRecord
  2
BYLAYER
 70
     0
  3

 72
    65
 73
     0
 40
0.0
  0
LTYPE
  5
25
330
21
100
AcDbSymbolTableRecord
100
AcDbLinetypeTableRecord
  2
CONTINUOUS
 70
     0
  3
Solid line
 72
    65
 73
     0
 40
0.0
  0
ENDTAB
  0
TABLE
  2
LAYER
  5
C97
330
0
100
AcDbSymbolTable
 70
3
  0
LAYER
  5
C98
330
C97
100
AcDbSymbolTableRecord
100
AcDbLayerTableRecord
  2
0
 70
   0
 62
   7
  6
CONTINUOUS
  0
LAYER
  5
C99
330
C97
100
AcDbSymbolTableRecord
100
AcDbLayerTableRecord
  2
none
 70
    0
 62
    7
  6
CONTINUOUS
  0
LAYER
  5
C9A
330
C97
100
AcDbSymbolTableRecord
100
AcDbLayerTableRecord
  2
Shape2DView004
 70
    0
 62
    7
  6
CONTINUOUS
  0
ENDTAB
  0
TABLE
  2
STYLE
  5
70
330
0
100
AcDbSymbolTable
 70
     2
  0
STYLE
  5
71
330
70
100
AcDbSymbolTableRecord
100
AcDbTextStyleTableRecord
  2
STANDARD
 70
     0
 40
0.0
 41
1.0
 50
0.0
 71
     0
 42
2.5
  3
arial.ttf
  4

  0
STYLE
  5
72
330
70
100
AcDbSymbolTableRecord
100
AcDbTextStyleTableRecord
  2
ANNOTATIVE
 70
     0
 40
0.0
 41
1.0
 50
0.0
 71
     0
 42
2.5
  3
arial.ttf
  4

  0
ENDTAB
  0
TABLE
  2
VIEW
  5
73
330
0
100
AcDbSymbolTable
 70
     0
  0
ENDTAB
  0
TABLE
  2
UCS
  5
74
330
0
100
AcDbSymbolTable
 70
     0
  0
ENDTAB
  0
TABLE
  2
APPID
  5
75
330
0
100
AcDbSymbolTable
 70
     2
  0
APPID
  5
76
330
75
100
AcDbSymbolTableRecord
100
AcDbRegAppTableRecord
  2
ACAD
 70
     0
  0
APPID
  5
77
330
75
100
AcDbSymbolTableRecord
100
AcDbRegAppTableRecord
  2
ACADANNOTATIVE
 70
     0
  0
ENDTAB
  0
TABLE
  2
DIMSTYLE
  5
78
330
0
100
AcDbSymbolTable
 70
     2
  0
DIMSTYLE
105
79
330
78
100
AcDbSymbolTableRecord
100
AcDbDimStyleTableRecord
  2
STANDARD
 70
     0
  3

  4

  5

  6

  7

 40
0.0
 41
2.5
 42
0.625
 43
3.75
 44
1.25
 45
0.0
 46
0.0
 47
0.0
 48
0.0
140
2.5
141
2.5
142
0.0
143
0.03937007874016
144
1.0
145
0.0
146
1.0
147
0.625
 71
     0
 72
     0
 73
     0
 74
     0
 75
     0
 76
     0
 77
     1
 78
     8
170
     0
171
     3
172
     1
173
     0
174
     0
175
     0
176
     0
177
     0
178
     0
270
     2
271
     2
272
     2
273
     2
274
     3
340
71
275
     0
280
     0
281
     0
282
     0
283
     0
284
     8
285
     0
286
     0
287
     3
288
     0
  0
ENDTAB
  0
TABLE
  2
BLOCK_RECORD
  5
A01
330
0
100
AcDbSymbolTable
  70
5
  0
BLOCK_RECORD
  5
A02
330
A01
100
AcDbSymbolTableRecord
100
AcDbBlockTableRecord
  2
*MODEL_SPACE
  0
BLOCK_RECORD
  5
A03
330
A01
100
AcDbSymbolTableRecord
100
AcDbBlockTableRecord
  2
*PAPER_SPACE
  0
ENDTAB
  0
ENDSEC
  0
SECTION
  2
BLOCKS
  0
BLOCK
  5
A04
330
A02
100
AcDbEntity
  8
0
100
AcDbBlockBegin
  2
*MODEL_SPACE
 70
   0
 10
0
 20
0
 30
0
  3
*MODEL_SPACE
  1
 
  0
ENDBLK
  5
A05
330
A02
100
AcDbEntity
  8
0
100
AcDbBlockEnd
  0
BLOCK
  5
A06
330
A03
100
AcDbEntity
 67
1
  8
0
100
AcDbBlockBegin
  2
*PAPER_SPACE
 70
   0
 10
0
 20
0
 30
0
  3
*PAPER_SPACE
  1
 
  0
ENDBLK
  5
A07
330
A03
100
AcDbEntity
 67
    1
  8
0
100
AcDbBlockEnd
  0
ENDSEC
  0
SECTION
  2
ENTITIES
  0
CIRCLE
  5
A08
330
A02
100
AcDbEntity
  8
Shape2DView004
100
AcDbCircle
 10
0
 20
4.99045e-15
 40
34.9493
  0
LINE
  5
A09
330
A02
100
AcDbEntity
  8
Shape2DView004
100
AcDbLine
 10
-24.0808
 20
-4.5
 30
0
 11
-24.5808
 21
-4.5
 31
0
  0
ARC
  5
A0A
330
A02
100
AcDbEntity
  8
Shape2DView004
100
AcDbCircle
 10
-24.0808
 20
2.64905e-14
 30
0
 40
4.5
100
AcDbArc
 50
-90
 51
-44.6746
  0
ARC
  5
A0B
330
A02
100
AcDbEntity
  8
Shape2DView004
100
AcDbCircle
 10
-24.5808
 20
2.46905e-14
 30
0
 40
4.5
100
AcDbArc
 50
90
 51
-90
  0
LINE
  5
A0C
330
A02
100
AcDbEntity
  8
Shape2DView004
100
AcDbLine
 10
-20.8808
 20
-6
 30
0
 11
-20.8808
 21
-3.16386
 31
0
  0
LINE
  5
A0D
330
A02
100
AcDbEntity
  8
Shape2DView004
100
AcDbLine
 10
-24.5808
 20
4.5
 30
0
 11
-24.0808
 21
4.5
 31
0
  0
ARC
  5
A0E
330
A02
100
AcDbEntity
  8
Shape2DView004
100
AcDbCircle
 10
-20.3808
 20
-6
 30
0
 40
0.5
100
AcDbArc
 50
180
 51
0
  0
ARC
  5
A0F
330
A02
100
AcDbEntity
  8
Shape2DView004
100
AcDbCircle
 10
-24.0808
 20
2.64905e-14
 30
0
 40
4.5
100
AcDbArc
 50
44.6746
 51
90
  0
LINE
  5
A10
330
A02
100
AcDbEntity
  8
Shape2DView004
100
AcDbLine
 10
-19.8808
 20
-1.61555
 30
0
 11
-19.8808
 21
-6
 31
0
  0
LINE
  5
A11
330
A02
100
AcDbEntity
  8
Shape2DView004
100
AcDbLine
 10
-20.8808
 20
3.16386
 30
0
 11
-20.8808
 21
6
 31
0
  0
LINE
  5
A12
330
A02
100
AcDbEntity
  8
Shape2DView004
100
AcDbLine
 10
-19.8808
 20
-1.61555
 30
0
 11
-19.8808
 21
1.61555
 31
0
  0
ARC
  5
A13
330
A02
100
AcDbEntity
  8
Shape2DView004
100
AcDbCircle
 10
-20.3808
 20
6
 30
0
 40
0.5
100
AcDbArc
 50
0
 51
180
  0
LINE
  5
A14
330
A02
100
AcDbEntity
  8
Shape2DView004
100
AcDbLine
 10
-19.8808
 20
6
 30
0
 11
-19.8808
 21
1.61555
 31
0
  0
LINE
  5
A15
330
A02
100
AcDbEntity
  8
Shape2DView004
100
AcDbLine
 10
8.54131
 20
18.0251
 30
0
 11
4.74426
 21
20.2173
 31
0
  0
LINE
  5
A16
330
A02
100
AcDbEntity
  8
Shape2DView004
100
AcDbLine
 10
8.54131
 20
18.0251
 30
0
 11
11.3395
 21
16.4095
 31
0
  0
ARC
  5
A17
330
A02
100
AcDbEntity
  8
Shape2DView004
100
AcDbCircle
 10
4.99426
 20
20.6503
 30
0
 40
0.5
100
AcDbArc
 50
60
 51
-120
  0
LINE
  5
A18
330
A02
100
AcDbEntity
  8
Shape2DView004
100
AcDbLine
 10
15.1366
 20
14.2173
 30
0
 11
11.3395
 21
16.4095
 31
0
  0
LINE
  5
A19
330
A02
100
AcDbEntity
  8
Shape2DView004
100
AcDbLine
 10
5.24426
 20
21.0833
 30
0
 11
7.70043
 21
19.6653
 31
0
  0
ARC
  5
A1A
330
A02
100
AcDbEntity
  8
Shape2DView004
100
AcDbCircle
 10
15.3866
 20
14.6503
 30
0
 40
0.5
100
AcDbArc
 50
-120
 51
60
  0
ARC
  5
A1B
330
A02
100
AcDbEntity
  8
Shape2DView004
100
AcDbCircle
 10
12.0404
 20
20.8546
 30
0
 40
4.5
100
AcDbArc
 50
150
 51
-164.675
  0
LINE
  5
A1C
330
A02
100
AcDbEntity
  8
Shape2DView004
100
AcDbLine
 10
13.1804
 20
16.5014
 30
0
 11
15.6366
 21
15.0833
 31
0
  0
LINE
  5
A1D
330
A02
100
AcDbEntity
  8
Shape2DView004
100
AcDbLine
 10
8.1433
 20
23.1046
 30
0
 11
8.3933
 21
23.5376
 31
0
  0
ARC
  5
A1E
330
A02
100
AcDbEntity
  8
Shape2DView004
100
AcDbCircle
 10
12.0404
 20
20.8546
 30
0
 40
4.5
100
AcDbArc
 50
-75.3254
 51
-30
  0
ARC
  5
A1F
330
A02
100
AcDbEntity
  8
Shape2DView004
100
AcDbCircle
 10
12.2904
 20
21.2876
 30
0
 40
4.5
100
AcDbArc
 50
-30
 51
150
  0
LINE
  5
A20
330
A02
100
AcDbEntity
  8
Shape2DView004
100
AcDbLine
 10
16.1875
 20
19.0376
 30
0
 11
15.9375
 21
18.6046
 31
0
  0
ARC
  5
A21
330
A02
100
AcDbEntity
  8
Shape2DView004
100
AcDbCircle
 10
14.1366
 20
12.4852
 30
0
 40
0.5
100
AcDbArc
 50
-120
 51
60
  0
LINE
  5
A22
330
A02
100
AcDbEntity
  8
Shape2DView004
100
AcDbLine
 10
3.99426
 20
18.9183
 30
0
 11
14.3866
 21
12.9183
 31
0
  0
LINE
  5
A23
330
A02
100
AcDbEntity
  8
Shape2DView004
100
AcDbLine
 10
13.8866
 20
12.0522
 30
0
 11
3.49426
 21
18.0522
 31
0
  0
ARC
  5
A24
330
A02
100
AcDbEntity
  8
Shape2DView004
100
AcDbCircle
 10
3.74426
 20
18.4852
 30
0
 40
0.5
100
AcDbArc
 50
60
 51
-120
  0
SPLINE
  5
A25
330
A02
100
AcDbEntity
  8
Shape2DView004
100
AcDbSpline
210
0
220
0
230
1
 70
8
 71
3
 72
8
 73
4
 74
0
 40
0
 40
0
 40
0
 40
0
 40
1
 40
1
 40
1
 40
1
 10
-11.3447
 20
-13.9695
 30
0
 10
-11.3711
 20
-16.6682
 30
0
 10
-9.51906
 20
-17.6869
 30
0
 10
-7.25688
 20
-16.2449
 30
0
  0
SPLINE
  5
A26
330
A02
100
AcDbEntity
  8
Shape2DView004
100
AcDbSpline
210
0
220
0
230
1
 70
8
 71
1
 72
4
 73
2
 74
0
 40
0
 40
0
 40
52.3
 40
52.3
 10
-11.3447
 20
-7.05062
 30
0
 10
-11.3447
 20
-13.9695
 30
0
  0
SPLINE
  5
A27
330
A02
100
AcDbEntity
  8
Shape2DView004
100
AcDbSpline
210
0
220
0
230
1
 70
8
 71
3
 72
8
 73
4
 74
0
 40
0
 40
0
 40
0
 40
0
 40
1
 40
1
 40
1
 40
1
 10
-11.7813
 20
-7.56656
 30
0
 10
-11.768
 20
-7.55333
 30
0
 10
-11.4638
 20
-7.19615
 30
0
 10
-11.3447
 20
-7.05062
 30
0
  0
SPLINE
  5
A28
330
A02
100
AcDbEntity
  8
Shape2DView004
100
AcDbSpline
210
0
220
0
230
1
 70
8
 71
3
 72
8
 73
4
 74
0
 40
0
 40
0
 40
0
 40
0
 40
1
 40
1
 40
1
 40
1
 10
-12.5618
 20
-6.20396
 30
0
 10
-12.3236
 20
-6.66698
 30
0
 10
-12.0723
 20
-7.13
 30
0
 10
-11.7813
 20
-7.56656
 30
0
  0
SPLINE
  5
A29
330
A02
100
AcDbEntity
  8
Shape2DView004
100
AcDbSpline
210
0
220
0
230
1
 70
8
 71
1
 72
4
 73
2
 74
0
 40
0
 40
0
 40
7.21388
 40
7.21388
 10
-11.9003
 20
-5.51604
 30
0
 10
-12.5618
 20
-6.20396
 30
0
  0
SPLINE
  5
A2A
330
A02
100
AcDbEntity
  8
Shape2DView004
100
AcDbSpline
210
0
220
0
230
1
 70
8
 71
3
 72
8
 73
4
 74
0
 40
0
 40
0
 40
0
 40
0
 40
1
 40
1
 40
1
 40
1
 10
-11.8606
 20
-5.06625
 30
0
 10
-11.6754
 20
-5.29115
 30
0
 10
-11.9003
 20
-5.51604
 30
0
 10
-11.9003
 20
-5.51604
 30
0
  0
SPLINE
  5
A2B
330
A02
100
AcDbEntity
  8
Shape2DView004
100
AcDbSpline
210
0
220
0
230
1
 70
8
 71
3
 72
8
 73
4
 74
0
 40
0
 40
0
 40
0
 40
0
 40
1
 40
1
 40
1
 40
1
 10
-12.3236
 20
-5.0001
 30
0
 10
-12.2443
 20
-4.93396
 30
0
 10
-12.0591
 20
-4.84135
 30
0
 10
-11.8606
 20
-5.06625
 30
0
  0
SPLINE
  5
A2C
330
A02
100
AcDbEntity
  8
Shape2DView004
100
AcDbSpline
210
0
220
0
230
1
 70
8
 71
3
 72
8
 73
4
 74
0
 40
0
 40
0
 40
0
 40
0
 40
1
 40
1
 40
1
 40
1
 10
-12.9057
 20
-5.47635
 30
0
 10
-12.9057
 20
-5.47635
 30
0
 10
-12.4163
 20
-5.06625
 30
0
 10
-12.3236
 20
-5.0001
 30
0
  0
SPLINE
  5
A2D
330
A02
100
AcDbEntity
  8
Shape2DView004
100
AcDbSpline
210
0
220
0
230
1
 70
8
 71
3
 72
8
 73
4
 74
0
 40
0
 40
0
 40
0
 40
0
 40
1
 40
1
 40
1
 40
1
 10
-13.4349
 20
-4.00792
 30
0
 10
-13.2894
 20
-4.51062
 30
0
 10
-13.1042
 20
-5.0001
 30
0
 10
-12.9057
 20
-5.47635
 30
0
  0
SPLINE
  5
A2E
330
A02
100
AcDbEntity
  8
Shape2DView004
100
AcDbSpline
210
0
220
0
230
1
 70
8
 71
1
 72
4
 73
2
 74
0
 40
0
 40
0
 40
7.22011
 40
7.22011
 10
-12.6676
 20
-3.43906
 30
0
 10
-13.4349
 20
-4.00792
 30
0
  0
SPLINE
  5
A2F
330
A02
100
AcDbEntity
  8
Shape2DView004
100
AcDbSpline
210
0
220
0
230
1
 70
8
 71
3
 72
8
 73
4
 74
0
 40
0
 40
0
 40
0
 40
0
 40
1
 40
1
 40
1
 40
1
 10
-12.5485
 20
-3.0025
 30
0
 10
-12.403
 20
-3.25385
 30
0
 10
-12.6676
 20
-3.43906
 30
0
 10
-12.6676
 20
-3.43906
 30
0
  0
SPLINE
  5
A30
330
A02
100
AcDbEntity
  8
Shape2DView004
100
AcDbSpline
210
0
220
0
230
1
 70
8
 71
3
 72
8
 73
4
 74
0
 40
0
 40
0
 40
0
 40
0
 40
1
 40
1
 40
1
 40
1
 10
-12.9851
 20
-2.85698
 30
0
 10
-12.8925
 20
-2.80406
 30
0
 10
-12.6941
 20
-2.75115
 30
0
 10
-12.5485
 20
-3.0025
 30
0
  0
SPLINE
  5
A31
330
A02
100
AcDbEntity
  8
Shape2DView004
100
AcDbSpline
210
0
220
0
230
1
 70
8
 71
3
 72
8
 73
4
 74
0
 40
0
 40
0
 40
0
 40
0
 40
1
 40
1
 40
1
 40
1
 10
-13.6333
 20
-3.2274
 30
0
 10
-13.6201
 20
-3.2274
 30
0
 10
-13.0777
 20
-2.9099
 30
0
 10
-12.9851
 20
-2.85698
 30
0
  0
SPLINE
  5
A32
330
A02
100
AcDbEntity
  8
Shape2DView004
100
AcDbSpline
210
0
220
0
230
1
 70
8
 71
3
 72
8
 73
4
 74
0
 40
0
 40
0
 40
0
 40
0
 40
1
 40
1
 40
1
 40
1
 10
-13.8979
 20
-1.67958
 30
0
 10
-13.845
 20
-2.20875
 30
0
 10
-13.7524
 20
-2.71146
 30
0
 10
-13.6333
 20
-3.2274
 30
0
  0
SPLINE
  5
A33
330
A02
100
AcDbEntity
  8
Shape2DView004
100
AcDbSpline
210
0
220
0
230
1
 70
8
 71
1
 72
4
 73
2
 74
0
 40
0
 40
0
 40
7.15542
 40
7.15542
 10
-13.0513
 20
-1.25625
 30
0
 10
-13.8979
 20
-1.67958
 30
0
  0
SPLINE
  5
A34
330
A02
100
AcDbEntity
  8
Shape2DView004
100
AcDbSpline
210
0
220
0
230
1
 70
8
 71
3
 72
8
 73
4
 74
0
 40
0
 40
0
 40
0
 40
0
 40
1
 40
1
 40
1
 40
1
 10
-12.866
 20
-0.846146
 30
0
 10
-12.7602
 20
-1.12396
 30
0
 10
-13.0513
 20
-1.25625
 30
0
 10
-13.0513
 20
-1.25625
 30
0
  0
SPLINE
  5
A35
330
A02
100
AcDbEntity
  8
Shape2DView004
100
AcDbSpline
210
0
220
0
230
1
 70
8
 71
3
 72
8
 73
4
 74
0
 40
0
 40
0
 40
0
 40
0
 40
1
 40
1
 40
1
 40
1
 10
-13.2761
 20
-0.62125
 30
0
 10
-13.1703
 20
-0.581562
 30
0
 10
-12.9719
 20
-0.568333
 30
0
 10
-12.866
 20
-0.846146
 30
0
  0
SPLINE
  5
A36
330
A02
100
AcDbEntity
  8
Shape2DView004
100
AcDbSpline
210
0
220
0
230
1
 70
8
 71
3
 72
8
 73
4
 74
0
 40
0
 40
0
 40
0
 40
0
 40
1
 40
1
 40
1
 40
1
 10
-13.9773
 20
-0.872604
 30
0
 10
-13.9244
 20
-0.859375
 30
0
 10
-13.3688
 20
-0.647708
 30
0
 10
-13.2761
 20
-0.62125
 30
0
  0
SPLINE
  5
A37
330
A02
100
AcDbEntity
  8
Shape2DView004
100
AcDbSpline
210
0
220
0
230
1
 70
8
 71
3
 72
8
 73
4
 74
0
 40
0
 40
0
 40
0
 40
0
 40
1
 40
1
 40
1
 40
1
 10
-14.0038
 20
-0.131771
 30
0
 10
-14.0038
 20
-0.383125
 30
0
 10
-13.9905
 20
-0.62125
 30
0
 10
-13.9773
 20
-0.872604
 30
0
  0
SPLINE
  5
A38
330
A02
100
AcDbEntity
  8
Shape2DView004
100
AcDbSpline
210
0
220
0
230
1
 70
8
 71
3
 72
8
 73
4
 74
0
 40
0
 40
0
 40
0
 40
0
 40
1
 40
1
 40
1
 40
1
 10
-13.9773
 20
0.688438
 30
0
 10
-13.9905
 20
0.410625
 30
0
 10
-14.0038
 20
0.146042
 30
0
 10
-14.0038
 20
-0.131771
 30
0
  0
SPLINE
  5
A39
330
A02
100
AcDbEntity
  8
Shape2DView004
100
AcDbSpline
210
0
220
0
230
1
 70
8
 71
1
 72
4
 73
2
 74
0
 40
0
 40
0
 40
7.18401
 40
7.18401
 10
-13.0645
 20
0.953021
 30
0
 10
-13.9773
 20
0.688438
 30
0
  0
SPLINE
  5
A3A
330
A02
100
AcDbEntity
  8
Shape2DView004
100
AcDbSpline
210
0
220
0
230
1
 70
8
 71
3
 72
8
 73
4
 74
0
 40
0
 40
0
 40
0
 40
0
 40
1
 40
1
 40
1
 40
1
 10
-12.8925
 20
1.05885
 30
0
 10
-12.9719
 20
0.979479
 30
0
 10
-13.0645
 20
0.953021
 30
0
 10
-13.0645
 20
0.953021
 30
0
  0
SPLINE
  5
A3B
330
A02
100
AcDbEntity
  8
Shape2DView004
100
AcDbSpline
210
0
220
0
230
1
 70
8
 71
1
 72
4
 73
2
 74
0
 40
0
 40
0
 40
11.5732
 40
11.5732
 10
-11.3711
 20
0.886875
 30
0
 10
-12.8925
 20
1.05885
 30
0
  0
SPLINE
  5
A3C
330
A02
100
AcDbEntity
  8
Shape2DView004
100
AcDbSpline
210
0
220
0
230
1
 70
8
 71
1
 72
4
 73
2
 74
0
 40
0
 40
0
 40
2.5
 40
2.5
 10
-11.3711
 20
1.2176
 30
0
 10
-11.3711
 20
0.886875
 30
0
  0
SPLINE
  5
A3D
330
A02
100
AcDbEntity
  8
Shape2DView004
100
AcDbSpline
210
0
220
0
230
1
 70
8
 71
1
 72
4
 73
2
 74
0
 40
0
 40
0
 40
11.0653
 40
11.0653
 10
-12.8264
 20
1.37635
 30
0
 10
-11.3711
 20
1.2176
 30
0
  0
SPLINE
  5
A3E
330
A02
100
AcDbEntity
  8
Shape2DView004
100
AcDbSpline
210
0
220
0
230
1
 70
8
 71
3
 72
8
 73
4
 74
0
 40
0
 40
0
 40
0
 40
0
 40
1
 40
1
 40
1
 40
1
 10
-13.1703
 20
1.60125
 30
0
 10
-13.0645
 20
1.61448
 30
0
 10
-12.8925
 20
1.60125
 30
0
 10
-12.8264
 20
1.37635
 30
0
  0
SPLINE
  5
A3F
330
A02
100
AcDbEntity
  8
Shape2DView004
100
AcDbSpline
210
0
220
0
230
1
 70
8
 71
3
 72
8
 73
4
 74
0
 40
0
 40
0
 40
0
 40
0
 40
1
 40
1
 40
1
 40
1
 10
-13.9111
 20
1.46896
 30
0
 10
-13.8715
 20
1.48219
 30
0
 10
-13.2761
 20
1.57479
 30
0
 10
-13.1703
 20
1.60125
 30
0
  0
SPLINE
  5
A40
330
A02
100
AcDbEntity
  8
Shape2DView004
100
AcDbSpline
210
0
220
0
230
1
 70
8
 71
2
 72
6
 73
3
 74
0
 40
0
 40
0
 40
0
 40
1
 40
1
 40
1
 10
-13.6333
 20
3.00354
 30
0
 10
-13.8119
 20
2.24617
 30
0
 10
-13.9111
 20
1.46896
 30
0
  0
SPLINE
  5
A41
330
A02
100
AcDbEntity
  8
Shape2DView004
100
AcDbSpline
210
0
220
0
230
1
 70
8
 71
1
 72
4
 73
2
 74
0
 40
0
 40
0
 40
7.24431
 40
7.24431
 10
-12.6808
 20
3.10938
 30
0
 10
-13.6333
 20
3.00354
 30
0
  0
SPLINE
  5
A42
330
A02
100
AcDbEntity
  8
Shape2DView004
100
AcDbSpline
210
0
220
0
230
1
 70
8
 71
3
 72
8
 73
4
 74
0
 40
0
 40
0
 40
0
 40
0
 40
1
 40
1
 40
1
 40
1
 10
-12.3633
 20
3.42688
 30
0
 10
-12.3633
 20
3.13583
 30
0
 10
-12.6808
 20
3.10938
 30
0
 10
-12.6808
 20
3.10938
 30
0
  0
SPLINE
  5
A43
330
A02
100
AcDbEntity
  8
Shape2DView004
100
AcDbSpline
210
0
220
0
230
1
 70
8
 71
3
 72
8
 73
4
 74
0
 40
0
 40
0
 40
0
 40
0
 40
1
 40
1
 40
1
 40
1
 10
-12.6676
 20
3.77083
 30
0
 10
-12.5618
 20
3.77083
 30
0
 10
-12.3633
 20
3.71792
 30
0
 10
-12.3633
 20
3.42688
 30
0
  0
SPLINE
  5
A44
330
A02
100
AcDbEntity
  8
Shape2DView004
100
AcDbSpline
210
0
220
0
230
1
 70
8
 71
1
 72
4
 73
2
 74
0
 40
0
 40
0
 40
5.7
 40
5.7
 10
-13.4217
 20
3.77083
 30
0
 10
-12.6676
 20
3.77083
 30
0
  0
SPLINE
  5
A45
330
A02
100
AcDbEntity
  8
Shape2DView004
100
AcDbSpline
210
0
220
0
230
1
 70
8
 71
2
 72
6
 73
3
 74
0
 40
0
 40
0
 40
0
 40
1
 40
1
 40
1
 10
-12.8528
 20
5.31865
 30
0
 10
-13.1868
 20
4.56458
 30
0
 10
-13.4217
 20
3.77083
 30
0
  0
SPLINE
  5
A46
330
A02
100
AcDbEntity
  8
Shape2DView004
100
AcDbSpline
210
0
220
0
230
1
 70
8
 71
1
 72
4
 73
2
 74
0
 40
0
 40
0
 40
7.21734
 40
7.21734
 10
-11.9003
 20
5.2525
 30
0
 10
-12.8528
 20
5.31865
 30
0
  0
SPLINE
  5
A47
330
A02
100
AcDbEntity
  8
Shape2DView004
100
AcDbSpline
210
0
220
0
230
1
 70
8
 71
3
 72
8
 73
4
 74
0
 40
0
 40
0
 40
0
 40
0
 40
1
 40
1
 40
1
 40
1
 10
-11.5299
 20
5.50385
 30
0
 10
-11.5828
 20
5.21281
 30
0
 10
-11.9003
 20
5.2525
 30
0
 10
-11.9003
 20
5.2525
 30
0
  0
SPLINE
  5
A48
330
A02
100
AcDbEntity
  8
Shape2DView004
100
AcDbSpline
210
0
220
0
230
1
 70
8
 71
3
 72
8
 73
4
 74
0
 40
0
 40
0
 40
0
 40
0
 40
1
 40
1
 40
1
 40
1
 10
-11.768
 20
5.90073
 30
0
 10
-11.6622
 20
5.8875
 30
0
 10
-11.477
 20
5.7949
 30
0
 10
-11.5299
 20
5.50385
 30
0
  0
SPLINE
  5
A49
330
A02
100
AcDbEntity
  8
Shape2DView004
100
AcDbSpline
210
0
220
0
230
1
 70
8
 71
3
 72
8
 73
4
 74
0
 40
0
 40
0
 40
0
 40
0
 40
1
 40
1
 40
1
 40
1
 10
-12.5089
 20
6.03302
 30
0
 10
-12.4956
 20
6.03302
 30
0
 10
-11.8739
 20
5.91396
 30
0
 10
-11.768
 20
5.90073
 30
0
  0
SPLINE
  5
A4A
330
A02
100
AcDbEntity
  8
Shape2DView004
100
AcDbSpline
210
0
220
0
230
1
 70
8
 71
2
 72
6
 73
3
 74
0
 40
0
 40
0
 40
0
 40
1
 40
1
 40
1
 10
-11.7151
 20
7.3824
 30
0
 10
-12.1517
 20
6.72755
 30
0
 10
-12.5089
 20
6.03302
 30
0
  0
SPLINE
  5
A4B
330
A02
100
AcDbEntity
  8
Shape2DView004
100
AcDbSpline
210
0
220
0
230
1
 70
8
 71
1
 72
4
 73
2
 74
0
 40
0
 40
0
 40
2.66833
 40
2.66833
 10
-11.3711
 20
7.30302
 30
0
 10
-11.7151
 20
7.3824
 30
0
  0
SPLINE
  5
A4C
330
A02
100
AcDbEntity
  8
Shape2DView004
100
AcDbSpline
210
0
220
0
230
1
 70
8
 71
1
 72
4
 73
2
 74
0
 40
0
 40
0
 40
51.2
 40
51.2
 10
-11.3711
 20
14.0764
 30
0
 10
-11.3711
 20
7.30302
 30
0
  0
SPLINE
  5
A4D
330
A02
100
AcDbEntity
  8
Shape2DView004
100
AcDbSpline
210
0
220
0
230
1
 70
8
 71
3
 72
8
 73
4
 74
0
 40
0
 40
0
 40
0
 40
0
 40
1
 40
1
 40
1
 40
1
 10
-7.25688
 20
16.3385
 30
0
 10
-9.51906
 20
17.7805
 30
0
 10
-11.3711
 20
16.7619
 30
0
 10
-11.3711
 20
14.0764
 30
0
  0
SPLINE
  5
A4E
330
A02
100
AcDbEntity
  8
Shape2DView004
100
AcDbSpline
210
0
220
0
230
1
 70
8
 71
1
 72
4
 73
2
 74
0
 40
0
 40
0
 40
42.9731
 40
42.9731
 10
-2.45469
 20
13.2958
 30
0
 10
-7.25688
 20
16.3385
 30
0
  0
SPLINE
  5
A4F
330
A02
100
AcDbEntity
  8
Shape2DView004
100
AcDbSpline
210
0
220
0
230
1
 70
8
 71
3
 72
8
 73
4
 74
0
 40
0
 40
0
 40
0
 40
0
 40
1
 40
1
 40
1
 40
1
 10
-1.91229
 20
13.3752
 30
0
 10
-2.0975
 20
13.3488
 30
0
 10
-2.26948
 20
13.3355
 30
0
 10
-2.45469
 20
13.2958
 30
0
  0
SPLINE
  5
A50
330
A02
100
AcDbEntity
  8
Shape2DView004
100
AcDbSpline
210
0
220
0
230
1
 70
8
 71
1
 72
4
 73
2
 74
0
 40
0
 40
0
 40
5.14296
 40
5.14296
 10
-1.60802
 20
12.7667
 30
0
 10
-1.91229
 20
13.3752
 30
0
  0
SPLINE
  5
A51
330
A02
100
AcDbEntity
  8
Shape2DView004
100
AcDbSpline
210
0
220
0
230
1
 70
8
 71
1
 72
4
 73
2
 74
0
 40
0
 40
0
 40
5.57584
 40
5.57584
 10
-0.98625
 20
12.3698
 30
0
 10
-1.60802
 20
12.7667
 30
0
  0
SPLINE
  5
A52
330
A02
100
AcDbEntity
  8
Shape2DView004
100
AcDbSpline
210
0
220
0
230
1
 70
8
 71
3
 72
8
 73
4
 74
0
 40
0
 40
0
 40
0
 40
0
 40
1
 40
1
 40
1
 40
1
 10
-0.853958
 20
12.727
 30
0
 10
-0.8275
 20
12.6344
 30
0
 10
-0.801042
 20
12.4756
 30
0
 10
-0.98625
 20
12.3698
 30
0
  0
SPLINE
  5
A53
330
A02
100
AcDbEntity
  8
Shape2DView004
100
AcDbSpline
210
0
220
0
230
1
 70
8
 71
3
 72
8
 73
4
 74
0
 40
0
 40
0
 40
0
 40
0
 40
1
 40
1
 40
1
 40
1
 10
-1.10531
 20
13.4281
 30
0
 10
-1.09208
 20
13.3752
 30
0
 10
-0.880417
 20
12.8196
 30
0
 10
-0.853958
 20
12.727
 30
0
  0
SPLINE
  5
A54
330
A02
100
AcDbEntity
  8
Shape2DView004
100
AcDbSpline
210
0
220
0
230
1
 70
8
 71
3
 72
8
 73
4
 74
0
 40
0
 40
0
 40
0
 40
0
 40
1
 40
1
 40
1
 40
1
 10
-0.364479
 20
13.4546
 30
0
 10
-0.615833
 20
13.4546
 30
0
 10
-0.853958
 20
13.4414
 30
0
 10
-1.10531
 20
13.4281
 30
0
  0
SPLINE
  5
A55
330
A02
100
AcDbEntity
  8
Shape2DView004
100
AcDbSpline
210
0
220
0
230
1
 70
8
 71
3
 72
8
 73
4
 74
0
 40
0
 40
0
 40
0
 40
0
 40
1
 40
1
 40
1
 40
1
 10
0.455729
 20
13.4281
 30
0
 10
0.177917
 20
13.4414
 30
0
 10
-0.0866667
 20
13.4546
 30
0
 10
-0.364479
 20
13.4546
 30
0
  0
SPLINE
  5
A56
330
A02
100
AcDbEntity
  8
Shape2DView004
100
AcDbSpline
210
0
220
0
230
1
 70
8
 71
1
 72
4
 73
2
 74
0
 40
0
 40
0
 40
7.21249
 40
7.21249
 10
0.733542
 20
12.5153
 30
0
 10
0.455729
 20
13.4281
 30
0
  0
SPLINE
  5
A57
330
A02
100
AcDbEntity
  8
Shape2DView004
100
AcDbSpline
210
0
220
0
230
1
 70
8
 71
3
 72
8
 73
4
 74
0
 40
0
 40
0
 40
0
 40
0
 40
1
 40
1
 40
1
 40
1
 10
0.839375
 20
12.3433
 30
0
 10
0.76
 20
12.4227
 30
0
 10
0.733542
 20
12.5153
 30
0
 10
0.733542
 20
12.5153
 30
0
  0
SPLINE
  5
A58
330
A02
100
AcDbEntity
  8
Shape2DView004
100
AcDbSpline
210
0
220
0
230
1
 70
8
 71
1
 72
4
 73
2
 74
0
 40
0
 40
0
 40
8.05047
 40
8.05047
 10
0.720312
 20
11.285
 30
0
 10
0.839375
 20
12.3433
 30
0
  0
SPLINE
  5
A59
330
A02
100
AcDbEntity
  8
Shape2DView004
100
AcDbSpline
210
0
220
0
230
1
 70
8
 71
1
 72
4
 73
2
 74
0
 40
0
 40
0
 40
2.83019
 40
2.83019
 10
1.03781
 20
11.0866
 30
0
 10
0.720312
 20
11.285
 30
0
  0
SPLINE
  5
A5A
330
A02
100
AcDbEntity
  8
Shape2DView004
100
AcDbSpline
210
0
220
0
230
1
 70
8
 71
1
 72
4
 73
2
 74
0
 40
0
 40
0
 40
8.956
 40
8.956
 10
1.1701
 20
12.264
 30
0
 10
1.03781
 20
11.0866
 30
0
  0
SPLINE
  5
A5B
330
A02
100
AcDbEntity
  8
Shape2DView004
100
AcDbSpline
210
0
220
0
230
1
 70
8
 71
3
 72
8
 73
4
 74
0
 40
0
 40
0
 40
0
 40
0
 40
1
 40
1
 40
1
 40
1
 10
1.395
 20
12.6079
 30
0
 10
1.40823
 20
12.5021
 30
0
 10
1.395
 20
12.3301
 30
0
 10
1.1701
 20
12.264
 30
0
  0
SPLINE
  5
A5C
330
A02
100
AcDbEntity
  8
Shape2DView004
100
AcDbSpline
210
0
220
0
230
1
 70
8
 71
3
 72
8
 73
4
 74
0
 40
0
 40
0
 40
0
 40
0
 40
1
 40
1
 40
1
 40
1
 10
1.26271
 20
13.3488
 30
0
 10
1.27594
 20
13.3091
 30
0
 10
1.36854
 20
12.7138
 30
0
 10
1.395
 20
12.6079
 30
0
  0
SPLINE
  5
A5D
330
A02
100
AcDbEntity
  8
Shape2DView004
100
AcDbSpline
210
0
220
0
230
1
 70
8
 71
2
 72
6
 73
3
 74
0
 40
0
 40
0
 40
0
 40
1
 40
1
 40
1
 10
2.79729
 20
13.0709
 30
0
 10
2.03992
 20
13.2495
 30
0
 10
1.26271
 20
13.3488
 30
0
  0
SPLINE
  5
A5E
330
A02
100
AcDbEntity
  8
Shape2DView004
100
AcDbSpline
210
0
220
0
230
1
 70
8
 71
1
 72
4
 73
2
 74
0
 40
0
 40
0
 40
7.24431
 40
7.24431
 10
2.90312
 20
12.1184
 30
0
 10
2.79729
 20
13.0709
 30
0
  0
SPLINE
  5
A5F
330
A02
100
AcDbEntity
  8
Shape2DView004
100
AcDbSpline
210
0
220
0
230
1
 70
8
 71
3
 72
8
 73
4
 74
0
 40
0
 40
0
 40
0
 40
0
 40
1
 40
1
 40
1
 40
1
 10
3.22062
 20
11.8009
 30
0
 10
2.92958
 20
11.8009
 30
0
 10
2.90312
 20
12.1184
 30
0
 10
2.90312
 20
12.1184
 30
0
  0
SPLINE
  5
A60
330
A02
100
AcDbEntity
  8
Shape2DView004
100
AcDbSpline
210
0
220
0
230
1
 70
8
 71
3
 72
8
 73
4
 74
0
 40
0
 40
0
 40
0
 40
0
 40
1
 40
1
 40
1
 40
1
 10
3.56458
 20
12.1052
 30
0
 10
3.56458
 20
11.9994
 30
0
 10
3.51167
 20
11.8009
 30
0
 10
3.22062
 20
11.8009
 30
0
  0
SPLINE
  5
A61
330
A02
100
AcDbEntity
  8
Shape2DView004
100
AcDbSpline
210
0
220
0
230
1
 70
8
 71
1
 72
4
 73
2
 74
0
 40
0
 40
0
 40
5.7
 40
5.7
 10
3.56458
 20
12.8593
 30
0
 10
3.56458
 20
12.1052
 30
0
  0
SPLINE
  5
A62
330
A02
100
AcDbEntity
  8
Shape2DView004
100
AcDbSpline
210
0
220
0
230
1
 70
8
 71
2
 72
6
 73
3
 74
0
 40
0
 40
0
 40
0
 40
1
 40
1
 40
1
 10
5.1124
 20
12.2904
 30
0
 10
4.35833
 20
12.6245
 30
0
 10
3.56458
 20
12.8593
 30
0
  0
SPLINE
  5
A63
330
A02
100
AcDbEntity
  8
Shape2DView004
100
AcDbSpline
210
0
220
0
230
1
 70
8
 71
1
 72
4
 73
2
 74
0
 40
0
 40
0
 40
7.21734
 40
7.21734
 10
5.04625
 20
11.3379
 30
0
 10
5.1124
 20
12.2904
 30
0
  0
SPLINE
  5
A64
330
A02
100
AcDbEntity
  8
Shape2DView004
100
AcDbSpline
210
0
220
0
230
1
 70
8
 71
3
 72
8
 73
4
 74
0
 40
0
 40
0
 40
0
 40
0
 40
1
 40
1
 40
1
 40
1
 10
5.2976
 20
10.9675
 30
0
 10
5.00656
 20
11.0204
 30
0
 10
5.04625
 20
11.3379
 30
0
 10
5.04625
 20
11.3379
 30
0
  0
SPLINE
  5
A65
330
A02
100
AcDbEntity
  8
Shape2DView004
100
AcDbSpline
210
0
220
0
230
1
 70
8
 71
3
 72
8
 73
4
 74
0
 40
0
 40
0
 40
0
 40
0
 40
1
 40
1
 40
1
 40
1
 10
5.69448
 20
11.2056
 30
0
 10
5.66802
 20
11.0998
 30
0
 10
5.58865
 20
10.9146
 30
0
 10
5.2976
 20
10.9675
 30
0
  0
SPLINE
  5
A66
330
A02
100
AcDbEntity
  8
Shape2DView004
100
AcDbSpline
210
0
220
0
230
1
 70
8
 71
3
 72
8
 73
4
 74
0
 40
0
 40
0
 40
0
 40
0
 40
1
 40
1
 40
1
 40
1
 10
5.82677
 20
11.9465
 30
0
 10
5.82677
 20
11.9332
 30
0
 10
5.70771
 20
11.3115
 30
0
 10
5.69448
 20
11.2056
 30
0
  0
SPLINE
  5
A67
330
A02
100
AcDbEntity
  8
Shape2DView004
100
AcDbSpline
210
0
220
0
230
1
 70
8
 71
2
 72
6
 73
3
 74
0
 40
0
 40
0
 40
0
 40
1
 40
1
 40
1
 10
7.17615
 20
11.1527
 30
0
 10
6.5213
 20
11.5893
 30
0
 10
5.82677
 20
11.9465
 30
0
  0
SPLINE
  5
A68
330
A02
100
AcDbEntity
  8
Shape2DView004
100
AcDbSpline
210
0
220
0
230
1
 70
8
 71
1
 72
4
 73
2
 74
0
 40
0
 40
0
 40
7.20347
 40
7.20347
 10
6.95125
 20
10.2267
 30
0
 10
7.17615
 20
11.1527
 30
0
  0
SPLINE
  5
A69
330
A02
100
AcDbEntity
  8
Shape2DView004
100
AcDbSpline
210
0
220
0
230
1
 70
8
 71
3
 72
8
 73
4
 74
0
 40
0
 40
0
 40
0
 40
0
 40
1
 40
1
 40
1
 40
1
 10
7.13646
 20
9.81656
 30
0
 10
6.85865
 20
9.9224
 30
0
 10
6.95125
 20
10.2267
 30
0
 10
6.95125
 20
10.2267
 30
0
  0
SPLINE
  5
A6A
330
A02
100
AcDbEntity
  8
Shape2DView004
100
AcDbSpline
210
0
220
0
230
1
 70
8
 71
3
 72
8
 73
4
 74
0
 40
0
 40
0
 40
0
 40
0
 40
1
 40
1
 40
1
 40
1
 10
7.57302
 20
9.98854
 30
0
 10
7.53333
 20
9.88271
 30
0
 10
7.41427
 20
9.72396
 30
0
 10
7.13646
 20
9.81656
 30
0
  0
SPLINE
  5
A6B
330
A02
100
AcDbEntity
  8
Shape2DView004
100
AcDbSpline
210
0
220
0
230
1
 70
8
 71
3
 72
8
 73
4
 74
0
 40
0
 40
0
 40
0
 40
0
 40
1
 40
1
 40
1
 40
1
 10
7.8376
 20
10.6897
 30
0
 10
7.82437
 20
10.6368
 30
0
 10
7.61271
 20
10.0811
 30
0
 10
7.57302
 20
9.98854
 30
0
  0
SPLINE
  5
A6C
330
A02
100
AcDbEntity
  8
Shape2DView004
100
AcDbSpline
210
0
220
0
230
1
 70
8
 71
3
 72
8
 73
4
 74
0
 40
0
 40
0
 40
0
 40
0
 40
1
 40
1
 40
1
 40
1
 10
9.02823
 20
9.67104
 30
0
 10
8.65781
 20
10.0282
 30
0
 10
8.24771
 20
10.3722
 30
0
 10
7.8376
 20
10.6897
 30
0
  0
SPLINE
  5
A6D
330
A02
100
AcDbEntity
  8
Shape2DView004
100
AcDbSpline
210
0
220
0
230
1
 70
8
 71
1
 72
4
 73
2
 74
0
 40
0
 40
0
 40
7.20902
 40
7.20902
 10
8.64458
 20
8.79792
 30
0
 10
9.02823
 20
9.67104
 30
0
  0
SPLINE
  5
A6E
330
A02
100
AcDbEntity
  8
Shape2DView004
100
AcDbSpline
210
0
220
0
230
1
 70
8
 71
3
 72
8
 73
4
 74
0
 40
0
 40
0
 40
0
 40
0
 40
1
 40
1
 40
1
 40
1
 10
8.76365
 20
8.36135
 30
0
 10
8.51229
 20
8.50688
 30
0
 10
8.64458
 20
8.79792
 30
0
 10
8.64458
 20
8.79792
 30
0
  0
SPLINE
  5
A6F
330
A02
100
AcDbEntity
  8
Shape2DView004
100
AcDbSpline
210
0
220
0
230
1
 70
8
 71
3
 72
8
 73
4
 74
0
 40
0
 40
0
 40
0
 40
0
 40
1
 40
1
 40
1
 40
1
 10
9.21344
 20
8.45396
 30
0
 10
9.16052
 20
8.36135
 30
0
 10
9.015
 20
8.21583
 30
0
 10
8.76365
 20
8.36135
 30
0
  0
SPLINE
  5
A70
330
A02
100
AcDbEntity
  8
Shape2DView004
100
AcDbSpline
210
0
220
0
230
1
 70
8
 71
3
 72
8
 73
4
 74
0
 40
0
 40
0
 40
0
 40
0
 40
1
 40
1
 40
1
 40
1
 10
9.59708
 20
9.10219
 30
0
 10
9.57062
 20
9.04927
 30
0
 10
9.26635
 20
8.54656
 30
0
 10
9.21344
 20
8.45396
 30
0
  0
SPLINE
  5
A71
330
A02
100
AcDbEntity
  8
Shape2DView004
100
AcDbSpline
210
0
220
0
230
1
 70
8
 71
3
 72
8
 73
4
 74
0
 40
0
 40
0
 40
0
 40
0
 40
1
 40
1
 40
1
 40
1
 10
10.5893
 20
7.89833
 30
0
 10
10.285
 20
8.32167
 30
0
 10
9.94104
 20
8.71854
 30
0
 10
9.59708
 20
9.10219
 30
0
  0
SPLINE
  5
A72
330
A02
100
AcDbEntity
  8
Shape2DView004
100
AcDbSpline
210
0
220
0
230
1
 70
8
 71
1
 72
4
 73
2
 74
0
 40
0
 40
0
 40
7.2111
 40
7.2111
 10
10.0601
 20
7.10458
 30
0
 10
10.5893
 20
7.89833
 30
0
  0
SPLINE
  5
A73
330
A02
100
AcDbEntity
  8
Shape2DView004
100
AcDbSpline
210
0
220
0
230
1
 70
8
 71
3
 72
8
 73
4
 74
0
 40
0
 40
0
 40
0
 40
0
 40
1
 40
1
 40
1
 40
1
 10
10.0998
 20
6.65479
 30
0
 10
9.8749
 20
6.84
 30
0
 10
10.0601
 20
7.10458
 30
0
 10
10.0601
 20
7.10458
 30
0
  0
SPLINE
  5
A74
330
A02
100
AcDbEntity
  8
Shape2DView004
100
AcDbSpline
210
0
220
0
230
1
 70
8
 71
3
 72
8
 73
4
 74
0
 40
0
 40
0
 40
0
 40
0
 40
1
 40
1
 40
1
 40
1
 10
10.5628
 20
6.66802
 30
0
 10
10.4967
 20
6.58865
 30
0
 10
10.3247
 20
6.46958
 30
0
 10
10.0998
 20
6.65479
 30
0
  0
SPLINE
  5
A75
330
A02
100
AcDbEntity
  8
Shape2DView004
100
AcDbSpline
210
0
220
0
230
1
 70
8
 71
3
 72
8
 73
4
 74
0
 40
0
 40
0
 40
0
 40
0
 40
1
 40
1
 40
1
 40
1
 10
11.0523
 20
7.23688
 30
0
 10
11.0391
 20
7.21042
 30
0
 10
10.6422
 20
6.7474
 30
0
 10
10.5628
 20
6.66802
 30
0
  0
SPLINE
  5
A76
330
A02
100
AcDbEntity
  8
Shape2DView004
100
AcDbSpline
210
0
220
0
230
1
 70
8
 71
3
 72
8
 73
4
 74
0
 40
0
 40
0
 40
0
 40
0
 40
1
 40
1
 40
1
 40
1
 10
11.8328
 20
5.87427
 30
0
 10
11.5947
 20
6.33729
 30
0
 10
11.3433
 20
6.80031
 30
0
 10
11.0523
 20
7.23688
 30
0
  0
SPLINE
  5
A77
330
A02
100
AcDbEntity
  8
Shape2DView004
100
AcDbSpline
210
0
220
0
230
1
 70
8
 71
1
 72
4
 73
2
 74
0
 40
0
 40
0
 40
7.21388
 40
7.21388
 10
11.1714
 20
5.18635
 30
0
 10
11.8328
 20
5.87427
 30
0
  0
SPLINE
  5
A78
330
A02
100
AcDbEntity
  8
Shape2DView004
100
AcDbSpline
210
0
220
0
230
1
 70
8
 71
3
 72
8
 73
4
 74
0
 40
0
 40
0
 40
0
 40
0
 40
1
 40
1
 40
1
 40
1
 10
11.1317
 20
4.73656
 30
0
 10
10.9465
 20
4.96146
 30
0
 10
11.1714
 20
5.18635
 30
0
 10
11.1714
 20
5.18635
 30
0
  0
SPLINE
  5
A79
330
A02
100
AcDbEntity
  8
Shape2DView004
100
AcDbSpline
210
0
220
0
230
1
 70
8
 71
3
 72
8
 73
4
 74
0
 40
0
 40
0
 40
0
 40
0
 40
1
 40
1
 40
1
 40
1
 10
11.5947
 20
4.67042
 30
0
 10
11.5153
 20
4.60427
 30
0
 10
11.3301
 20
4.51167
 30
0
 10
11.1317
 20
4.73656
 30
0
  0
SPLINE
  5
A7A
330
A02
100
AcDbEntity
  8
Shape2DView004
100
AcDbSpline
210
0
220
0
230
1
 70
8
 71
3
 72
8
 73
4
 74
0
 40
0
 40
0
 40
0
 40
0
 40
1
 40
1
 40
1
 40
1
 10
12.1768
 20
5.1599
 30
0
 10
12.1768
 20
5.1599
 30
0
 10
11.6873
 20
4.74979
 30
0
 10
11.5947
 20
4.67042
 30
0
  0
SPLINE
  5
A7B
330
A02
100
AcDbEntity
  8
Shape2DView004
100
AcDbSpline
210
0
220
0
230
1
 70
8
 71
3
 72
8
 73
4
 74
0
 40
0
 40
0
 40
0
 40
0
 40
1
 40
1
 40
1
 40
1
 10
12.7059
 20
3.69146
 30
0
 10
12.5604
 20
4.19417
 30
0
 10
12.3752
 20
4.68365
 30
0
 10
12.1768
 20
5.1599
 30
0
  0
SPLINE
  5
A7C
330
A02
100
AcDbEntity
  8
Shape2DView004
100
AcDbSpline
210
0
220
0
230
1
 70
8
 71
1
 72
4
 73
2
 74
0
 40
0
 40
0
 40
0.707107
 40
0.707107
 10
12.6927
 20
3.59885
 30
0
 10
12.7059
 20
3.69146
 30
0
  0
SPLINE
  5
A7D
330
A02
100
AcDbEntity
  8
Shape2DView004
100
AcDbSpline
210
0
220
0
230
1
 70
8
 71
1
 72
4
 73
2
 74
0
 40
0
 40
0
 40
14.4062
 40
14.4062
 10
14.3199
 20
2.60667
 30
0
 10
12.6927
 20
3.59885
 30
0
  0
SPLINE
  5
A7E
330
A02
100
AcDbEntity
  8
Shape2DView004
100
AcDbSpline
210
0
220
0
230
1
 70
8
 71
3
 72
8
 73
4
 74
0
 40
0
 40
0
 40
0
 40
0
 40
1
 40
1
 40
1
 40
1
 10
14.3199
 20
-2.35427
 30
0
 10
16.5821
 20
-0.912292
 30
0
 10
16.5821
 20
1.16469
 30
0
 10
14.3199
 20
2.60667
 30
0
  0
SPLINE
  5
A7F
330
A02
100
AcDbEntity
  8
Shape2DView004
100
AcDbSpline
210
0
220
0
230
1
 70
8
 71
1
 72
4
 73
2
 74
0
 40
0
 40
0
 40
24.0217
 40
24.0217
 10
11.6476
 20
-4.07406
 30
0
 10
14.3199
 20
-2.35427
 30
0
  0
SPLINE
  5
A80
330
A02
100
AcDbEntity
  8
Shape2DView004
100
AcDbSpline
210
0
220
0
230
1
 70
8
 71
3
 72
8
 73
4
 74
0
 40
0
 40
0
 40
0
 40
0
 40
1
 40
1
 40
1
 40
1
 10
11.9386
 20
-4.07406
 30
0
 10
11.9254
 20
-4.07406
 30
0
 10
11.6608
 20
-4.07406
 30
0
 10
11.6476
 20
-4.07406
 30
0
  0
SPLINE
  5
A81
330
A02
100
AcDbEntity
  8
Shape2DView004
100
AcDbSpline
210
0
220
0
230
1
 70
8
 71
1
 72
4
 73
2
 74
0
 40
0
 40
0
 40
5.7
 40
5.7
 10
12.6927
 20
-4.07406
 30
0
 10
11.9386
 20
-4.07406
 30
0
  0
SPLINE
  5
A82
330
A02
100
AcDbEntity
  8
Shape2DView004
100
AcDbSpline
210
0
220
0
230
1
 70
8
 71
2
 72
6
 73
3
 74
0
 40
0
 40
0
 40
0
 40
1
 40
1
 40
1
 10
12.1239
 20
-5.62187
 30
0
 10
12.4579
 20
-4.86781
 30
0
 10
12.6927
 20
-4.07406
 30
0
  0
SPLINE
  5
A83
330
A02
100
AcDbEntity
  8
Shape2DView004
100
AcDbSpline
210
0
220
0
230
1
 70
8
 71
1
 72
4
 73
2
 74
0
 40
0
 40
0
 40
7.21734
 40
7.21734
 10
11.1714
 20
-5.55573
 30
0
 10
12.1239
 20
-5.62187
 30
0
  0
SPLINE
  5
A84
330
A02
100
AcDbEntity
  8
Shape2DView004
100
AcDbSpline
210
0
220
0
230
1
 70
8
 71
3
 72
8
 73
4
 74
0
 40
0
 40
0
 40
0
 40
0
 40
1
 40
1
 40
1
 40
1
 10
10.8009
 20
-5.80708
 30
0
 10
10.8539
 20
-5.51604
 30
0
 10
11.1714
 20
-5.55573
 30
0
 10
11.1714
 20
-5.55573
 30
0
  0
SPLINE
  5
A85
330
A02
100
AcDbEntity
  8
Shape2DView004
100
AcDbSpline
210
0
220
0
230
1
 70
8
 71
3
 72
8
 73
4
 74
0
 40
0
 40
0
 40
0
 40
0
 40
1
 40
1
 40
1
 40
1
 10
11.0391
 20
-6.20396
 30
0
 10
10.9332
 20
-6.1775
 30
0
 10
10.748
 20
-6.09812
 30
0
 10
10.8009
 20
-5.80708
 30
0
  0
SPLINE
  5
A86
330
A02
100
AcDbEntity
  8
Shape2DView004
100
AcDbSpline
210
0
220
0
230
1
 70
8
 71
3
 72
8
 73
4
 74
0
 40
0
 40
0
 40
0
 40
0
 40
1
 40
1
 40
1
 40
1
 10
11.7799
 20
-6.33625
 30
0
 10
11.7534
 20
-6.33625
 30
0
 10
11.1449
 20
-6.21719
 30
0
 10
11.0391
 20
-6.20396
 30
0
  0
SPLINE
  5
A87
330
A02
100
AcDbEntity
  8
Shape2DView004
100
AcDbSpline
210
0
220
0
230
1
 70
8
 71
2
 72
6
 73
3
 74
0
 40
0
 40
0
 40
0
 40
1
 40
1
 40
1
 10
10.9861
 20
-7.68562
 30
0
 10
11.4227
 20
-7.03078
 30
0
 10
11.7799
 20
-6.33625
 30
0
  0
SPLINE
  5
A88
330
A02
100
AcDbEntity
  8
Shape2DView004
100
AcDbSpline
210
0
220
0
230
1
 70
8
 71
1
 72
4
 73
2
 74
0
 40
0
 40
0
 40
7.20347
 40
7.20347
 10
10.0601
 20
-7.46073
 30
0
 10
10.9861
 20
-7.68562
 30
0
  0
SPLINE
  5
A89
330
A02
100
AcDbEntity
  8
Shape2DView004
100
AcDbSpline
210
0
220
0
230
1
 70
8
 71
3
 72
8
 73
4
 74
0
 40
0
 40
0
 40
0
 40
0
 40
1
 40
1
 40
1
 40
1
 10
9.65
 20
-7.64594
 30
0
 10
9.75583
 20
-7.36812
 30
0
 10
10.0601
 20
-7.46073
 30
0
 10
10.0601
 20
-7.46073
 30
0
  0
SPLINE
  5
A8A
330
A02
100
AcDbEntity
  8
Shape2DView004
100
AcDbSpline
210
0
220
0
230
1
 70
8
 71
3
 72
8
 73
4
 74
0
 40
0
 40
0
 40
0
 40
0
 40
1
 40
1
 40
1
 40
1
 10
9.82198
 20
-8.0825
 30
0
 10
9.71615
 20
-8.04281
 30
0
 10
9.5574
 20
-7.92375
 30
0
 10
9.65
 20
-7.64594
 30
0
  0
SPLINE
  5
A8B
330
A02
100
AcDbEntity
  8
Shape2DView004
100
AcDbSpline
210
0
220
0
230
1
 70
8
 71
3
 72
8
 73
4
 74
0
 40
0
 40
0
 40
0
 40
0
 40
1
 40
1
 40
1
 40
1
 10
10.5231
 20
-8.34708
 30
0
 10
10.4702
 20
-8.33385
 30
0
 10
9.91458
 20
-8.12219
 30
0
 10
9.82198
 20
-8.0825
 30
0
  0
SPLINE
  5
A8C
330
A02
100
AcDbEntity
  8
Shape2DView004
100
AcDbSpline
210
0
220
0
230
1
 70
8
 71
3
 72
8
 73
4
 74
0
 40
0
 40
0
 40
0
 40
0
 40
1
 40
1
 40
1
 40
1
 10
9.50448
 20
-9.53771
 30
0
 10
9.86167
 20
-9.16729
 30
0
 10
10.2056
 20
-8.75719
 30
0
 10
10.5231
 20
-8.34708
 30
0
  0
SPLINE
  5
A8D
330
A02
100
AcDbEntity
  8
Shape2DView004
100
AcDbSpline
210
0
220
0
230
1
 70
8
 71
1
 72
4
 73
2
 74
0
 40
0
 40
0
 40
7.20902
 40
7.20902
 10
8.63135
 20
-9.15406
 30
0
 10
9.50448
 20
-9.53771
 30
0
  0
SPLINE
  5
A8E
330
A02
100
AcDbEntity
  8
Shape2DView004
100
AcDbSpline
210
0
220
0
230
1
 70
8
 71
3
 72
8
 73
4
 74
0
 40
0
 40
0
 40
0
 40
0
 40
1
 40
1
 40
1
 40
1
 10
8.19479
 20
-9.27313
 30
0
 10
8.34031
 20
-9.02177
 30
0
 10
8.63135
 20
-9.15406
 30
0
 10
8.63135
 20
-9.15406
 30
0
  0
SPLINE
  5
A8F
330
A02
100
AcDbEntity
  8
Shape2DView004
100
AcDbSpline
210
0
220
0
230
1
 70
8
 71
3
 72
8
 73
4
 74
0
 40
0
 40
0
 40
0
 40
0
 40
1
 40
1
 40
1
 40
1
 10
8.2874
 20
-9.72292
 30
0
 10
8.19479
 20
-9.67
 30
0
 10
8.04927
 20
-9.52448
 30
0
 10
8.19479
 20
-9.27313
 30
0
  0
SPLINE
  5
A90
330
A02
100
AcDbEntity
  8
Shape2DView004
100
AcDbSpline
210
0
220
0
230
1
 70
8
 71
3
 72
8
 73
4
 74
0
 40
0
 40
0
 40
0
 40
0
 40
1
 40
1
 40
1
 40
1
 10
8.93562
 20
-10.1066
 30
0
 10
8.88271
 20
-10.0801
 30
0
 10
8.38
 20
-9.77583
 30
0
 10
8.2874
 20
-9.72292
 30
0
  0
SPLINE
  5
A91
330
A02
100
AcDbEntity
  8
Shape2DView004
100
AcDbSpline
210
0
220
0
230
1
 70
8
 71
3
 72
8
 73
4
 74
0
 40
0
 40
0
 40
0
 40
0
 40
1
 40
1
 40
1
 40
1
 10
7.73177
 20
-11.0987
 30
0
 10
8.1551
 20
-10.7945
 30
0
 10
8.55198
 20
-10.4505
 30
0
 10
8.93562
 20
-10.1066
 30
0
  0
SPLINE
  5
A92
330
A02
100
AcDbEntity
  8
Shape2DView004
100
AcDbSpline
210
0
220
0
230
1
 70
8
 71
1
 72
4
 73
2
 74
0
 40
0
 40
0
 40
7.2111
 40
7.2111
 10
6.93802
 20
-10.5696
 30
0
 10
7.73177
 20
-11.0987
 30
0
  0
SPLINE
  5
A93
330
A02
100
AcDbEntity
  8
Shape2DView004
100
AcDbSpline
210
0
220
0
230
1
 70
8
 71
3
 72
8
 73
4
 74
0
 40
0
 40
0
 40
0
 40
0
 40
1
 40
1
 40
1
 40
1
 10
6.48823
 20
-10.6093
 30
0
 10
6.67344
 20
-10.3844
 30
0
 10
6.93802
 20
-10.5696
 30
0
 10
6.93802
 20
-10.5696
 30
0
  0
SPLINE
  5
A94
330
A02
100
AcDbEntity
  8
Shape2DView004
100
AcDbSpline
210
0
220
0
230
1
 70
8
 71
3
 72
8
 73
4
 74
0
 40
0
 40
0
 40
0
 40
0
 40
1
 40
1
 40
1
 40
1
 10
6.50146
 20
-11.0723
 30
0
 10
6.42208
 20
-11.0061
 30
0
 10
6.30302
 20
-10.8342
 30
0
 10
6.48823
 20
-10.6093
 30
0
  0
SPLINE
  5
A95
330
A02
100
AcDbEntity
  8
Shape2DView004
100
AcDbSpline
210
0
220
0
230
1
 70
8
 71
3
 72
8
 73
4
 74
0
 40
0
 40
0
 40
0
 40
0
 40
1
 40
1
 40
1
 40
1
 10
7.07031
 20
-11.5618
 30
0
 10
7.04385
 20
-11.5485
 30
0
 10
6.58083
 20
-11.1517
 30
0
 10
6.50146
 20
-11.0723
 30
0
  0
SPLINE
  5
A96
330
A02
100
AcDbEntity
  8
Shape2DView004
100
AcDbSpline
210
0
220
0
230
1
 70
8
 71
3
 72
8
 73
4
 74
0
 40
0
 40
0
 40
0
 40
0
 40
1
 40
1
 40
1
 40
1
 10
5.70771
 20
-12.3423
 30
0
 10
6.17073
 20
-12.1042
 30
0
 10
6.63375
 20
-11.8528
 30
0
 10
7.07031
 20
-11.5618
 30
0
  0
SPLINE
  5
A97
330
A02
100
AcDbEntity
  8
Shape2DView004
100
AcDbSpline
210
0
220
0
230
1
 70
8
 71
1
 72
4
 73
2
 74
0
 40
0
 40
0
 40
7.21388
 40
7.21388
 10
5.01979
 20
-11.6808
 30
0
 10
5.70771
 20
-12.3423
 30
0
  0
SPLINE
  5
A98
330
A02
100
AcDbEntity
  8
Shape2DView004
100
AcDbSpline
210
0
220
0
230
1
 70
8
 71
3
 72
8
 73
4
 74
0
 40
0
 40
0
 40
0
 40
0
 40
1
 40
1
 40
1
 40
1
 10
4.57
 20
-11.6411
 30
0
 10
4.7949
 20
-11.4559
 30
0
 10
5.01979
 20
-11.6808
 30
0
 10
5.01979
 20
-11.6808
 30
0
  0
SPLINE
  5
A99
330
A02
100
AcDbEntity
  8
Shape2DView004
100
AcDbSpline
210
0
220
0
230
1
 70
8
 71
3
 72
8
 73
4
 74
0
 40
0
 40
0
 40
0
 40
0
 40
1
 40
1
 40
1
 40
1
 10
4.50385
 20
-12.1042
 30
0
 10
4.43771
 20
-12.0248
 30
0
 10
4.3451
 20
-11.8396
 30
0
 10
4.57
 20
-11.6411
 30
0
  0
SPLINE
  5
A9A
330
A02
100
AcDbEntity
  8
Shape2DView004
100
AcDbSpline
210
0
220
0
230
1
 70
8
 71
3
 72
8
 73
4
 74
0
 40
0
 40
0
 40
0
 40
0
 40
1
 40
1
 40
1
 40
1
 10
4.9801
 20
-12.6862
 30
0
 10
4.9801
 20
-12.6862
 30
0
 10
4.57
 20
-12.1968
 30
0
 10
4.50385
 20
-12.1042
 30
0
  0
SPLINE
  5
A9B
330
A02
100
AcDbEntity
  8
Shape2DView004
100
AcDbSpline
210
0
220
0
230
1
 70
8
 71
3
 72
8
 73
4
 74
0
 40
0
 40
0
 40
0
 40
0
 40
1
 40
1
 40
1
 40
1
 10
3.51167
 20
-13.2154
 30
0
 10
4.01437
 20
-13.0699
 30
0
 10
4.50385
 20
-12.8847
 30
0
 10
4.9801
 20
-12.6862
 30
0
  0
SPLINE
  5
A9C
330
A02
100
AcDbEntity
  8
Shape2DView004
100
AcDbSpline
210
0
220
0
230
1
 70
8
 71
1
 72
4
 73
2
 74
0
 40
0
 40
0
 40
7.22011
 40
7.22011
 10
2.94281
 20
-12.4481
 30
0
 10
3.51167
 20
-13.2154
 30
0
  0
SPLINE
  5
A9D
330
A02
100
AcDbEntity
  8
Shape2DView004
100
AcDbSpline
210
0
220
0
230
1
 70
8
 71
3
 72
8
 73
4
 74
0
 40
0
 40
0
 40
0
 40
0
 40
1
 40
1
 40
1
 40
1
 10
2.50625
 20
-12.3291
 30
0
 10
2.7576
 20
-12.1835
 30
0
 10
2.94281
 20
-12.4481
 30
0
 10
2.94281
 20
-12.4481
 30
0
  0
SPLINE
  5
A9E
330
A02
100
AcDbEntity
  8
Shape2DView004
100
AcDbSpline
210
0
220
0
230
1
 70
8
 71
3
 72
8
 73
4
 74
0
 40
0
 40
0
 40
0
 40
0
 40
1
 40
1
 40
1
 40
1
 10
2.36073
 20
-12.7656
 30
0
 10
2.30781
 20
-12.673
 30
0
 10
2.2549
 20
-12.4746
 30
0
 10
2.50625
 20
-12.3291
 30
0
  0
SPLINE
  5
A9F
330
A02
100
AcDbEntity
  8
Shape2DView004
100
AcDbSpline
210
0
220
0
230
1
 70
8
 71
3
 72
8
 73
4
 74
0
 40
0
 40
0
 40
0
 40
0
 40
1
 40
1
 40
1
 40
1
 10
2.73115
 20
-13.4139
 30
0
 10
2.71792
 20
-13.4006
 30
0
 10
2.41365
 20
-12.8582
 30
0
 10
2.36073
 20
-12.7656
 30
0
  0
SPLINE
  5
AA0
330
A02
100
AcDbEntity
  8
Shape2DView004
100
AcDbSpline
210
0
220
0
230
1
 70
8
 71
2
 72
6
 73
3
 74
0
 40
0
 40
0
 40
0
 40
1
 40
1
 40
1
 10
1.18333
 20
-13.6784
 30
0
 10
1.97708
 20
-13.5958
 30
0
 10
2.73115
 20
-13.4139
 30
0
  0
SPLINE
  5
AA1
330
A02
100
AcDbEntity
  8
Shape2DView004
100
AcDbSpline
210
0
220
0
230
1
 70
8
 71
1
 72
4
 73
2
 74
0
 40
0
 40
0
 40
7.15542
 40
7.15542
 10
0.76
 20
-12.8318
 30
0
 10
1.18333
 20
-13.6784
 30
0
  0
SPLINE
  5
AA2
330
A02
100
AcDbEntity
  8
Shape2DView004
100
AcDbSpline
210
0
220
0
230
1
 70
8
 71
3
 72
8
 73
4
 74
0
 40
0
 40
0
 40
0
 40
0
 40
1
 40
1
 40
1
 40
1
 10
0.349896
 20
-12.6466
 30
0
 10
0.627708
 20
-12.5407
 30
0
 10
0.76
 20
-12.8318
 30
0
 10
0.76
 20
-12.8318
 30
0
  0
SPLINE
  5
AA3
330
A02
100
AcDbEntity
  8
Shape2DView004
100
AcDbSpline
210
0
220
0
230
1
 70
8
 71
3
 72
8
 73
4
 74
0
 40
0
 40
0
 40
0
 40
0
 40
1
 40
1
 40
1
 40
1
 10
0.125
 20
-13.0567
 30
0
 10
0.0853125
 20
-12.9508
 30
0
 10
0.0720833
 20
-12.7524
 30
0
 10
0.349896
 20
-12.6466
 30
0
  0
SPLINE
  5
AA4
330
A02
100
AcDbEntity
  8
Shape2DView004
100
AcDbSpline
210
0
220
0
230
1
 70
8
 71
3
 72
8
 73
4
 74
0
 40
0
 40
0
 40
0
 40
0
 40
1
 40
1
 40
1
 40
1
 10
0.376354
 20
-13.7578
 30
0
 10
0.363125
 20
-13.7049
 30
0
 10
0.151458
 20
-13.1493
 30
0
 10
0.125
 20
-13.0567
 30
0
  0
SPLINE
  5
AA5
330
A02
100
AcDbEntity
  8
Shape2DView004
100
AcDbSpline
210
0
220
0
230
1
 70
8
 71
3
 72
8
 73
4
 74
0
 40
0
 40
0
 40
0
 40
0
 40
1
 40
1
 40
1
 40
1
 10
-0.364479
 20
-13.7843
 30
0
 10
-0.113125
 20
-13.7843
 30
0
 10
0.125
 20
-13.771
 30
0
 10
0.376354
 20
-13.7578
 30
0
  0
SPLINE
  5
AA6
330
A02
100
AcDbEntity
  8
Shape2DView004
100
AcDbSpline
210
0
220
0
230
1
 70
8
 71
3
 72
8
 73
4
 74
0
 40
0
 40
0
 40
0
 40
0
 40
1
 40
1
 40
1
 40
1
 10
-1.18469
 20
-13.7578
 30
0
 10
-0.906875
 20
-13.771
 30
0
 10
-0.642292
 20
-13.7843
 30
0
 10
-0.364479
 20
-13.7843
 30
0
  0
SPLINE
  5
AA7
330
A02
100
AcDbEntity
  8
Shape2DView004
100
AcDbSpline
210
0
220
0
230
1
 70
8
 71
1
 72
4
 73
2
 74
0
 40
0
 40
0
 40
7.21249
 40
7.21249
 10
-1.4625
 20
-12.845
 30
0
 10
-1.18469
 20
-13.7578
 30
0
  0
SPLINE
  5
AA8
330
A02
100
AcDbEntity
  8
Shape2DView004
100
AcDbSpline
210
0
220
0
230
1
 70
8
 71
3
 72
8
 73
4
 74
0
 40
0
 40
0
 40
0
 40
0
 40
1
 40
1
 40
1
 40
1
 10
-1.56833
 20
-12.673
 30
0
 10
-1.48896
 20
-12.7524
 30
0
 10
-1.4625
 20
-12.845
 30
0
 10
-1.4625
 20
-12.845
 30
0
  0
SPLINE
  5
AA9
330
A02
100
AcDbEntity
  8
Shape2DView004
100
AcDbSpline
210
0
220
0
230
1
 70
8
 71
1
 72
4
 73
2
 74
0
 40
0
 40
0
 40
0.3
 40
0.3
 10
-1.56833
 20
-12.6333
 30
0
 10
-1.56833
 20
-12.673
 30
0
  0
SPLINE
  5
AAA
330
A02
100
AcDbEntity
  8
Shape2DView004
100
AcDbSpline
210
0
220
0
230
1
 70
8
 71
1
 72
4
 73
2
 74
0
 40
0
 40
0
 40
4.993
 40
4.993
 10
-2.12396
 20
-12.9905
 30
0
 10
-1.56833
 20
-12.6333
 30
0
  0
SPLINE
  5
AAB
330
A02
100
AcDbEntity
  8
Shape2DView004
100
AcDbSpline
210
0
220
0
230
1
 70
8
 71
3
 72
8
 73
4
 74
0
 40
0
 40
0
 40
0
 40
0
 40
1
 40
1
 40
1
 40
1
 10
-2.0049
 20
-13.7049
 30
0
 10
-2.01813
 20
-13.6652
 30
0
 10
-2.0975
 20
-13.1493
 30
0
 10
-2.12396
 20
-12.9905
 30
0
  0
SPLINE
  5
AAC
330
A02
100
AcDbEntity
  8
Shape2DView004
100
AcDbSpline
210
0
220
0
230
1
 70
8
 71
2
 72
6
 73
3
 74
0
 40
0
 40
0
 40
0
 40
1
 40
1
 40
1
 10
-2.99708
 20
-13.5461
 30
0
 10
-2.50099
 20
-13.6454
 30
0
 10
-2.0049
 20
-13.7049
 30
0
  0
SPLINE
  5
AAD
330
A02
100
AcDbEntity
  8
Shape2DView004
100
AcDbSpline
210
0
220
0
230
1
 70
8
 71
1
 72
4
 73
2
 74
0
 40
0
 40
0
 40
38.1182
 40
38.1182
 10
-7.25688
 20
-16.2449
 30
0
 10
-2.99708
 20
-13.5461
 30
0
  0
ARC
  5
AAE
330
A02
100
AcDbEntity
  8
Shape2DView004
100
AcDbCircle
 10
-17.8808
 20
-6
 30
0
 40
0.5
100
AcDbArc
 50
180
 51
0
  0
LINE
  5
AAF
330
A02
100
AcDbEntity
  8
Shape2DView004
100
AcDbLine
 10
-17.3808
 20
6
 30
0
 11
-17.3808
 21
-6
 31
0
  0
LINE
  5
AB0
330
A02
100
AcDbEntity
  8
Shape2DView004
100
AcDbLine
 10
-18.3808
 20
-6
 30
0
 11
-18.3808
 21
6
 31
0
  0
ARC
  5
AB1
330
A02
100
AcDbEntity
  8
Shape2DView004
100
AcDbCircle
 10
-17.8808
 20
6
 30
0
 40
0.5
100
AcDbArc
 50
0
 51
-180
  0
ARC
  5
AB2
330
A02
100
AcDbEntity
  8
Shape2DView004
100
AcDbCircle
 10
3.74426
 20
-18.4852
 30
0
 40
0.5
100
AcDbArc
 50
120
 51
-60
  0
LINE
  5
AB3
330
A02
100
AcDbEntity
  8
Shape2DView004
100
AcDbLine
 10
14.3866
 20
-12.9183
 30
0
 11
3.99426
 21
-18.9183
 31
0
  0
LINE
  5
AB4
330
A02
100
AcDbEntity
  8
Shape2DView004
100
AcDbLine
 10
3.49426
 20
-18.0522
 30
0
 11
13.8866
 21
-12.0522
 31
0
  0
ARC
  5
AB5
330
A02
100
AcDbEntity
  8
Shape2DView004
100
AcDbCircle
 10
14.1366
 20
-12.4852
 30
0
 40
0.5
100
AcDbArc
 50
-60
 51
120
  0
LINE
  5
AB6
330
A02
100
AcDbEntity
  8
Shape2DView004
100
AcDbLine
 10
11.3395
 20
-16.4095
 30
0
 11
15.1366
 21
-14.2173
 31
0
  0
LINE
  5
AB7
330
A02
100
AcDbEntity
  8
Shape2DView004
100
AcDbLine
 10
11.3395
 20
-16.4095
 30
0
 11
8.54131
 21
-18.0251
 31
0
  0
ARC
  5
AB8
330
A02
100
AcDbEntity
  8
Shape2DView004
100
AcDbCircle
 10
15.3866
 20
-14.6503
 30
0
 40
0.5
100
AcDbArc
 50
-60
 51
120
  0
LINE
  5
AB9
330
A02
100
AcDbEntity
  8
Shape2DView004
100
AcDbLine
 10
4.74426
 20
-20.2173
 30
0
 11
8.54131
 21
-18.0251
 31
0
  0
LINE
  5
ABA
330
A02
100
AcDbEntity
  8
Shape2DView004
100
AcDbLine
 10
15.6366
 20
-15.0833
 30
0
 11
13.1804
 21
-16.5014
 31
0
  0
ARC
  5
ABB
330
A02
100
AcDbEntity
  8
Shape2DView004
100
AcDbCircle
 10
4.99426
 20
-20.6503
 30
0
 40
0.5
100
AcDbArc
 50
120
 51
-60
  0
ARC
  5
ABC
330
A02
100
AcDbEntity
  8
Shape2DView004
100
AcDbCircle
 10
12.0404
 20
-20.8546
 30
0
 40
4.5
100
AcDbArc
 50
30
 51
75.3254
  0
LINE
  5
ABD
330
A02
100
AcDbEntity
  8
Shape2DView004
100
AcDbLine
 10
7.70043
 20
-19.6653
 30
0
 11
5.24426
 21
-21.0833
 31
0
  0
LINE
  5
ABE
330
A02
100
AcDbEntity
  8
Shape2DView004
100
AcDbLine
 10
15.9375
 20
-18.6046
 30
0
 11
16.1875
 21
-19.0376
 31
0
  0
ARC
  5
ABF
330
A02
100
AcDbEntity
  8
Shape2DView004
100
AcDbCircle
 10
12.0404
 20
-20.8546
 30
0
 40
4.5
100
AcDbArc
 50
164.675
 51
-150
  0
ARC
  5
AC0
330
A02
100
AcDbEntity
  8
Shape2DView004
100
AcDbCircle
 10
12.2904
 20
-21.2876
 30
0
 40
4.5
100
AcDbArc
 50
-150
 51
30
  0
LINE
  5
AC1
330
A02
100
AcDbEntity
  8
Shape2DView004
100
AcDbLine
 10
8.3933
 20
-23.5376
 30
0
 11
8.1433
 21
-23.1046
 31
0
  0
SPLINE
  5
AC2
330
A02
100
AcDbEntity
  8
Shape2DView004
100
AcDbSpline
210
0
220
0
230
1
 70
8
 71
1
 72
4
 73
2
 74
0
 40
0
 40
0
 40
212.9
 40
212.9
 10
-9.8101
 20
-14.0356
 30
0
 10
-9.8101
 20
14.1293
 30
0
  0
SPLINE
  5
AC3
330
A02
100
AcDbEntity
  8
Shape2DView004
100
AcDbSpline
210
0
220
0
230
1
 70
8
 71
3
 72
8
 73
4
 74
0
 40
0
 40
0
 40
0
 40
0
 40
1
 40
1
 40
1
 40
1
 10
-9.8101
 20
14.1293
 30
0
 10
-9.8101
 20
15.2802
 30
0
 10
-9.01635
 20
15.7168
 30
0
 10
-8.05062
 20
15.095
 30
0
  0
SPLINE
  5
AC4
330
A02
100
AcDbEntity
  8
Shape2DView004
100
AcDbSpline
210
0
220
0
230
1
 70
8
 71
1
 72
4
 73
2
 74
0
 40
0
 40
0
 40
194.757
 40
194.757
 10
-8.05062
 20
15.095
 30
0
 10
13.632
 20
1.17792
 30
0
  0
SPLINE
  5
AC5
330
A02
100
AcDbEntity
  8
Shape2DView004
100
AcDbSpline
210
0
220
0
230
1
 70
8
 71
3
 72
8
 73
4
 74
0
 40
0
 40
0
 40
0
 40
0
 40
1
 40
1
 40
1
 40
1
 10
13.632
 20
1.17792
 30
0
 10
14.5977
 20
0.556146
 30
0
 10
14.5977
 20
-0.4625
 30
0
 10
13.632
 20
-1.08427
 30
0
  0
SPLINE
  5
AC6
330
A02
100
AcDbEntity
  8
Shape2DView004
100
AcDbSpline
210
0
220
0
230
1
 70
8
 71
1
 72
4
 73
2
 74
0
 40
0
 40
0
 40
194.757
 40
194.757
 10
13.632
 20
-1.08427
 30
0
 10
-8.05063
 20
-15.0014
 30
0
  0
SPLINE
  5
AC7
330
A02
100
AcDbEntity
  8
Shape2DView004
100
AcDbSpline
210
0
220
0
230
1
 70
8
 71
3
 72
8
 73
4
 74
0
 40
0
 40
0
 40
0
 40
0
 40
1
 40
1
 40
1
 40
1
 10
-8.05063
 20
-15.0014
 30
0
 10
-9.01635
 20
-15.6231
 30
0
 10
-9.8101
 20
-15.1866
 30
0
 10
-9.8101
 20
-14.0356
 30
0
  0
SPLINE
  5
AC8
330
A02
100
AcDbEntity
  8
Shape2DView004
100
AcDbSpline
210
0
220
0
230
1
 70
8
 71
2
 72
6
 73
3
 74
0
 40
0
 40
0
 40
0
 40
1
 40
1
 40
1
 10
-3.31458
 20
3.06969
 30
0
 10
-3.31458
 20
3.01346
 30
0
 10
-3.2749
 20
3.01677
 30
0
  0
SPLINE
  5
AC9
330
A02
100
AcDbEntity
  8
Shape2DView004
100
AcDbSpline
210
0
220
0
230
1
 70
8
 71
3
 72
8
 73
4
 74
0
 40
0
 40
0
 40
0
 40
0
 40
1
 40
1
 40
1
 40
1
 10
-3.5924
 20
3.20198
 30
0
 10
-3.47333
 20
3.20198
 30
0
 10
-3.3675
 20
3.1226
 30
0
 10
-3.31458
 20
3.06969
 30
0
  0
SPLINE
  5
ACA
330
A02
100
AcDbEntity
  8
Shape2DView004
100
AcDbSpline
210
0
220
0
230
1
 70
8
 71
3
 72
8
 73
4
 74
0
 40
0
 40
0
 40
0
 40
0
 40
1
 40
1
 40
1
 40
1
 10
-3.79083
 20
3.14906
 30
0
 10
-3.72469
 20
3.14906
 30
0
 10
-3.64531
 20
3.17552
 30
0
 10
-3.5924
 20
3.20198
 30
0
  0
SPLINE
  5
ACB
330
A02
100
AcDbEntity
  8
Shape2DView004
100
AcDbSpline
210
0
220
0
230
1
 70
8
 71
3
 72
8
 73
4
 74
0
 40
0
 40
0
 40
0
 40
0
 40
1
 40
1
 40
1
 40
1
 10
-7.1775
 20
3.03
 30
0
 10
-6.34406
 20
3.06969
 30
0
 10
-4.62427
 20
3.10938
 30
0
 10
-3.79083
 20
3.14906
 30
0
  0
SPLINE
  5
ACC
330
A02
100
AcDbEntity
  8
Shape2DView004
100
AcDbSpline
210
0
220
0
230
1
 70
8
 71
3
 72
8
 73
4
 74
0
 40
0
 40
0
 40
0
 40
0
 40
1
 40
1
 40
1
 40
1
 10
-7.91833
 20
3.49302
 30
0
 10
-7.85219
 20
3.16229
 30
0
 10
-7.4024
 20
3.01677
 30
0
 10
-7.1775
 20
3.03
 30
0
  0
SPLINE
  5
ACD
330
A02
100
AcDbEntity
  8
Shape2DView004
100
AcDbSpline
210
0
220
0
230
1
 70
8
 71
2
 72
6
 73
3
 74
0
 40
0
 40
0
 40
0
 40
1
 40
1
 40
1
 10
-7.93156
 20
3.62531
 30
0
 10
-7.93487
 20
3.54924
 30
0
 10
-7.91833
 20
3.49302
 30
0
  0
SPLINE
  5
ACE
330
A02
100
AcDbEntity
  8
Shape2DView004
100
AcDbSpline
210
0
220
0
230
1
 70
8
 71
2
 72
6
 73
3
 74
0
 40
0
 40
0
 40
0
 40
1
 40
1
 40
1
 10
-7.91833
 20
3.79729
 30
0
 10
-7.93487
 20
3.72122
 30
0
 10
-7.93156
 20
3.62531
 30
0
  0
SPLINE
  5
ACF
330
A02
100
AcDbEntity
  8
Shape2DView004
100
AcDbSpline
210
0
220
0
230
1
 70
8
 71
3
 72
8
 73
4
 74
0
 40
0
 40
0
 40
0
 40
0
 40
1
 40
1
 40
1
 40
1
 10
-7.16427
 20
4.23385
 30
0
 10
-7.37594
 20
4.26031
 30
0
 10
-7.85219
 20
4.12802
 30
0
 10
-7.91833
 20
3.79729
 30
0
  0
SPLINE
  5
AD0
330
A02
100
AcDbEntity
  8
Shape2DView004
100
AcDbSpline
210
0
220
0
230
1
 70
8
 71
3
 72
8
 73
4
 74
0
 40
0
 40
0
 40
0
 40
0
 40
1
 40
1
 40
1
 40
1
 10
-3.79083
 20
4.02219
 30
0
 10
-4.62427
 20
4.08833
 30
0
 10
-6.34406
 20
4.16771
 30
0
 10
-7.16427
 20
4.23385
 30
0
  0
SPLINE
  5
AD1
330
A02
100
AcDbEntity
  8
Shape2DView004
100
AcDbSpline
210
0
220
0
230
1
 70
8
 71
3
 72
8
 73
4
 74
0
 40
0
 40
0
 40
0
 40
0
 40
1
 40
1
 40
1
 40
1
 10
-3.5924
 20
3.95604
 30
0
 10
-3.64531
 20
3.9825
 30
0
 10
-3.72469
 20
4.00896
 30
0
 10
-3.79083
 20
4.02219
 30
0
  0
SPLINE
  5
AD2
330
A02
100
AcDbEntity
  8
Shape2DView004
100
AcDbSpline
210
0
220
0
230
1
 70
8
 71
3
 72
8
 73
4
 74
0
 40
0
 40
0
 40
0
 40
0
 40
1
 40
1
 40
1
 40
1
 10
-3.30135
 20
4.0751
 30
0
 10
-3.3675
 20
4.02219
 30
0
 10
-3.47333
 20
3.95604
 30
0
 10
-3.5924
 20
3.95604
 30
0
  0
SPLINE
  5
AD3
330
A02
100
AcDbEntity
  8
Shape2DView004
100
AcDbSpline
210
0
220
0
230
1
 70
8
 71
3
 72
8
 73
4
 74
0
 40
0
 40
0
 40
0
 40
0
 40
1
 40
1
 40
1
 40
1
 10
-3.23521
 20
4.12802
 30
0
 10
-3.26167
 20
4.12802
 30
0
 10
-3.2749
 20
4.11479
 30
0
 10
-3.30135
 20
4.0751
 30
0
  0
SPLINE
  5
AD4
330
A02
100
AcDbEntity
  8
Shape2DView004
100
AcDbSpline
210
0
220
0
230
1
 70
8
 71
3
 72
8
 73
4
 74
0
 40
0
 40
0
 40
0
 40
0
 40
1
 40
1
 40
1
 40
1
 10
-3.22198
 20
4.12802
 30
0
 10
-3.22198
 20
4.12802
 30
0
 10
-3.23521
 20
4.12802
 30
0
 10
-3.23521
 20
4.12802
 30
0
  0
SPLINE
  5
AD5
330
A02
100
AcDbEntity
  8
Shape2DView004
100
AcDbSpline
210
0
220
0
230
1
 70
8
 71
3
 72
8
 73
4
 74
0
 40
0
 40
0
 40
0
 40
0
 40
1
 40
1
 40
1
 40
1
 10
-3.11615
 20
3.79729
 30
0
 10
-3.12938
 20
3.99573
 30
0
 10
-3.16906
 20
4.12802
 30
0
 10
-3.22198
 20
4.12802
 30
0
  0
SPLINE
  5
AD6
330
A02
100
AcDbEntity
  8
Shape2DView004
100
AcDbSpline
210
0
220
0
230
1
 70
8
 71
3
 72
8
 73
4
 74
0
 40
0
 40
0
 40
0
 40
0
 40
1
 40
1
 40
1
 40
1
 10
-3.11615
 20
3.7576
 30
0
 10
-3.11615
 20
3.78406
 30
0
 10
-3.11615
 20
3.7576
 30
0
 10
-3.11615
 20
3.79729
 30
0
  0
SPLINE
  5
AD7
330
A02
100
AcDbEntity
  8
Shape2DView004
100
AcDbSpline
210
0
220
0
230
1
 70
8
 71
1
 72
4
 73
2
 74
0
 40
0
 40
0
 40
46.9
 40
46.9
 10
3.08833
 20
3.7576
 30
0
 10
-3.11615
 20
3.7576
 30
0
  0
SPLINE
  5
AD8
330
A02
100
AcDbEntity
  8
Shape2DView004
100
AcDbSpline
210
0
220
0
230
1
 70
8
 71
3
 72
8
 73
4
 74
0
 40
0
 40
0
 40
0
 40
0
 40
1
 40
1
 40
1
 40
1
 10
3.27354
 20
3.86344
 30
0
 10
3.27354
 20
3.86344
 30
0
 10
3.08833
 20
3.7576
 30
0
 10
3.08833
 20
3.7576
 30
0
  0
SPLINE
  5
AD9
330
A02
100
AcDbEntity
  8
Shape2DView004
100
AcDbSpline
210
0
220
0
230
1
 70
8
 71
1
 72
4
 73
2
 74
0
 40
0
 40
0
 40
4.85077
 40
4.85077
 10
3.90854
 20
3.77083
 30
0
 10
3.27354
 20
3.86344
 30
0
  0
SPLINE
  5
ADA
330
A02
100
AcDbEntity
  8
Shape2DView004
100
AcDbSpline
210
0
220
0
230
1
 70
8
 71
1
 72
4
 73
2
 74
0
 40
0
 40
0
 40
1.8
 40
1.8
 10
3.90854
 20
3.53271
 30
0
 10
3.90854
 20
3.77083
 30
0
  0
SPLINE
  5
ADB
330
A02
100
AcDbEntity
  8
Shape2DView004
100
AcDbSpline
210
0
220
0
230
1
 70
8
 71
1
 72
4
 73
2
 74
0
 40
0
 40
0
 40
4.85077
 40
4.85077
 10
3.27354
 20
3.4401
 30
0
 10
3.90854
 20
3.53271
 30
0
  0
SPLINE
  5
ADC
330
A02
100
AcDbEntity
  8
Shape2DView004
100
AcDbSpline
210
0
220
0
230
1
 70
8
 71
3
 72
8
 73
4
 74
0
 40
0
 40
0
 40
0
 40
0
 40
1
 40
1
 40
1
 40
1
 10
3.0751
 20
3.51948
 30
0
 10
3.0751
 20
3.51948
 30
0
 10
3.27354
 20
3.4401
 30
0
 10
3.27354
 20
3.4401
 30
0
  0
SPLINE
  5
ADD
330
A02
100
AcDbEntity
  8
Shape2DView004
100
AcDbSpline
210
0
220
0
230
1
 70
8
 71
1
 72
4
 73
2
 74
0
 40
0
 40
0
 40
46.9
 40
46.9
 10
-3.12938
 20
3.51948
 30
0
 10
3.0751
 20
3.51948
 30
0
  0
SPLINE
  5
ADE
330
A02
100
AcDbEntity
  8
Shape2DView004
100
AcDbSpline
210
0
220
0
230
1
 70
8
 71
3
 72
8
 73
4
 74
0
 40
0
 40
0
 40
0
 40
0
 40
1
 40
1
 40
1
 40
1
 10
-3.1426
 20
3.3475
 30
0
 10
-3.1426
 20
3.37396
 30
0
 10
-3.12938
 20
3.47979
 30
0
 10
-3.12938
 20
3.51948
 30
0
  0
SPLINE
  5
ADF
330
A02
100
AcDbEntity
  8
Shape2DView004
100
AcDbSpline
210
0
220
0
230
1
 70
8
 71
3
 72
8
 73
4
 74
0
 40
0
 40
0
 40
0
 40
0
 40
1
 40
1
 40
1
 40
1
 10
-3.2749
 20
3.01677
 30
0
 10
-3.20875
 20
3.01677
 30
0
 10
-3.16906
 20
3.14906
 30
0
 10
-3.1426
 20
3.3475
 30
0
  0
SPLINE
  5
AE0
330
A02
100
AcDbEntity
  8
Shape2DView004
100
AcDbSpline
210
0
220
0
230
1
 70
8
 71
2
 72
6
 73
3
 74
0
 40
0
 40
0
 40
0
 40
1
 40
1
 40
1
 10
-2.77219
 20
0.1725
 30
0
 10
-2.59359
 20
0.36763
 30
0
 10
-2.21656
 20
0.781042
 30
0
  0
SPLINE
  5
AE1
330
A02
100
AcDbEntity
  8
Shape2DView004
100
AcDbSpline
210
0
220
0
230
1
 70
8
 71
3
 72
8
 73
4
 74
0
 40
0
 40
0
 40
0
 40
0
 40
1
 40
1
 40
1
 40
1
 10
-2.8251
 20
0.1725
 30
0
 10
-2.81187
 20
0.1725
 30
0
 10
-2.78542
 20
0.1725
 30
0
 10
-2.77219
 20
0.1725
 30
0
  0
SPLINE
  5
AE2
330
A02
100
AcDbEntity
  8
Shape2DView004
100
AcDbSpline
210
0
220
0
230
1
 70
8
 71
1
 72
4
 73
2
 74
0
 40
0
 40
0
 40
0.781025
 40
0.781025
 10
-2.89125
 20
0.251875
 30
0
 10
-2.8251
 20
0.1725
 30
0
  0
SPLINE
  5
AE3
330
A02
100
AcDbEntity
  8
Shape2DView004
100
AcDbSpline
210
0
220
0
230
1
 70
8
 71
1
 72
4
 73
2
 74
0
 40
0
 40
0
 40
0.5
 40
0.5
 10
-2.93094
 20
0.304792
 30
0
 10
-2.89125
 20
0.251875
 30
0
  0
SPLINE
  5
AE4
330
A02
100
AcDbEntity
  8
Shape2DView004
100
AcDbSpline
210
0
220
0
230
1
 70
8
 71
1
 72
4
 73
2
 74
0
 40
0
 40
0
 40
1.48661
 40
1.48661
 10
-3.06323
 20
0.450313
 30
0
 10
-2.93094
 20
0.304792
 30
0
  0
SPLINE
  5
AE5
330
A02
100
AcDbEntity
  8
Shape2DView004
100
AcDbSpline
210
0
220
0
230
1
 70
8
 71
1
 72
4
 73
2
 74
0
 40
0
 40
0
 40
0.282843
 40
0.282843
 10
-3.08969
 20
0.476771
 30
0
 10
-3.06323
 20
0.450313
 30
0
  0
SPLINE
  5
AE6
330
A02
100
AcDbEntity
  8
Shape2DView004
100
AcDbSpline
210
0
220
0
230
1
 70
8
 71
1
 72
4
 73
2
 74
0
 40
0
 40
0
 40
0.282843
 40
0.282843
 10
-3.11615
 20
0.503229
 30
0
 10
-3.08969
 20
0.476771
 30
0
  0
SPLINE
  5
AE7
330
A02
100
AcDbEntity
  8
Shape2DView004
100
AcDbSpline
210
0
220
0
230
1
 70
8
 71
1
 72
4
 73
2
 74
0
 40
0
 40
0
 40
0.282843
 40
0.282843
 10
-3.1426
 20
0.529688
 30
0
 10
-3.11615
 20
0.503229
 30
0
  0
SPLINE
  5
AE8
330
A02
100
AcDbEntity
  8
Shape2DView004
100
AcDbSpline
210
0
220
0
230
1
 70
8
 71
1
 72
4
 73
2
 74
0
 40
0
 40
0
 40
0.360555
 40
0.360555
 10
-3.18229
 20
0.556146
 30
0
 10
-3.1426
 20
0.529688
 30
0
  0
SPLINE
  5
AE9
330
A02
100
AcDbEntity
  8
Shape2DView004
100
AcDbSpline
210
0
220
0
230
1
 70
8
 71
1
 72
4
 73
2
 74
0
 40
0
 40
0
 40
0.5
 40
0.5
 10
-3.23521
 20
0.595833
 30
0
 10
-3.18229
 20
0.556146
 30
0
  0
SPLINE
  5
AEA
330
A02
100
AcDbEntity
  8
Shape2DView004
100
AcDbSpline
210
0
220
0
230
1
 70
8
 71
1
 72
4
 73
2
 74
0
 40
0
 40
0
 40
0.5
 40
0.5
 10
-3.28812
 20
0.635521
 30
0
 10
-3.23521
 20
0.595833
 30
0
  0
SPLINE
  5
AEB
330
A02
100
AcDbEntity
  8
Shape2DView004
100
AcDbSpline
210
0
220
0
230
1
 70
8
 71
1
 72
4
 73
2
 74
0
 40
0
 40
0
 40
0.583095
 40
0.583095
 10
-3.35427
 20
0.675208
 30
0
 10
-3.28812
 20
0.635521
 30
0
  0
SPLINE
  5
AEC
330
A02
100
AcDbEntity
  8
Shape2DView004
100
AcDbSpline
210
0
220
0
230
1
 70
8
 71
1
 72
4
 73
2
 74
0
 40
0
 40
0
 40
0.583095
 40
0.583095
 10
-3.42042
 20
0.714896
 30
0
 10
-3.35427
 20
0.675208
 30
0
  0
SPLINE
  5
AED
330
A02
100
AcDbEntity
  8
Shape2DView004
100
AcDbSpline
210
0
220
0
230
1
 70
8
 71
1
 72
4
 73
2
 74
0
 40
0
 40
0
 40
0.948683
 40
0.948683
 10
-3.4601
 20
0.833958
 30
0
 10
-3.42042
 20
0.714896
 30
0
  0
SPLINE
  5
AEE
330
A02
100
AcDbEntity
  8
Shape2DView004
100
AcDbSpline
210
0
220
0
230
1
 70
8
 71
1
 72
4
 73
2
 74
0
 40
0
 40
0
 40
0.921954
 40
0.921954
 10
-3.38073
 20
0.926563
 30
0
 10
-3.4601
 20
0.833958
 30
0
  0
SPLINE
  5
AEF
330
A02
100
AcDbEntity
  8
Shape2DView004
100
AcDbSpline
210
0
220
0
230
1
 70
8
 71
1
 72
4
 73
2
 74
0
 40
0
 40
0
 40
0.921954
 40
0.921954
 10
-3.30135
 20
1.01917
 30
0
 10
-3.38073
 20
0.926563
 30
0
  0
SPLINE
  5
AF0
330
A02
100
AcDbEntity
  8
Shape2DView004
100
AcDbSpline
210
0
220
0
230
1
 70
8
 71
1
 72
4
 73
2
 74
0
 40
0
 40
0
 40
0.424264
 40
0.424264
 10
-3.26167
 20
1.05885
 30
0
 10
-3.30135
 20
1.01917
 30
0
  0
SPLINE
  5
AF1
330
A02
100
AcDbEntity
  8
Shape2DView004
100
AcDbSpline
210
0
220
0
230
1
 70
8
 71
1
 72
4
 73
2
 74
0
 40
0
 40
0
 40
0.424264
 40
0.424264
 10
-3.22198
 20
1.09854
 30
0
 10
-3.26167
 20
1.05885
 30
0
  0
SPLINE
  5
AF2
330
A02
100
AcDbEntity
  8
Shape2DView004
100
AcDbSpline
210
0
220
0
230
1
 70
8
 71
1
 72
4
 73
2
 74
0
 40
0
 40
0
 40
0.848528
 40
0.848528
 10
-3.1426
 20
1.17792
 30
0
 10
-3.22198
 20
1.09854
 30
0
  0
SPLINE
  5
AF3
330
A02
100
AcDbEntity
  8
Shape2DView004
100
AcDbSpline
210
0
220
0
230
1
 70
8
 71
1
 72
4
 73
2
 74
0
 40
0
 40
0
 40
0.848528
 40
0.848528
 10
-3.06323
 20
1.25729
 30
0
 10
-3.1426
 20
1.17792
 30
0
  0
SPLINE
  5
AF4
330
A02
100
AcDbEntity
  8
Shape2DView004
100
AcDbSpline
210
0
220
0
230
1
 70
8
 71
1
 72
4
 73
2
 74
0
 40
0
 40
0
 40
0.848528
 40
0.848528
 10
-2.98385
 20
1.33667
 30
0
 10
-3.06323
 20
1.25729
 30
0
  0
SPLINE
  5
AF5
330
A02
100
AcDbEntity
  8
Shape2DView004
100
AcDbSpline
210
0
220
0
230
1
 70
8
 71
1
 72
4
 73
2
 74
0
 40
0
 40
0
 40
0.848528
 40
0.848528
 10
-2.90448
 20
1.41604
 30
0
 10
-2.98385
 20
1.33667
 30
0
  0
SPLINE
  5
AF6
330
A02
100
AcDbEntity
  8
Shape2DView004
100
AcDbSpline
210
0
220
0
230
1
 70
8
 71
1
 72
4
 73
2
 74
0
 40
0
 40
0
 40
0.848528
 40
0.848528
 10
-2.8251
 20
1.49542
 30
0
 10
-2.90448
 20
1.41604
 30
0
  0
SPLINE
  5
AF7
330
A02
100
AcDbEntity
  8
Shape2DView004
100
AcDbSpline
210
0
220
0
230
1
 70
8
 71
1
 72
4
 73
2
 74
0
 40
0
 40
0
 40
0.141421
 40
0.141421
 10
-2.81187
 20
1.50865
 30
0
 10
-2.8251
 20
1.49542
 30
0
  0
SPLINE
  5
AF8
330
A02
100
AcDbEntity
  8
Shape2DView004
100
AcDbSpline
210
0
220
0
230
1
 70
8
 71
1
 72
4
 73
2
 74
0
 40
0
 40
0
 40
0.141421
 40
0.141421
 10
-2.79865
 20
1.52188
 30
0
 10
-2.81187
 20
1.50865
 30
0
  0
SPLINE
  5
AF9
330
A02
100
AcDbEntity
  8
Shape2DView004
100
AcDbSpline
210
0
220
0
230
1
 70
8
 71
1
 72
4
 73
2
 74
0
 40
0
 40
0
 40
0.223607
 40
0.223607
 10
-2.77219
 20
1.5351
 30
0
 10
-2.79865
 20
1.52188
 30
0
  0
SPLINE
  5
AFA
330
A02
100
AcDbEntity
  8
Shape2DView004
100
AcDbSpline
210
0
220
0
230
1
 70
8
 71
1
 72
4
 73
2
 74
0
 40
0
 40
0
 40
0.223607
 40
0.223607
 10
-2.74573
 20
1.54833
 30
0
 10
-2.77219
 20
1.5351
 30
0
  0
SPLINE
  5
AFB
330
A02
100
AcDbEntity
  8
Shape2DView004
100
AcDbSpline
210
0
220
0
230
1
 70
8
 71
1
 72
4
 73
2
 74
0
 40
0
 40
0
 40
0.223607
 40
0.223607
 10
-2.71927
 20
1.56156
 30
0
 10
-2.74573
 20
1.54833
 30
0
  0
SPLINE
  5
AFC
330
A02
100
AcDbEntity
  8
Shape2DView004
100
AcDbSpline
210
0
220
0
230
1
 70
8
 71
1
 72
4
 73
2
 74
0
 40
0
 40
0
 40
0.2
 40
0.2
 10
-2.69281
 20
1.56156
 30
0
 10
-2.71927
 20
1.56156
 30
0
  0
SPLINE
  5
AFD
330
A02
100
AcDbEntity
  8
Shape2DView004
100
AcDbSpline
210
0
220
0
230
1
 70
8
 71
1
 72
4
 73
2
 74
0
 40
0
 40
0
 40
0.1
 40
0.1
 10
-2.67958
 20
1.56156
 30
0
 10
-2.69281
 20
1.56156
 30
0
  0
SPLINE
  5
AFE
330
A02
100
AcDbEntity
  8
Shape2DView004
100
AcDbSpline
210
0
220
0
230
1
 70
8
 71
1
 72
4
 73
2
 74
0
 40
0
 40
0
 40
0.1
 40
0.1
 10
-2.66635
 20
1.56156
 30
0
 10
-2.67958
 20
1.56156
 30
0
  0
SPLINE
  5
AFF
330
A02
100
AcDbEntity
  8
Shape2DView004
100
AcDbSpline
210
0
220
0
230
1
 70
8
 71
1
 72
4
 73
2
 74
0
 40
0
 40
0
 40
0.1
 40
0.1
 10
-2.65312
 20
1.56156
 30
0
 10
-2.66635
 20
1.56156
 30
0
  0
SPLINE
  5
B00
330
A02
100
AcDbEntity
  8
Shape2DView004
100
AcDbSpline
210
0
220
0
230
1
 70
8
 71
1
 72
4
 73
2
 74
0
 40
0
 40
0
 40
0.1
 40
0.1
 10
-2.6399
 20
1.56156
 30
0
 10
-2.65312
 20
1.56156
 30
0
  0
SPLINE
  5
B01
330
A02
100
AcDbEntity
  8
Shape2DView004
100
AcDbSpline
210
0
220
0
230
1
 70
8
 71
1
 72
4
 73
2
 74
0
 40
0
 40
0
 40
0.1
 40
0.1
 10
-2.62667
 20
1.56156
 30
0
 10
-2.6399
 20
1.56156
 30
0
  0
SPLINE
  5
B02
330
A02
100
AcDbEntity
  8
Shape2DView004
100
AcDbSpline
210
0
220
0
230
1
 70
8
 71
1
 72
4
 73
2
 74
0
 40
0
 40
0
 40
0.141421
 40
0.141421
 10
-2.61344
 20
1.54833
 30
0
 10
-2.62667
 20
1.56156
 30
0
  0
SPLINE
  5
B03
330
A02
100
AcDbEntity
  8
Shape2DView004
100
AcDbSpline
210
0
220
0
230
1
 70
8
 71
1
 72
4
 73
2
 74
0
 40
0
 40
0
 40
0.1
 40
0.1
 10
-2.60021
 20
1.54833
 30
0
 10
-2.61344
 20
1.54833
 30
0
  0
SPLINE
  5
B04
330
A02
100
AcDbEntity
  8
Shape2DView004
100
AcDbSpline
210
0
220
0
230
1
 70
8
 71
1
 72
4
 73
2
 74
0
 40
0
 40
0
 40
0.1
 40
0.1
 10
-2.58698
 20
1.54833
 30
0
 10
-2.60021
 20
1.54833
 30
0
  0
SPLINE
  5
B05
330
A02
100
AcDbEntity
  8
Shape2DView004
100
AcDbSpline
210
0
220
0
230
1
 70
8
 71
1
 72
4
 73
2
 74
0
 40
0
 40
0
 40
0.1
 40
0.1
 10
-2.58698
 20
1.5351
 30
0
 10
-2.58698
 20
1.54833
 30
0
  0
SPLINE
  5
B06
330
A02
100
AcDbEntity
  8
Shape2DView004
100
AcDbSpline
210
0
220
0
230
1
 70
8
 71
1
 72
4
 73
2
 74
0
 40
0
 40
0
 40
0.1
 40
0.1
 10
-2.58698
 20
1.52188
 30
0
 10
-2.58698
 20
1.5351
 30
0
  0
SPLINE
  5
B07
330
A02
100
AcDbEntity
  8
Shape2DView004
100
AcDbSpline
210
0
220
0
230
1
 70
8
 71
1
 72
4
 73
2
 74
0
 40
0
 40
0
 40
0.1
 40
0.1
 10
-2.58698
 20
1.50865
 30
0
 10
-2.58698
 20
1.52188
 30
0
  0
SPLINE
  5
B08
330
A02
100
AcDbEntity
  8
Shape2DView004
100
AcDbSpline
210
0
220
0
230
1
 70
8
 71
1
 72
4
 73
2
 74
0
 40
0
 40
0
 40
0.1
 40
0.1
 10
-2.58698
 20
1.49542
 30
0
 10
-2.58698
 20
1.50865
 30
0
  0
SPLINE
  5
B09
330
A02
100
AcDbEntity
  8
Shape2DView004
100
AcDbSpline
210
0
220
0
230
1
 70
8
 71
1
 72
4
 73
2
 74
0
 40
0
 40
0
 40
0.141421
 40
0.141421
 10
-2.57375
 20
1.48219
 30
0
 10
-2.58698
 20
1.49542
 30
0
  0
SPLINE
  5
B0A
330
A02
100
AcDbEntity
  8
Shape2DView004
100
AcDbSpline
210
0
220
0
230
1
 70
8
 71
1
 72
4
 73
2
 74
0
 40
0
 40
0
 40
0.223607
 40
0.223607
 10
-2.56052
 20
1.45573
 30
0
 10
-2.57375
 20
1.48219
 30
0
  0
SPLINE
  5
B0B
330
A02
100
AcDbEntity
  8
Shape2DView004
100
AcDbSpline
210
0
220
0
230
1
 70
8
 71
1
 72
4
 73
2
 74
0
 40
0
 40
0
 40
0.2
 40
0.2
 10
-2.56052
 20
1.42927
 30
0
 10
-2.56052
 20
1.45573
 30
0
  0
SPLINE
  5
B0C
330
A02
100
AcDbEntity
  8
Shape2DView004
100
AcDbSpline
210
0
220
0
230
1
 70
8
 71
1
 72
4
 73
2
 74
0
 40
0
 40
0
 40
2.30868
 40
2.30868
 10
-2.46792
 20
1.13823
 30
0
 10
-2.56052
 20
1.42927
 30
0
  0
SPLINE
  5
B0D
330
A02
100
AcDbEntity
  8
Shape2DView004
100
AcDbSpline
210
0
220
0
230
1
 70
8
 71
1
 72
4
 73
2
 74
0
 40
0
 40
0
 40
0.1
 40
0.1
 10
-2.46792
 20
1.125
 30
0
 10
-2.46792
 20
1.13823
 30
0
  0
SPLINE
  5
B0E
330
A02
100
AcDbEntity
  8
Shape2DView004
100
AcDbSpline
210
0
220
0
230
1
 70
8
 71
1
 72
4
 73
2
 74
0
 40
0
 40
0
 40
0.1
 40
0.1
 10
-2.46792
 20
1.11177
 30
0
 10
-2.46792
 20
1.125
 30
0
  0
SPLINE
  5
B0F
330
A02
100
AcDbEntity
  8
Shape2DView004
100
AcDbSpline
210
0
220
0
230
1
 70
8
 71
1
 72
4
 73
2
 74
0
 40
0
 40
0
 40
0.141421
 40
0.141421
 10
-2.45469
 20
1.09854
 30
0
 10
-2.46792
 20
1.11177
 30
0
  0
SPLINE
  5
B10
330
A02
100
AcDbEntity
  8
Shape2DView004
100
AcDbSpline
210
0
220
0
230
1
 70
8
 71
1
 72
4
 73
2
 74
0
 40
0
 40
0
 40
0.223607
 40
0.223607
 10
-2.44146
 20
1.07208
 30
0
 10
-2.45469
 20
1.09854
 30
0
  0
SPLINE
  5
B11
330
A02
100
AcDbEntity
  8
Shape2DView004
100
AcDbSpline
210
0
220
0
230
1
 70
8
 71
1
 72
4
 73
2
 74
0
 40
0
 40
0
 40
0.223607
 40
0.223607
 10
-2.42823
 20
1.04563
 30
0
 10
-2.44146
 20
1.07208
 30
0
  0
SPLINE
  5
B12
330
A02
100
AcDbEntity
  8
Shape2DView004
100
AcDbSpline
210
0
220
0
230
1
 70
8
 71
1
 72
4
 73
2
 74
0
 40
0
 40
0
 40
0.141421
 40
0.141421
 10
-2.415
 20
1.0324
 30
0
 10
-2.42823
 20
1.04563
 30
0
  0
SPLINE
  5
B13
330
A02
100
AcDbEntity
  8
Shape2DView004
100
AcDbSpline
210
0
220
0
230
1
 70
8
 71
1
 72
4
 73
2
 74
0
 40
0
 40
0
 40
0.223607
 40
0.223607
 10
-2.40177
 20
1.00594
 30
0
 10
-2.415
 20
1.0324
 30
0
  0
SPLINE
  5
B14
330
A02
100
AcDbEntity
  8
Shape2DView004
100
AcDbSpline
210
0
220
0
230
1
 70
8
 71
1
 72
4
 73
2
 74
0
 40
0
 40
0
 40
0.141421
 40
0.141421
 10
-2.38854
 20
0.992708
 30
0
 10
-2.40177
 20
1.00594
 30
0
  0
SPLINE
  5
B15
330
A02
100
AcDbEntity
  8
Shape2DView004
100
AcDbSpline
210
0
220
0
230
1
 70
8
 71
1
 72
4
 73
2
 74
0
 40
0
 40
0
 40
0.5
 40
0.5
 10
-2.33562
 20
0.953021
 30
0
 10
-2.38854
 20
0.992708
 30
0
  0
SPLINE
  5
B16
330
A02
100
AcDbEntity
  8
Shape2DView004
100
AcDbSpline
210
0
220
0
230
1
 70
8
 71
1
 72
4
 73
2
 74
0
 40
0
 40
0
 40
0.223607
 40
0.223607
 10
-2.3224
 20
0.926563
 30
0
 10
-2.33562
 20
0.953021
 30
0
  0
SPLINE
  5
B17
330
A02
100
AcDbEntity
  8
Shape2DView004
100
AcDbSpline
210
0
220
0
230
1
 70
8
 71
1
 72
4
 73
2
 74
0
 40
0
 40
0
 40
0.223607
 40
0.223607
 10
-2.30917
 20
0.900104
 30
0
 10
-2.3224
 20
0.926563
 30
0
  0
SPLINE
  5
B18
330
A02
100
AcDbEntity
  8
Shape2DView004
100
AcDbSpline
210
0
220
0
230
1
 70
8
 71
1
 72
4
 73
2
 74
0
 40
0
 40
0
 40
0.141421
 40
0.141421
 10
-2.29594
 20
0.886875
 30
0
 10
-2.30917
 20
0.900104
 30
0
  0
SPLINE
  5
B19
330
A02
100
AcDbEntity
  8
Shape2DView004
100
AcDbSpline
210
0
220
0
230
1
 70
8
 71
1
 72
4
 73
2
 74
0
 40
0
 40
0
 40
0.141421
 40
0.141421
 10
-2.28271
 20
0.873646
 30
0
 10
-2.29594
 20
0.886875
 30
0
  0
SPLINE
  5
B1A
330
A02
100
AcDbEntity
  8
Shape2DView004
100
AcDbSpline
210
0
220
0
230
1
 70
8
 71
1
 72
4
 73
2
 74
0
 40
0
 40
0
 40
0.1
 40
0.1
 10
-2.28271
 20
0.860417
 30
0
 10
-2.28271
 20
0.873646
 30
0
  0
SPLINE
  5
B1B
330
A02
100
AcDbEntity
  8
Shape2DView004
100
AcDbSpline
210
0
220
0
230
1
 70
8
 71
1
 72
4
 73
2
 74
0
 40
0
 40
0
 40
0.141421
 40
0.141421
 10
-2.26948
 20
0.847188
 30
0
 10
-2.28271
 20
0.860417
 30
0
  0
SPLINE
  5
B1C
330
A02
100
AcDbEntity
  8
Shape2DView004
100
AcDbSpline
210
0
220
0
230
1
 70
8
 71
1
 72
4
 73
2
 74
0
 40
0
 40
0
 40
0.1
 40
0.1
 10
-2.26948
 20
0.833958
 30
0
 10
-2.26948
 20
0.847188
 30
0
  0
SPLINE
  5
B1D
330
A02
100
AcDbEntity
  8
Shape2DView004
100
AcDbSpline
210
0
220
0
230
1
 70
8
 71
1
 72
4
 73
2
 74
0
 40
0
 40
0
 40
0.141421
 40
0.141421
 10
-2.25625
 20
0.820729
 30
0
 10
-2.26948
 20
0.833958
 30
0
  0
SPLINE
  5
B1E
330
A02
100
AcDbEntity
  8
Shape2DView004
100
AcDbSpline
210
0
220
0
230
1
 70
8
 71
1
 72
4
 73
2
 74
0
 40
0
 40
0
 40
0.141421
 40
0.141421
 10
-2.24302
 20
0.8075
 30
0
 10
-2.25625
 20
0.820729
 30
0
  0
SPLINE
  5
B1F
330
A02
100
AcDbEntity
  8
Shape2DView004
100
AcDbSpline
210
0
220
0
230
1
 70
8
 71
1
 72
4
 73
2
 74
0
 40
0
 40
0
 40
0.282843
 40
0.282843
 10
-2.21656
 20
0.781042
 30
0
 10
-2.24302
 20
0.8075
 30
0
  0
SPLINE
  5
B20
330
A02
100
AcDbEntity
  8
Shape2DView004
100
AcDbSpline
210
0
220
0
230
1
 70
8
 71
3
 72
8
 73
4
 74
0
 40
0
 40
0
 40
0
 40
0
 40
1
 40
1
 40
1
 40
1
 10
-3.01031
 20
-1.78542
 30
0
 10
-3.02354
 20
-1.77219
 30
0
 10
-2.57375
 20
-1.90448
 30
0
 10
-2.20333
 20
-1.49437
 30
0
  0
SPLINE
  5
B21
330
A02
100
AcDbEntity
  8
Shape2DView004
100
AcDbSpline
210
0
220
0
230
1
 70
8
 71
1
 72
4
 73
2
 74
0
 40
0
 40
0
 40
1.20416
 40
1.20416
 10
-3.02354
 20
-1.62667
 30
0
 10
-3.01031
 20
-1.78542
 30
0
  0
SPLINE
  5
B22
330
A02
100
AcDbEntity
  8
Shape2DView004
100
AcDbSpline
210
0
220
0
230
1
 70
8
 71
1
 72
4
 73
2
 74
0
 40
0
 40
0
 40
4.60109
 40
4.60109
 10
-2.61344
 20
-1.17687
 30
0
 10
-3.02354
 20
-1.62667
 30
0
  0
SPLINE
  5
B23
330
A02
100
AcDbEntity
  8
Shape2DView004
100
AcDbSpline
210
0
220
0
230
1
 70
8
 71
3
 72
8
 73
4
 74
0
 40
0
 40
0
 40
0
 40
0
 40
1
 40
1
 40
1
 40
1
 10
-3.1426
 20
-0.819687
 30
0
 10
-3.10292
 20
-0.819687
 30
0
 10
-2.7325
 20
-0.832917
 30
0
 10
-2.61344
 20
-1.17687
 30
0
  0
SPLINE
  5
B24
330
A02
100
AcDbEntity
  8
Shape2DView004
100
AcDbSpline
210
0
220
0
230
1
 70
8
 71
1
 72
4
 73
2
 74
0
 40
0
 40
0
 40
4.59674
 40
4.59674
 10
-3.56594
 20
-1.25625
 30
0
 10
-3.1426
 20
-0.819687
 30
0
  0
SPLINE
  5
B25
330
A02
100
AcDbEntity
  8
Shape2DView004
100
AcDbSpline
210
0
220
0
230
1
 70
8
 71
3
 72
8
 73
4
 74
0
 40
0
 40
0
 40
0
 40
0
 40
1
 40
1
 40
1
 40
1
 10
-3.64531
 20
-0.991667
 30
0
 10
-3.63208
 20
-1.15042
 30
0
 10
-3.56594
 20
-1.25625
 30
0
 10
-3.56594
 20
-1.25625
 30
0
  0
SPLINE
  5
B26
330
A02
100
AcDbEntity
  8
Shape2DView004
100
AcDbSpline
210
0
220
0
230
1
 70
8
 71
2
 72
6
 73
3
 74
0
 40
0
 40
0
 40
0
 40
1
 40
1
 40
1
 10
-3.67177
 20
-0.832917
 30
0
 10
-3.66846
 20
-0.912292
 30
0
 10
-3.64531
 20
-0.991667
 30
0
  0
SPLINE
  5
B27
330
A02
100
AcDbEntity
  8
Shape2DView004
100
AcDbSpline
210
0
220
0
230
1
 70
8
 71
3
 72
8
 73
4
 74
0
 40
0
 40
0
 40
0
 40
0
 40
1
 40
1
 40
1
 40
1
 10
-3.43365
 20
-0.343437
 30
0
 10
-3.61885
 20
-0.528646
 30
0
 10
-3.67177
 20
-0.700625
 30
0
 10
-3.67177
 20
-0.832917
 30
0
  0
SPLINE
  5
B28
330
A02
100
AcDbEntity
  8
Shape2DView004
100
AcDbSpline
210
0
220
0
230
1
 70
8
 71
3
 72
8
 73
4
 74
0
 40
0
 40
0
 40
0
 40
0
 40
1
 40
1
 40
1
 40
1
 10
-2.60021
 20
-0.0523958
 30
0
 10
-2.69281
 20
-0.065625
 30
0
 10
-3.18229
 20
-0.0920833
 30
0
 10
-3.43365
 20
-0.343437
 30
0
  0
SPLINE
  5
B29
330
A02
100
AcDbEntity
  8
Shape2DView004
100
AcDbSpline
210
0
220
0
230
1
 70
8
 71
3
 72
8
 73
4
 74
0
 40
0
 40
0
 40
0
 40
0
 40
1
 40
1
 40
1
 40
1
 10
0.310208
 20
3.22844
 30
0
 10
-0.946563
 20
1.78646
 30
0
 10
-2.54729
 20
-0.0391667
 30
0
 10
-2.60021
 20
-0.0523958
 30
0
  0
SPLINE
  5
B2A
330
A02
100
AcDbEntity
  8
Shape2DView004
100
AcDbSpline
210
0
220
0
230
1
 70
8
 71
1
 72
4
 73
2
 74
0
 40
0
 40
0
 40
8
 40
8
 10
1.36854
 20
3.22844
 30
0
 10
0.310208
 20
3.22844
 30
0
  0
SPLINE
  5
B2B
330
A02
100
AcDbEntity
  8
Shape2DView004
100
AcDbSpline
210
0
220
0
230
1
 70
8
 71
3
 72
8
 73
4
 74
0
 40
0
 40
0
 40
0
 40
0
 40
1
 40
1
 40
1
 40
1
 10
-1.95198
 20
-0.674167
 30
0
 10
-1.84615
 20
-0.356667
 30
0
 10
0.111771
 20
1.86583
 30
0
 10
1.36854
 20
3.22844
 30
0
  0
SPLINE
  5
B2C
330
A02
100
AcDbEntity
  8
Shape2DView004
100
AcDbSpline
210
0
220
0
230
1
 70
8
 71
3
 72
8
 73
4
 74
0
 40
0
 40
0
 40
0
 40
0
 40
1
 40
1
 40
1
 40
1
 10
-2.20333
 20
-1.49437
 30
0
 10
-1.91229
 20
-1.16365
 30
0
 10
-1.96521
 20
-0.859375
 30
0
 10
-1.95198
 20
-0.674167
 30
0
  0
SPLINE
  5
B2D
330
A02
100
AcDbEntity
  8
Shape2DView004
100
AcDbSpline
210
0
220
0
230
1
 70
8
 71
1
 72
4
 73
2
 74
0
 40
0
 40
0
 40
0.1
 40
0.1
 10
2.09615
 20
4.00896
 30
0
 10
2.09615
 20
4.02219
 30
0
  0
SPLINE
  5
B2E
330
A02
100
AcDbEntity
  8
Shape2DView004
100
AcDbSpline
210
0
220
0
230
1
 70
8
 71
1
 72
4
 73
2
 74
0
 40
0
 40
0
 40
8.5
 40
8.5
 10
0.971667
 20
4.00896
 30
0
 10
2.09615
 20
4.00896
 30
0
  0
SPLINE
  5
B2F
330
A02
100
AcDbEntity
  8
Shape2DView004
100
AcDbSpline
210
0
220
0
230
1
 70
8
 71
3
 72
8
 73
4
 74
0
 40
0
 40
0
 40
0
 40
0
 40
1
 40
1
 40
1
 40
1
 10
1.76542
 20
4.97469
 30
0
 10
1.76542
 20
4.94823
 30
0
 10
1.43469
 20
4.56458
 30
0
 10
0.971667
 20
4.00896
 30
0
  0
SPLINE
  5
B30
330
A02
100
AcDbEntity
  8
Shape2DView004
100
AcDbSpline
210
0
220
0
230
1
 70
8
 71
1
 72
4
 73
2
 74
0
 40
0
 40
0
 40
0.1
 40
0.1
 10
1.76542
 20
4.98792
 30
0
 10
1.76542
 20
4.97469
 30
0
  0
SPLINE
  5
B31
330
A02
100
AcDbEntity
  8
Shape2DView004
100
AcDbSpline
210
0
220
0
230
1
 70
8
 71
3
 72
8
 73
4
 74
0
 40
0
 40
0
 40
0
 40
0
 40
1
 40
1
 40
1
 40
1
 10
1.73896
 20
5.30542
 30
0
 10
1.73896
 20
5.1599
 30
0
 10
1.76542
 20
5.04083
 30
0
 10
1.76542
 20
4.98792
 30
0
  0
SPLINE
  5
B32
330
A02
100
AcDbEntity
  8
Shape2DView004
100
AcDbSpline
210
0
220
0
230
1
 70
8
 71
3
 72
8
 73
4
 74
0
 40
0
 40
0
 40
0
 40
0
 40
1
 40
1
 40
1
 40
1
 10
1.89771
 20
5.78167
 30
0
 10
1.76542
 20
5.62292
 30
0
 10
1.73896
 20
5.45094
 30
0
 10
1.73896
 20
5.30542
 30
0
  0
SPLINE
  5
B33
330
A02
100
AcDbEntity
  8
Shape2DView004
100
AcDbSpline
210
0
220
0
230
1
 70
8
 71
3
 72
8
 73
4
 74
0
 40
0
 40
0
 40
0
 40
0
 40
1
 40
1
 40
1
 40
1
 10
2.69146
 20
6.09917
 30
0
 10
2.69146
 20
6.09917
 30
0
 10
2.26813
 20
6.205
 30
0
 10
1.89771
 20
5.78167
 30
0
  0
SPLINE
  5
B34
330
A02
100
AcDbEntity
  8
Shape2DView004
100
AcDbSpline
210
0
220
0
230
1
 70
8
 71
1
 72
4
 73
2
 74
0
 40
0
 40
0
 40
1.60312
 40
1.60312
 10
2.70469
 20
5.8875
 30
0
 10
2.69146
 20
6.09917
 30
0
  0
SPLINE
  5
B35
330
A02
100
AcDbEntity
  8
Shape2DView004
100
AcDbSpline
210
0
220
0
230
1
 70
8
 71
1
 72
4
 73
2
 74
0
 40
0
 40
0
 40
4.39318
 40
4.39318
 10
2.32104
 20
5.45094
 30
0
 10
2.70469
 20
5.8875
 30
0
  0
SPLINE
  5
B36
330
A02
100
AcDbEntity
  8
Shape2DView004
100
AcDbSpline
210
0
220
0
230
1
 70
8
 71
3
 72
8
 73
4
 74
0
 40
0
 40
0
 40
0
 40
0
 40
1
 40
1
 40
1
 40
1
 10
2.36073
 20
5.35833
 30
0
 10
2.3475
 20
5.38479
 30
0
 10
2.33427
 20
5.42448
 30
0
 10
2.32104
 20
5.45094
 30
0
  0
SPLINE
  5
B37
330
A02
100
AcDbEntity
  8
Shape2DView004
100
AcDbSpline
210
0
220
0
230
1
 70
8
 71
3
 72
8
 73
4
 74
0
 40
0
 40
0
 40
0
 40
0
 40
1
 40
1
 40
1
 40
1
 10
2.4401
 20
5.2525
 30
0
 10
2.41365
 20
5.29219
 30
0
 10
2.38719
 20
5.31865
 30
0
 10
2.36073
 20
5.35833
 30
0
  0
SPLINE
  5
B38
330
A02
100
AcDbEntity
  8
Shape2DView004
100
AcDbSpline
210
0
220
0
230
1
 70
8
 71
3
 72
8
 73
4
 74
0
 40
0
 40
0
 40
0
 40
0
 40
1
 40
1
 40
1
 40
1
 10
2.5724
 20
5.1599
 30
0
 10
2.53271
 20
5.18635
 30
0
 10
2.46656
 20
5.21281
 30
0
 10
2.4401
 20
5.2525
 30
0
  0
SPLINE
  5
B39
330
A02
100
AcDbEntity
  8
Shape2DView004
100
AcDbSpline
210
0
220
0
230
1
 70
8
 71
3
 72
8
 73
4
 74
0
 40
0
 40
0
 40
0
 40
0
 40
1
 40
1
 40
1
 40
1
 10
2.86344
 20
5.14667
 30
0
 10
2.74437
 20
5.12021
 30
0
 10
2.65177
 20
5.13344
 30
0
 10
2.5724
 20
5.1599
 30
0
  0
SPLINE
  5
B3A
330
A02
100
AcDbEntity
  8
Shape2DView004
100
AcDbSpline
210
0
220
0
230
1
 70
8
 71
1
 72
4
 73
2
 74
0
 40
0
 40
0
 40
4.74236
 40
4.74236
 10
3.28677
 20
5.60969
 30
0
 10
2.86344
 20
5.14667
 30
0
  0
SPLINE
  5
B3B
330
A02
100
AcDbEntity
  8
Shape2DView004
100
AcDbSpline
210
0
220
0
230
1
 70
8
 71
2
 72
6
 73
3
 74
0
 40
0
 40
0
 40
0
 40
1
 40
1
 40
1
 10
3.31323
 20
5.57
 30
0
 10
3.29008
 20
5.60969
 30
0
 10
3.28677
 20
5.60969
 30
0
  0
SPLINE
  5
B3C
330
A02
100
AcDbEntity
  8
Shape2DView004
100
AcDbSpline
210
0
220
0
230
1
 70
8
 71
1
 72
4
 73
2
 74
0
 40
0
 40
0
 40
1
 40
1
 10
3.35292
 20
5.45094
 30
0
 10
3.31323
 20
5.57
 30
0
  0
SPLINE
  5
B3D
330
A02
100
AcDbEntity
  8
Shape2DView004
100
AcDbSpline
210
0
220
0
230
1
 70
8
 71
2
 72
6
 73
3
 74
0
 40
0
 40
0
 40
0
 40
1
 40
1
 40
1
 10
3.37937
 20
5.21281
 30
0
 10
3.37607
 20
5.37156
 30
0
 10
3.35292
 20
5.45094
 30
0
  0
SPLINE
  5
B3E
330
A02
100
AcDbEntity
  8
Shape2DView004
100
AcDbSpline
210
0
220
0
230
1
 70
8
 71
3
 72
8
 73
4
 74
0
 40
0
 40
0
 40
0
 40
0
 40
1
 40
1
 40
1
 40
1
 10
3.37937
 20
5.1599
 30
0
 10
3.37937
 20
5.17313
 30
0
 10
3.37938
 20
5.19958
 30
0
 10
3.37937
 20
5.21281
 30
0
  0
SPLINE
  5
B3F
330
A02
100
AcDbEntity
  8
Shape2DView004
100
AcDbSpline
210
0
220
0
230
1
 70
8
 71
3
 72
8
 73
4
 74
0
 40
0
 40
0
 40
0
 40
0
 40
1
 40
1
 40
1
 40
1
 10
3.11479
 20
4.57781
 30
0
 10
3.32646
 20
4.81594
 30
0
 10
3.37938
 20
5.0276
 30
0
 10
3.37937
 20
5.1599
 30
0
  0
SPLINE
  5
B40
330
A02
100
AcDbEntity
  8
Shape2DView004
100
AcDbSpline
210
0
220
0
230
1
 70
8
 71
3
 72
8
 73
4
 74
0
 40
0
 40
0
 40
0
 40
0
 40
1
 40
1
 40
1
 40
1
 10
2.38719
 20
4.3
 30
0
 10
2.53271
 20
4.33969
 30
0
 10
2.87667
 20
4.31323
 30
0
 10
3.11479
 20
4.57781
 30
0
  0
SPLINE
  5
B41
330
A02
100
AcDbEntity
  8
Shape2DView004
100
AcDbSpline
210
0
220
0
230
1
 70
8
 71
3
 72
8
 73
4
 74
0
 40
0
 40
0
 40
0
 40
0
 40
1
 40
1
 40
1
 40
1
 10
2.09615
 20
4.02219
 30
0
 10
2.2549
 20
4.19417
 30
0
 10
2.36073
 20
4.3
 30
0
 10
2.38719
 20
4.3
 30
0
  0
SPLINE
  5
B42
330
A02
100
AcDbEntity
  8
Shape2DView004
100
AcDbSpline
210
0
220
0
230
1
 70
8
 71
1
 72
4
 73
2
 74
0
 40
0
 40
0
 40
1.42127
 40
1.42127
 10
-0.245417
 20
-2.4601
 30
0
 10
-0.126354
 20
-2.60562
 30
0
  0
SPLINE
  5
B43
330
A02
100
AcDbEntity
  8
Shape2DView004
100
AcDbSpline
210
0
220
0
230
1
 70
8
 71
1
 72
4
 73
2
 74
0
 40
0
 40
0
 40
1.13137
 40
1.13137
 10
-0.35125
 20
-2.35427
 30
0
 10
-0.245417
 20
-2.4601
 30
0
  0
SPLINE
  5
B44
330
A02
100
AcDbEntity
  8
Shape2DView004
100
AcDbSpline
210
0
220
0
230
1
 70
8
 71
1
 72
4
 73
2
 74
0
 40
0
 40
0
 40
1.13137
 40
1.13137
 10
-0.457083
 20
-2.24844
 30
0
 10
-0.35125
 20
-2.35427
 30
0
  0
SPLINE
  5
B45
330
A02
100
AcDbEntity
  8
Shape2DView004
100
AcDbSpline
210
0
220
0
230
1
 70
8
 71
1
 72
4
 73
2
 74
0
 40
0
 40
0
 40
1.13137
 40
1.13137
 10
-0.562917
 20
-2.1426
 30
0
 10
-0.457083
 20
-2.24844
 30
0
  0
SPLINE
  5
B46
330
A02
100
AcDbEntity
  8
Shape2DView004
100
AcDbSpline
210
0
220
0
230
1
 70
8
 71
1
 72
4
 73
2
 74
0
 40
0
 40
0
 40
2.70185
 40
2.70185
 10
-0.840729
 20
-1.91771
 30
0
 10
-0.562917
 20
-2.1426
 30
0
  0
SPLINE
  5
B47
330
A02
100
AcDbEntity
  8
Shape2DView004
100
AcDbSpline
210
0
220
0
230
1
 70
8
 71
1
 72
4
 73
2
 74
0
 40
0
 40
0
 40
0.989949
 40
0.989949
 10
-0.933333
 20
-1.8251
 30
0
 10
-0.840729
 20
-1.91771
 30
0
  0
SPLINE
  5
B48
330
A02
100
AcDbEntity
  8
Shape2DView004
100
AcDbSpline
210
0
220
0
230
1
 70
8
 71
1
 72
4
 73
2
 74
0
 40
0
 40
0
 40
1.06301
 40
1.06301
 10
-1.02594
 20
-1.71927
 30
0
 10
-0.933333
 20
-1.8251
 30
0
  0
SPLINE
  5
B49
330
A02
100
AcDbEntity
  8
Shape2DView004
100
AcDbSpline
210
0
220
0
230
1
 70
8
 71
1
 72
4
 73
2
 74
0
 40
0
 40
0
 40
1.06301
 40
1.06301
 10
-1.11854
 20
-1.61344
 30
0
 10
-1.02594
 20
-1.71927
 30
0
  0
SPLINE
  5
B4A
330
A02
100
AcDbEntity
  8
Shape2DView004
100
AcDbSpline
210
0
220
0
230
1
 70
8
 71
1
 72
4
 73
2
 74
0
 40
0
 40
0
 40
1.06301
 40
1.06301
 10
-1.21115
 20
-1.5076
 30
0
 10
-1.11854
 20
-1.61344
 30
0
  0
SPLINE
  5
B4B
330
A02
100
AcDbEntity
  8
Shape2DView004
100
AcDbSpline
210
0
220
0
230
1
 70
8
 71
1
 72
4
 73
2
 74
0
 40
0
 40
0
 40
0.565685
 40
0.565685
 10
-1.26406
 20
-1.45469
 30
0
 10
-1.21115
 20
-1.5076
 30
0
  0
SPLINE
  5
B4C
330
A02
100
AcDbEntity
  8
Shape2DView004
100
AcDbSpline
210
0
220
0
230
1
 70
8
 71
1
 72
4
 73
2
 74
0
 40
0
 40
0
 40
0.640312
 40
0.640312
 10
-1.31698
 20
-1.38854
 30
0
 10
-1.26406
 20
-1.45469
 30
0
  0
SPLINE
  5
B4D
330
A02
100
AcDbEntity
  8
Shape2DView004
100
AcDbSpline
210
0
220
0
230
1
 70
8
 71
1
 72
4
 73
2
 74
0
 40
0
 40
0
 40
0.424264
 40
0.424264
 10
-1.35667
 20
-1.34885
 30
0
 10
-1.31698
 20
-1.38854
 30
0
  0
SPLINE
  5
B4E
330
A02
100
AcDbEntity
  8
Shape2DView004
100
AcDbSpline
210
0
220
0
230
1
 70
8
 71
1
 72
4
 73
2
 74
0
 40
0
 40
0
 40
1.13137
 40
1.13137
 10
-1.4625
 20
-1.24302
 30
0
 10
-1.35667
 20
-1.34885
 30
0
  0
SPLINE
  5
B4F
330
A02
100
AcDbEntity
  8
Shape2DView004
100
AcDbSpline
210
0
220
0
230
1
 70
8
 71
1
 72
4
 73
2
 74
0
 40
0
 40
0
 40
0.424264
 40
0.424264
 10
-1.50219
 20
-1.20333
 30
0
 10
-1.4625
 20
-1.24302
 30
0
  0
SPLINE
  5
B50
330
A02
100
AcDbEntity
  8
Shape2DView004
100
AcDbSpline
210
0
220
0
230
1
 70
8
 71
1
 72
4
 73
2
 74
0
 40
0
 40
0
 40
1.06301
 40
1.06301
 10
-1.59479
 20
-1.0975
 30
0
 10
-1.50219
 20
-1.20333
 30
0
  0
SPLINE
  5
B51
330
A02
100
AcDbEntity
  8
Shape2DView004
100
AcDbSpline
210
0
220
0
230
1
 70
8
 71
1
 72
4
 73
2
 74
0
 40
0
 40
0
 40
0.5
 40
0.5
 10
-1.63448
 20
-1.04458
 30
0
 10
-1.59479
 20
-1.0975
 30
0
  0
SPLINE
  5
B52
330
A02
100
AcDbEntity
  8
Shape2DView004
100
AcDbSpline
210
0
220
0
230
1
 70
8
 71
1
 72
4
 73
2
 74
0
 40
0
 40
0
 40
0.848528
 40
0.848528
 10
-1.71385
 20
-0.965208
 30
0
 10
-1.63448
 20
-1.04458
 30
0
  0
SPLINE
  5
B53
330
A02
100
AcDbEntity
  8
Shape2DView004
100
AcDbSpline
210
0
220
0
230
1
 70
8
 71
3
 72
8
 73
4
 74
0
 40
0
 40
0
 40
0
 40
0
 40
1
 40
1
 40
1
 40
1
 10
-1.70063
 20
-0.740312
 30
0
 10
-1.70063
 20
-0.806458
 30
0
 10
-1.70063
 20
-0.872604
 30
0
 10
-1.71385
 20
-0.965208
 30
0
  0
SPLINE
  5
B54
330
A02
100
AcDbEntity
  8
Shape2DView004
100
AcDbSpline
210
0
220
0
230
1
 70
8
 71
1
 72
4
 73
2
 74
0
 40
0
 40
0
 40
1
 40
1
 10
-1.70063
 20
-0.700625
 30
0
 10
-1.70063
 20
-0.740312
 30
0
  0
SPLINE
  5
B55
330
A02
100
AcDbEntity
  8
Shape2DView004
100
AcDbSpline
210
0
220
0
230
1
 70
8
 71
3
 72
8
 73
4
 74
0
 40
0
 40
0
 40
0
 40
0
 40
1
 40
1
 40
1
 40
1
 10
-1.30375
 20
-0.158229
 30
0
 10
-1.52865
 20
-0.436042
 30
0
 10
-1.66094
 20
-0.608021
 30
0
 10
-1.70063
 20
-0.700625
 30
0
  0
SPLINE
  5
B56
330
A02
100
AcDbEntity
  8
Shape2DView004
100
AcDbSpline
210
0
220
0
230
1
 70
8
 71
1
 72
4
 73
2
 74
0
 40
0
 40
0
 40
0.223607
 40
0.223607
 10
-1.29052
 20
-0.184687
 30
0
 10
-1.30375
 20
-0.158229
 30
0
  0
SPLINE
  5
B57
330
A02
100
AcDbEntity
  8
Shape2DView004
100
AcDbSpline
210
0
220
0
230
1
 70
8
 71
1
 72
4
 73
2
 74
0
 40
0
 40
0
 40
0.5
 40
0.5
 10
-1.25083
 20
-0.237604
 30
0
 10
-1.29052
 20
-0.184687
 30
0
  0
SPLINE
  5
B58
330
A02
100
AcDbEntity
  8
Shape2DView004
100
AcDbSpline
210
0
220
0
230
1
 70
8
 71
1
 72
4
 73
2
 74
0
 40
0
 40
0
 40
0.565685
 40
0.565685
 10
-1.19792
 20
-0.290521
 30
0
 10
-1.25083
 20
-0.237604
 30
0
  0
SPLINE
  5
B59
330
A02
100
AcDbEntity
  8
Shape2DView004
100
AcDbSpline
210
0
220
0
230
1
 70
8
 71
1
 72
4
 73
2
 74
0
 40
0
 40
0
 40
0.707107
 40
0.707107
 10
-1.13177
 20
-0.356667
 30
0
 10
-1.19792
 20
-0.290521
 30
0
  0
SPLINE
  5
B5A
330
A02
100
AcDbEntity
  8
Shape2DView004
100
AcDbSpline
210
0
220
0
230
1
 70
8
 71
1
 72
4
 73
2
 74
0
 40
0
 40
0
 40
0.707107
 40
0.707107
 10
-1.06563
 20
-0.422812
 30
0
 10
-1.13177
 20
-0.356667
 30
0
  0
SPLINE
  5
B5B
330
A02
100
AcDbEntity
  8
Shape2DView004
100
AcDbSpline
210
0
220
0
230
1
 70
8
 71
1
 72
4
 73
2
 74
0
 40
0
 40
0
 40
0.565685
 40
0.565685
 10
-1.01271
 20
-0.475729
 30
0
 10
-1.06563
 20
-0.422812
 30
0
  0
SPLINE
  5
B5C
330
A02
100
AcDbEntity
  8
Shape2DView004
100
AcDbSpline
210
0
220
0
230
1
 70
8
 71
1
 72
4
 73
2
 74
0
 40
0
 40
0
 40
0.640312
 40
0.640312
 10
-0.959792
 20
-0.541875
 30
0
 10
-1.01271
 20
-0.475729
 30
0
  0
SPLINE
  5
B5D
330
A02
100
AcDbEntity
  8
Shape2DView004
100
AcDbSpline
210
0
220
0
230
1
 70
8
 71
1
 72
4
 73
2
 74
0
 40
0
 40
0
 40
0.640312
 40
0.640312
 10
-0.906875
 20
-0.608021
 30
0
 10
-0.959792
 20
-0.541875
 30
0
  0
SPLINE
  5
B5E
330
A02
100
AcDbEntity
  8
Shape2DView004
100
AcDbSpline
210
0
220
0
230
1
 70
8
 71
1
 72
4
 73
2
 74
0
 40
0
 40
0
 40
0.223607
 40
0.223607
 10
-0.893646
 20
-0.634479
 30
0
 10
-0.906875
 20
-0.608021
 30
0
  0
SPLINE
  5
B5F
330
A02
100
AcDbEntity
  8
Shape2DView004
100
AcDbSpline
210
0
220
0
230
1
 70
8
 71
1
 72
4
 73
2
 74
0
 40
0
 40
0
 40
0.223607
 40
0.223607
 10
-0.880417
 20
-0.660937
 30
0
 10
-0.893646
 20
-0.634479
 30
0
  0
SPLINE
  5
B60
330
A02
100
AcDbEntity
  8
Shape2DView004
100
AcDbSpline
210
0
220
0
230
1
 70
8
 71
1
 72
4
 73
2
 74
0
 40
0
 40
0
 40
0.781025
 40
0.781025
 10
-0.814271
 20
-0.740312
 30
0
 10
-0.880417
 20
-0.660937
 30
0
  0
SPLINE
  5
B61
330
A02
100
AcDbEntity
  8
Shape2DView004
100
AcDbSpline
210
0
220
0
230
1
 70
8
 71
1
 72
4
 73
2
 74
0
 40
0
 40
0
 40
0.781025
 40
0.781025
 10
-0.748125
 20
-0.819687
 30
0
 10
-0.814271
 20
-0.740312
 30
0
  0
SPLINE
  5
B62
330
A02
100
AcDbEntity
  8
Shape2DView004
100
AcDbSpline
210
0
220
0
230
1
 70
8
 71
1
 72
4
 73
2
 74
0
 40
0
 40
0
 40
0.424264
 40
0.424264
 10
-0.708438
 20
-0.859375
 30
0
 10
-0.748125
 20
-0.819687
 30
0
  0
SPLINE
  5
B63
330
A02
100
AcDbEntity
  8
Shape2DView004
100
AcDbSpline
210
0
220
0
230
1
 70
8
 71
1
 72
4
 73
2
 74
0
 40
0
 40
0
 40
0.640312
 40
0.640312
 10
-0.655521
 20
-0.925521
 30
0
 10
-0.708438
 20
-0.859375
 30
0
  0
SPLINE
  5
B64
330
A02
100
AcDbEntity
  8
Shape2DView004
100
AcDbSpline
210
0
220
0
230
1
 70
8
 71
1
 72
4
 73
2
 74
0
 40
0
 40
0
 40
0.640312
 40
0.640312
 10
-0.602604
 20
-0.991667
 30
0
 10
-0.655521
 20
-0.925521
 30
0
  0
SPLINE
  5
B65
330
A02
100
AcDbEntity
  8
Shape2DView004
100
AcDbSpline
210
0
220
0
230
1
 70
8
 71
1
 72
4
 73
2
 74
0
 40
0
 40
0
 40
1
 40
1
 10
-0.523229
 20
-1.0975
 30
0
 10
-0.602604
 20
-0.991667
 30
0
  0
SPLINE
  5
B66
330
A02
100
AcDbEntity
  8
Shape2DView004
100
AcDbSpline
210
0
220
0
230
1
 70
8
 71
1
 72
4
 73
2
 74
0
 40
0
 40
0
 40
5.56058
 40
5.56058
 10
-0.0734375
 20
-1.67958
 30
0
 10
-0.523229
 20
-1.0975
 30
0
  0
SPLINE
  5
B67
330
A02
100
AcDbEntity
  8
Shape2DView004
100
AcDbSpline
210
0
220
0
230
1
 70
8
 71
1
 72
4
 73
2
 74
0
 40
0
 40
0
 40
1.14018
 40
1.14018
 10
0.0191667
 20
-1.79865
 30
0
 10
-0.0734375
 20
-1.67958
 30
0
  0
SPLINE
  5
B68
330
A02
100
AcDbEntity
  8
Shape2DView004
100
AcDbSpline
210
0
220
0
230
1
 70
8
 71
1
 72
4
 73
2
 74
0
 40
0
 40
0
 40
0.141421
 40
0.141421
 10
0.0323958
 20
-1.81188
 30
0
 10
0.0191667
 20
-1.79865
 30
0
  0
SPLINE
  5
B69
330
A02
100
AcDbEntity
  8
Shape2DView004
100
AcDbSpline
210
0
220
0
230
1
 70
8
 71
1
 72
4
 73
2
 74
0
 40
0
 40
0
 40
0.141421
 40
0.141421
 10
0.045625
 20
-1.8251
 30
0
 10
0.0323958
 20
-1.81188
 30
0
  0
SPLINE
  5
B6A
330
A02
100
AcDbEntity
  8
Shape2DView004
100
AcDbSpline
210
0
220
0
230
1
 70
8
 71
1
 72
4
 73
2
 74
0
 40
0
 40
0
 40
0.282843
 40
0.282843
 10
0.0720833
 20
-1.85156
 30
0
 10
0.045625
 20
-1.8251
 30
0
  0
SPLINE
  5
B6B
330
A02
100
AcDbEntity
  8
Shape2DView004
100
AcDbSpline
210
0
220
0
230
1
 70
8
 71
1
 72
4
 73
2
 74
0
 40
0
 40
0
 40
0.640312
 40
0.640312
 10
0.125
 20
-1.91771
 30
0
 10
0.0720833
 20
-1.85156
 30
0
  0
SPLINE
  5
B6C
330
A02
100
AcDbEntity
  8
Shape2DView004
100
AcDbSpline
210
0
220
0
230
1
 70
8
 71
1
 72
4
 73
2
 74
0
 40
0
 40
0
 40
0.640312
 40
0.640312
 10
0.177917
 20
-1.98385
 30
0
 10
0.125
 20
-1.91771
 30
0
  0
SPLINE
  5
B6D
330
A02
100
AcDbEntity
  8
Shape2DView004
100
AcDbSpline
210
0
220
0
230
1
 70
8
 71
1
 72
4
 73
2
 74
0
 40
0
 40
0
 40
0.640312
 40
0.640312
 10
0.230833
 20
-2.05
 30
0
 10
0.177917
 20
-1.98385
 30
0
  0
SPLINE
  5
B6E
330
A02
100
AcDbEntity
  8
Shape2DView004
100
AcDbSpline
210
0
220
0
230
1
 70
8
 71
1
 72
4
 73
2
 74
0
 40
0
 40
0
 40
0.640312
 40
0.640312
 10
0.28375
 20
-2.11615
 30
0
 10
0.230833
 20
-2.05
 30
0
  0
SPLINE
  5
B6F
330
A02
100
AcDbEntity
  8
Shape2DView004
100
AcDbSpline
210
0
220
0
230
1
 70
8
 71
1
 72
4
 73
2
 74
0
 40
0
 40
0
 40
0.640312
 40
0.640312
 10
0.336667
 20
-2.18229
 30
0
 10
0.28375
 20
-2.11615
 30
0
  0
SPLINE
  5
B70
330
A02
100
AcDbEntity
  8
Shape2DView004
100
AcDbSpline
210
0
220
0
230
1
 70
8
 71
1
 72
4
 73
2
 74
0
 40
0
 40
0
 40
1.28062
 40
1.28062
 10
0.4425
 20
-2.31458
 30
0
 10
0.336667
 20
-2.18229
 30
0
  0
SPLINE
  5
B71
330
A02
100
AcDbEntity
  8
Shape2DView004
100
AcDbSpline
210
0
220
0
230
1
 70
8
 71
1
 72
4
 73
2
 74
0
 40
0
 40
0
 40
1.28062
 40
1.28062
 10
0.548333
 20
-2.44687
 30
0
 10
0.4425
 20
-2.31458
 30
0
  0
SPLINE
  5
B72
330
A02
100
AcDbEntity
  8
Shape2DView004
100
AcDbSpline
210
0
220
0
230
1
 70
8
 71
1
 72
4
 73
2
 74
0
 40
0
 40
0
 40
1.28062
 40
1.28062
 10
0.654167
 20
-2.57917
 30
0
 10
0.548333
 20
-2.44687
 30
0
  0
SPLINE
  5
B73
330
A02
100
AcDbEntity
  8
Shape2DView004
100
AcDbSpline
210
0
220
0
230
1
 70
8
 71
1
 72
4
 73
2
 74
0
 40
0
 40
0
 40
0.282843
 40
0.282843
 10
0.680625
 20
-2.60562
 30
0
 10
0.654167
 20
-2.57917
 30
0
  0
SPLINE
  5
B74
330
A02
100
AcDbEntity
  8
Shape2DView004
100
AcDbSpline
210
0
220
0
230
1
 70
8
 71
1
 72
4
 73
2
 74
0
 40
0
 40
0
 40
0.223607
 40
0.223607
 10
0.693854
 20
-2.63208
 30
0
 10
0.680625
 20
-2.60562
 30
0
  0
SPLINE
  5
B75
330
A02
100
AcDbEntity
  8
Shape2DView004
100
AcDbSpline
210
0
220
0
230
1
 70
8
 71
3
 72
8
 73
4
 74
0
 40
0
 40
0
 40
0
 40
0
 40
1
 40
1
 40
1
 40
1
 10
0.230833
 20
-3.01573
 30
0
 10
0.349896
 20
-2.84375
 30
0
 10
0.495417
 20
-2.71146
 30
0
 10
0.693854
 20
-2.63208
 30
0
  0
SPLINE
  5
B76
330
A02
100
AcDbEntity
  8
Shape2DView004
100
AcDbSpline
210
0
220
0
230
1
 70
8
 71
1
 72
4
 73
2
 74
0
 40
0
 40
0
 40
0.5
 40
0.5
 10
0.191146
 20
-2.96281
 30
0
 10
0.230833
 20
-3.01573
 30
0
  0
SPLINE
  5
B77
330
A02
100
AcDbEntity
  8
Shape2DView004
100
AcDbSpline
210
0
220
0
230
1
 70
8
 71
1
 72
4
 73
2
 74
0
 40
0
 40
0
 40
1.20416
 40
1.20416
 10
0.0853125
 20
-2.84375
 30
0
 10
0.191146
 20
-2.96281
 30
0
  0
SPLINE
  5
B78
330
A02
100
AcDbEntity
  8
Shape2DView004
100
AcDbSpline
210
0
220
0
230
1
 70
8
 71
1
 72
4
 73
2
 74
0
 40
0
 40
0
 40
1.20416
 40
1.20416
 10
-0.0205208
 20
-2.72469
 30
0
 10
0.0853125
 20
-2.84375
 30
0
  0
SPLINE
  5
B79
330
A02
100
AcDbEntity
  8
Shape2DView004
100
AcDbSpline
210
0
220
0
230
1
 70
8
 71
1
 72
4
 73
2
 74
0
 40
0
 40
0
 40
1.20416
 40
1.20416
 10
-0.126354
 20
-2.60562
 30
0
 10
-0.0205208
 20
-2.72469
 30
0
  0
SPLINE
  5
B7A
330
A02
100
AcDbEntity
  8
Shape2DView004
100
AcDbSpline
210
0
220
0
230
1
 70
8
 71
3
 72
8
 73
4
 74
0
 40
0
 40
0
 40
0
 40
0
 40
1
 40
1
 40
1
 40
1
 10
-6.64833
 20
-5.05302
 30
0
 10
-6.11917
 20
-5.03979
 30
0
 10
-5.65615
 20
-4.73552
 30
0
 10
-5.45771
 20
-4.28573
 30
0
  0
SPLINE
  5
B7B
330
A02
100
AcDbEntity
  8
Shape2DView004
100
AcDbSpline
210
0
220
0
230
1
 70
8
 71
3
 72
8
 73
4
 74
0
 40
0
 40
0
 40
0
 40
0
 40
1
 40
1
 40
1
 40
1
 10
-7.66698
 20
-4.56354
 30
0
 10
-7.42885
 20
-4.86781
 30
0
 10
-7.05844
 20
-5.05302
 30
0
 10
-6.64833
 20
-5.05302
 30
0
  0
SPLINE
  5
B7C
330
A02
100
AcDbEntity
  8
Shape2DView004
100
AcDbSpline
210
0
220
0
230
1
 70
8
 71
1
 72
4
 73
2
 74
0
 40
0
 40
0
 40
0.1
 40
0.1
 10
-7.66698
 20
-4.55031
 30
0
 10
-7.66698
 20
-4.56354
 30
0
  0
SPLINE
  5
B7D
330
A02
100
AcDbEntity
  8
Shape2DView004
100
AcDbSpline
210
0
220
0
230
1
 70
8
 71
1
 72
4
 73
2
 74
0
 40
0
 40
0
 40
0.8
 40
0.8
 10
-7.66698
 20
-4.44448
 30
0
 10
-7.66698
 20
-4.55031
 30
0
  0
SPLINE
  5
B7E
330
A02
100
AcDbEntity
  8
Shape2DView004
100
AcDbSpline
210
0
220
0
230
1
 70
8
 71
1
 72
4
 73
2
 74
0
 40
0
 40
0
 40
6.2
 40
6.2
 10
-6.84677
 20
-4.44448
 30
0
 10
-7.66698
 20
-4.44448
 30
0
  0
SPLINE
  5
B7F
330
A02
100
AcDbEntity
  8
Shape2DView004
100
AcDbSpline
210
0
220
0
230
1
 70
8
 71
1
 72
4
 73
2
 74
0
 40
0
 40
0
 40
6.84105
 40
6.84105
 10
-6.29115
 20
-3.7301
 30
0
 10
-6.84677
 20
-4.44448
 30
0
  0
SPLINE
  5
B80
330
A02
100
AcDbEntity
  8
Shape2DView004
100
AcDbSpline
210
0
220
0
230
1
 70
8
 71
1
 72
4
 73
2
 74
0
 40
0
 40
0
 40
6.7624
 40
6.7624
 10
-6.84677
 20
-3.02896
 30
0
 10
-6.29115
 20
-3.7301
 30
0
  0
SPLINE
  5
B81
330
A02
100
AcDbEntity
  8
Shape2DView004
100
AcDbSpline
210
0
220
0
230
1
 70
8
 71
1
 72
4
 73
2
 74
0
 40
0
 40
0
 40
6.2
 40
6.2
 10
-7.66698
 20
-3.02896
 30
0
 10
-6.84677
 20
-3.02896
 30
0
  0
SPLINE
  5
B82
330
A02
100
AcDbEntity
  8
Shape2DView004
100
AcDbSpline
210
0
220
0
230
1
 70
8
 71
1
 72
4
 73
2
 74
0
 40
0
 40
0
 40
0.9
 40
0.9
 10
-7.66698
 20
-2.9099
 30
0
 10
-7.66698
 20
-3.02896
 30
0
  0
SPLINE
  5
B83
330
A02
100
AcDbEntity
  8
Shape2DView004
100
AcDbSpline
210
0
220
0
230
1
 70
8
 71
3
 72
8
 73
4
 74
0
 40
0
 40
0
 40
0
 40
0
 40
1
 40
1
 40
1
 40
1
 10
-6.64833
 20
-2.42042
 30
0
 10
-7.05844
 20
-2.42042
 30
0
 10
-7.42885
 20
-2.60562
 30
0
 10
-7.66698
 20
-2.9099
 30
0
  0
SPLINE
  5
B84
330
A02
100
AcDbEntity
  8
Shape2DView004
100
AcDbSpline
210
0
220
0
230
1
 70
8
 71
3
 72
8
 73
4
 74
0
 40
0
 40
0
 40
0
 40
0
 40
1
 40
1
 40
1
 40
1
 10
-5.45771
 20
-3.20094
 30
0
 10
-5.65615
 20
-2.75115
 30
0
 10
-6.11917
 20
-2.42042
 30
0
 10
-6.64833
 20
-2.42042
 30
0
  0
SPLINE
  5
B85
330
A02
100
AcDbEntity
  8
Shape2DView004
100
AcDbSpline
210
0
220
0
230
1
 70
8
 71
1
 72
4
 73
2
 74
0
 40
0
 40
0
 40
43.4
 40
43.4
 10
0.28375
 20
-3.20094
 30
0
 10
-5.45771
 20
-3.20094
 30
0
  0
SPLINE
  5
B86
330
A02
100
AcDbEntity
  8
Shape2DView004
100
AcDbSpline
210
0
220
0
230
1
 70
8
 71
3
 72
8
 73
4
 74
0
 40
0
 40
0
 40
0
 40
0
 40
1
 40
1
 40
1
 40
1
 10
0.323437
 20
-3.13479
 30
0
 10
0.310208
 20
-3.16125
 30
0
 10
0.296979
 20
-3.17448
 30
0
 10
0.28375
 20
-3.20094
 30
0
  0
SPLINE
  5
B87
330
A02
100
AcDbEntity
  8
Shape2DView004
100
AcDbSpline
210
0
220
0
230
1
 70
8
 71
2
 72
6
 73
3
 74
0
 40
0
 40
0
 40
0
 40
1
 40
1
 40
1
 10
0.786458
 20
-2.75115
 30
0
 10
0.505339
 20
-2.87352
 30
0
 10
0.323437
 20
-3.13479
 30
0
  0
SPLINE
  5
B88
330
A02
100
AcDbEntity
  8
Shape2DView004
100
AcDbSpline
210
0
220
0
230
1
 70
8
 71
2
 72
6
 73
3
 74
0
 40
0
 40
0
 40
0
 40
1
 40
1
 40
1
 10
1.22302
 20
-2.65854
 30
0
 10
0.984896
 20
-2.65523
 30
0
 10
0.786458
 20
-2.75115
 30
0
  0
SPLINE
  5
B89
330
A02
100
AcDbEntity
  8
Shape2DView004
100
AcDbSpline
210
0
220
0
230
1
 70
8
 71
3
 72
8
 73
4
 74
0
 40
0
 40
0
 40
0
 40
0
 40
1
 40
1
 40
1
 40
1
 10
2.29458
 20
-3.7301
 30
0
 10
2.29458
 20
-3.13479
 30
0
 10
1.81833
 20
-2.65854
 30
0
 10
1.22302
 20
-2.65854
 30
0
  0
SPLINE
  5
B8A
330
A02
100
AcDbEntity
  8
Shape2DView004
100
AcDbSpline
210
0
220
0
230
1
 70
8
 71
2
 72
6
 73
3
 74
0
 40
0
 40
0
 40
0
 40
1
 40
1
 40
1
 10
2.24167
 20
-4.07406
 30
0
 10
2.29789
 20
-3.91201
 30
0
 10
2.29458
 20
-3.7301
 30
0
  0
SPLINE
  5
B8B
330
A02
100
AcDbEntity
  8
Shape2DView004
100
AcDbSpline
210
0
220
0
230
1
 70
8
 71
1
 72
4
 73
2
 74
0
 40
0
 40
0
 40
0.565685
 40
0.565685
 10
2.18875
 20
-4.02115
 30
0
 10
2.24167
 20
-4.07406
 30
0
  0
SPLINE
  5
B8C
330
A02
100
AcDbEntity
  8
Shape2DView004
100
AcDbSpline
210
0
220
0
230
1
 70
8
 71
1
 72
4
 73
2
 74
0
 40
0
 40
0
 40
0.707107
 40
0.707107
 10
2.1226
 20
-3.955
 30
0
 10
2.18875
 20
-4.02115
 30
0
  0
SPLINE
  5
B8D
330
A02
100
AcDbEntity
  8
Shape2DView004
100
AcDbSpline
210
0
220
0
230
1
 70
8
 71
1
 72
4
 73
2
 74
0
 40
0
 40
0
 40
0.707107
 40
0.707107
 10
2.05646
 20
-3.88885
 30
0
 10
2.1226
 20
-3.955
 30
0
  0
SPLINE
  5
B8E
330
A02
100
AcDbEntity
  8
Shape2DView004
100
AcDbSpline
210
0
220
0
230
1
 70
8
 71
1
 72
4
 73
2
 74
0
 40
0
 40
0
 40
0.282843
 40
0.282843
 10
2.03
 20
-3.8624
 30
0
 10
2.05646
 20
-3.88885
 30
0
  0
SPLINE
  5
B8F
330
A02
100
AcDbEntity
  8
Shape2DView004
100
AcDbSpline
210
0
220
0
230
1
 70
8
 71
1
 72
4
 73
2
 74
0
 40
0
 40
0
 40
0.282843
 40
0.282843
 10
2.00354
 20
-3.83594
 30
0
 10
2.03
 20
-3.8624
 30
0
  0
SPLINE
  5
B90
330
A02
100
AcDbEntity
  8
Shape2DView004
100
AcDbSpline
210
0
220
0
230
1
 70
8
 71
1
 72
4
 73
2
 74
0
 40
0
 40
0
 40
0.640312
 40
0.640312
 10
1.95062
 20
-3.76979
 30
0
 10
2.00354
 20
-3.83594
 30
0
  0
SPLINE
  5
B91
330
A02
100
AcDbEntity
  8
Shape2DView004
100
AcDbSpline
210
0
220
0
230
1
 70
8
 71
1
 72
4
 73
2
 74
0
 40
0
 40
0
 40
0.640312
 40
0.640312
 10
1.89771
 20
-3.70365
 30
0
 10
1.95062
 20
-3.76979
 30
0
  0
SPLINE
  5
B92
330
A02
100
AcDbEntity
  8
Shape2DView004
100
AcDbSpline
210
0
220
0
230
1
 70
8
 71
1
 72
4
 73
2
 74
0
 40
0
 40
0
 40
1.34536
 40
1.34536
 10
1.77865
 20
-3.57135
 30
0
 10
1.89771
 20
-3.70365
 30
0
  0
SPLINE
  5
B93
330
A02
100
AcDbEntity
  8
Shape2DView004
100
AcDbSpline
210
0
220
0
230
1
 70
8
 71
1
 72
4
 73
2
 74
0
 40
0
 40
0
 40
0.5
 40
0.5
 10
1.77865
 20
-3.50521
 30
0
 10
1.77865
 20
-3.57135
 30
0
  0
SPLINE
  5
B94
330
A02
100
AcDbEntity
  8
Shape2DView004
100
AcDbSpline
210
0
220
0
230
1
 70
8
 71
1
 72
4
 73
2
 74
0
 40
0
 40
0
 40
3.60694
 40
3.60694
 10
1.43469
 20
-3.17448
 30
0
 10
1.77865
 20
-3.50521
 30
0
  0
SPLINE
  5
B95
330
A02
100
AcDbEntity
  8
Shape2DView004
100
AcDbSpline
210
0
220
0
230
1
 70
8
 71
1
 72
4
 73
2
 74
0
 40
0
 40
0
 40
0.1
 40
0.1
 10
1.42146
 20
-3.17448
 30
0
 10
1.43469
 20
-3.17448
 30
0
  0
SPLINE
  5
B96
330
A02
100
AcDbEntity
  8
Shape2DView004
100
AcDbSpline
210
0
220
0
230
1
 70
8
 71
1
 72
4
 73
2
 74
0
 40
0
 40
0
 40
1.8
 40
1.8
 10
1.18333
 20
-3.17448
 30
0
 10
1.42146
 20
-3.17448
 30
0
  0
SPLINE
  5
B97
330
A02
100
AcDbEntity
  8
Shape2DView004
100
AcDbSpline
210
0
220
0
230
1
 70
8
 71
1
 72
4
 73
2
 74
0
 40
0
 40
0
 40
1.4
 40
1.4
 10
0.998125
 20
-3.17448
 30
0
 10
1.18333
 20
-3.17448
 30
0
  0
SPLINE
  5
B98
330
A02
100
AcDbEntity
  8
Shape2DView004
100
AcDbSpline
210
0
220
0
230
1
 70
8
 71
1
 72
4
 73
2
 74
0
 40
0
 40
0
 40
3.33017
 40
3.33017
 10
0.707083
 20
-3.50521
 30
0
 10
0.998125
 20
-3.17448
 30
0
  0
SPLINE
  5
B99
330
A02
100
AcDbEntity
  8
Shape2DView004
100
AcDbSpline
210
0
220
0
230
1
 70
8
 71
1
 72
4
 73
2
 74
0
 40
0
 40
0
 40
0.2
 40
0.2
 10
0.707083
 20
-3.53167
 30
0
 10
0.707083
 20
-3.50521
 30
0
  0
SPLINE
  5
B9A
330
A02
100
AcDbEntity
  8
Shape2DView004
100
AcDbSpline
210
0
220
0
230
1
 70
8
 71
1
 72
4
 73
2
 74
0
 40
0
 40
0
 40
2.1
 40
2.1
 10
0.707083
 20
-3.80948
 30
0
 10
0.707083
 20
-3.53167
 30
0
  0
SPLINE
  5
B9B
330
A02
100
AcDbEntity
  8
Shape2DView004
100
AcDbSpline
210
0
220
0
230
1
 70
8
 71
1
 72
4
 73
2
 74
0
 40
0
 40
0
 40
1.1
 40
1.1
 10
0.707083
 20
-3.955
 30
0
 10
0.707083
 20
-3.80948
 30
0
  0
SPLINE
  5
B9C
330
A02
100
AcDbEntity
  8
Shape2DView004
100
AcDbSpline
210
0
220
0
230
1
 70
8
 71
1
 72
4
 73
2
 74
0
 40
0
 40
0
 40
3.11127
 40
3.11127
 10
0.998125
 20
-4.24604
 30
0
 10
0.707083
 20
-3.955
 30
0
  0
SPLINE
  5
B9D
330
A02
100
AcDbEntity
  8
Shape2DView004
100
AcDbSpline
210
0
220
0
230
1
 70
8
 71
1
 72
4
 73
2
 74
0
 40
0
 40
0
 40
0.7
 40
0.7
 10
1.09073
 20
-4.24604
 30
0
 10
0.998125
 20
-4.24604
 30
0
  0
SPLINE
  5
B9E
330
A02
100
AcDbEntity
  8
Shape2DView004
100
AcDbSpline
210
0
220
0
230
1
 70
8
 71
1
 72
4
 73
2
 74
0
 40
0
 40
0
 40
0.640312
 40
0.640312
 10
1.14365
 20
-4.31219
 30
0
 10
1.09073
 20
-4.24604
 30
0
  0
SPLINE
  5
B9F
330
A02
100
AcDbEntity
  8
Shape2DView004
100
AcDbSpline
210
0
220
0
230
1
 70
8
 71
1
 72
4
 73
2
 74
0
 40
0
 40
0
 40
1.28062
 40
1.28062
 10
1.24948
 20
-4.44448
 30
0
 10
1.14365
 20
-4.31219
 30
0
  0
SPLINE
  5
BA0
330
A02
100
AcDbEntity
  8
Shape2DView004
100
AcDbSpline
210
0
220
0
230
1
 70
8
 71
1
 72
4
 73
2
 74
0
 40
0
 40
0
 40
1.28062
 40
1.28062
 10
1.35531
 20
-4.57677
 30
0
 10
1.24948
 20
-4.44448
 30
0
  0
SPLINE
  5
BA1
330
A02
100
AcDbEntity
  8
Shape2DView004
100
AcDbSpline
210
0
220
0
230
1
 70
8
 71
1
 72
4
 73
2
 74
0
 40
0
 40
0
 40
1.28062
 40
1.28062
 10
1.46115
 20
-4.70906
 30
0
 10
1.35531
 20
-4.57677
 30
0
  0
SPLINE
  5
BA2
330
A02
100
AcDbEntity
  8
Shape2DView004
100
AcDbSpline
210
0
220
0
230
1
 70
8
 71
1
 72
4
 73
2
 74
0
 40
0
 40
0
 40
0.424264
 40
0.424264
 10
1.50083
 20
-4.74875
 30
0
 10
1.46115
 20
-4.70906
 30
0
  0
SPLINE
  5
BA3
330
A02
100
AcDbEntity
  8
Shape2DView004
100
AcDbSpline
210
0
220
0
230
1
 70
8
 71
2
 72
6
 73
3
 74
0
 40
0
 40
0
 40
0
 40
1
 40
1
 40
1
 10
1.22302
 20
-4.78844
 30
0
 10
1.36193
 20
-4.78844
 30
0
 10
1.50083
 20
-4.74875
 30
0
  0
SPLINE
  5
BA4
330
A02
100
AcDbEntity
  8
Shape2DView004
100
AcDbSpline
210
0
220
0
230
1
 70
8
 71
3
 72
8
 73
4
 74
0
 40
0
 40
0
 40
0
 40
0
 40
1
 40
1
 40
1
 40
1
 10
0.310208
 20
-4.28573
 30
0
 10
0.495417
 20
-4.59
 30
0
 10
0.839375
 20
-4.78844
 30
0
 10
1.22302
 20
-4.78844
 30
0
  0
SPLINE
  5
BA5
330
A02
100
AcDbEntity
  8
Shape2DView004
100
AcDbSpline
210
0
220
0
230
1
 70
8
 71
1
 72
4
 73
2
 74
0
 40
0
 40
0
 40
43.6
 40
43.6
 10
-5.45771
 20
-4.28573
 30
0
 10
0.310208
 20
-4.28573
 30
0
  0
SPLINE
  5
BA6
330
A02
100
AcDbEntity
  8
Shape2DView004
100
AcDbSpline
210
0
220
0
230
1
 70
8
 71
1
 72
4
 73
2
 74
0
 40
0
 40
0
 40
0.905539
 40
0.905539
 10
0.931979
 20
-6.495
 30
0
 10
1.05104
 20
-6.48177
 30
0
  0
SPLINE
  5
BA7
330
A02
100
AcDbEntity
  8
Shape2DView004
100
AcDbSpline
210
0
220
0
230
1
 70
8
 71
1
 72
4
 73
2
 74
0
 40
0
 40
0
 40
1.17047
 40
1.17047
 10
0.786458
 20
-6.54792
 30
0
 10
0.931979
 20
-6.495
 30
0
  0
SPLINE
  5
BA8
330
A02
100
AcDbEntity
  8
Shape2DView004
100
AcDbSpline
210
0
220
0
230
1
 70
8
 71
1
 72
4
 73
2
 74
0
 40
0
 40
0
 40
0.141421
 40
0.141421
 10
0.773229
 20
-6.53469
 30
0
 10
0.786458
 20
-6.54792
 30
0
  0
SPLINE
  5
BA9
330
A02
100
AcDbEntity
  8
Shape2DView004
100
AcDbSpline
210
0
220
0
230
1
 70
8
 71
1
 72
4
 73
2
 74
0
 40
0
 40
0
 40
0.223607
 40
0.223607
 10
0.76
 20
-6.50823
 30
0
 10
0.773229
 20
-6.53469
 30
0
  0
SPLINE
  5
BAA
330
A02
100
AcDbEntity
  8
Shape2DView004
100
AcDbSpline
210
0
220
0
230
1
 70
8
 71
1
 72
4
 73
2
 74
0
 40
0
 40
0
 40
0.2
 40
0.2
 10
0.76
 20
-6.48177
 30
0
 10
0.76
 20
-6.50823
 30
0
  0
SPLINE
  5
BAB
330
A02
100
AcDbEntity
  8
Shape2DView004
100
AcDbSpline
210
0
220
0
230
1
 70
8
 71
1
 72
4
 73
2
 74
0
 40
0
 40
0
 40
0.223607
 40
0.223607
 10
0.746771
 20
-6.45531
 30
0
 10
0.76
 20
-6.48177
 30
0
  0
SPLINE
  5
BAC
330
A02
100
AcDbEntity
  8
Shape2DView004
100
AcDbSpline
210
0
220
0
230
1
 70
8
 71
1
 72
4
 73
2
 74
0
 40
0
 40
0
 40
0.2
 40
0.2
 10
0.746771
 20
-6.42885
 30
0
 10
0.746771
 20
-6.45531
 30
0
  0
SPLINE
  5
BAD
330
A02
100
AcDbEntity
  8
Shape2DView004
100
AcDbSpline
210
0
220
0
230
1
 70
8
 71
1
 72
4
 73
2
 74
0
 40
0
 40
0
 40
0.3
 40
0.3
 10
0.746771
 20
-6.38917
 30
0
 10
0.746771
 20
-6.42885
 30
0
  0
SPLINE
  5
BAE
330
A02
100
AcDbEntity
  8
Shape2DView004
100
AcDbSpline
210
0
220
0
230
1
 70
8
 71
1
 72
4
 73
2
 74
0
 40
0
 40
0
 40
0.2
 40
0.2
 10
0.746771
 20
-6.36271
 30
0
 10
0.746771
 20
-6.38917
 30
0
  0
SPLINE
  5
BAF
330
A02
100
AcDbEntity
  8
Shape2DView004
100
AcDbSpline
210
0
220
0
230
1
 70
8
 71
1
 72
4
 73
2
 74
0
 40
0
 40
0
 40
0.316228
 40
0.316228
 10
0.76
 20
-6.32302
 30
0
 10
0.746771
 20
-6.36271
 30
0
  0
SPLINE
  5
BB0
330
A02
100
AcDbEntity
  8
Shape2DView004
100
AcDbSpline
210
0
220
0
230
1
 70
8
 71
1
 72
4
 73
2
 74
0
 40
0
 40
0
 40
0.67082
 40
0.67082
 10
0.839375
 20
-6.28333
 30
0
 10
0.76
 20
-6.32302
 30
0
  0
SPLINE
  5
BB1
330
A02
100
AcDbEntity
  8
Shape2DView004
100
AcDbSpline
210
0
220
0
230
1
 70
8
 71
1
 72
4
 73
2
 74
0
 40
0
 40
0
 40
0.632456
 40
0.632456
 10
0.91875
 20
-6.25687
 30
0
 10
0.839375
 20
-6.28333
 30
0
  0
SPLINE
  5
BB2
330
A02
100
AcDbEntity
  8
Shape2DView004
100
AcDbSpline
210
0
220
0
230
1
 70
8
 71
1
 72
4
 73
2
 74
0
 40
0
 40
0
 40
0.728011
 40
0.728011
 10
1.01135
 20
-6.23042
 30
0
 10
0.91875
 20
-6.25687
 30
0
  0
SPLINE
  5
BB3
330
A02
100
AcDbEntity
  8
Shape2DView004
100
AcDbSpline
210
0
220
0
230
1
 70
8
 71
1
 72
4
 73
2
 74
0
 40
0
 40
0
 40
0.583095
 40
0.583095
 10
1.0775
 20
-6.19073
 30
0
 10
1.01135
 20
-6.23042
 30
0
  0
SPLINE
  5
BB4
330
A02
100
AcDbEntity
  8
Shape2DView004
100
AcDbSpline
210
0
220
0
230
1
 70
8
 71
1
 72
4
 73
2
 74
0
 40
0
 40
0
 40
0.316228
 40
0.316228
 10
1.11719
 20
-6.1775
 30
0
 10
1.0775
 20
-6.19073
 30
0
  0
SPLINE
  5
BB5
330
A02
100
AcDbEntity
  8
Shape2DView004
100
AcDbSpline
210
0
220
0
230
1
 70
8
 71
1
 72
4
 73
2
 74
0
 40
0
 40
0
 40
0.360555
 40
0.360555
 10
1.15687
 20
-6.15104
 30
0
 10
1.11719
 20
-6.1775
 30
0
  0
SPLINE
  5
BB6
330
A02
100
AcDbEntity
  8
Shape2DView004
100
AcDbSpline
210
0
220
0
230
1
 70
8
 71
1
 72
4
 73
2
 74
0
 40
0
 40
0
 40
0.583095
 40
0.583095
 10
1.22302
 20
-6.11135
 30
0
 10
1.15687
 20
-6.15104
 30
0
  0
SPLINE
  5
BB7
330
A02
100
AcDbEntity
  8
Shape2DView004
100
AcDbSpline
210
0
220
0
230
1
 70
8
 71
1
 72
4
 73
2
 74
0
 40
0
 40
0
 40
0.538516
 40
0.538516
 10
1.28917
 20
-6.0849
 30
0
 10
1.22302
 20
-6.11135
 30
0
  0
SPLINE
  5
BB8
330
A02
100
AcDbEntity
  8
Shape2DView004
100
AcDbSpline
210
0
220
0
230
1
 70
8
 71
1
 72
4
 73
2
 74
0
 40
0
 40
0
 40
0.583095
 40
0.583095
 10
1.35531
 20
-6.04521
 30
0
 10
1.28917
 20
-6.0849
 30
0
  0
SPLINE
  5
BB9
330
A02
100
AcDbEntity
  8
Shape2DView004
100
AcDbSpline
210
0
220
0
230
1
 70
8
 71
1
 72
4
 73
2
 74
0
 40
0
 40
0
 40
0.360555
 40
0.360555
 10
1.395
 20
-6.01875
 30
0
 10
1.35531
 20
-6.04521
 30
0
  0
SPLINE
  5
BBA
330
A02
100
AcDbEntity
  8
Shape2DView004
100
AcDbSpline
210
0
220
0
230
1
 70
8
 71
1
 72
4
 73
2
 74
0
 40
0
 40
0
 40
0.282843
 40
0.282843
 10
1.42146
 20
-5.99229
 30
0
 10
1.395
 20
-6.01875
 30
0
  0
SPLINE
  5
BBB
330
A02
100
AcDbEntity
  8
Shape2DView004
100
AcDbSpline
210
0
220
0
230
1
 70
8
 71
1
 72
4
 73
2
 74
0
 40
0
 40
0
 40
0.583095
 40
0.583095
 10
1.4876
 20
-5.9526
 30
0
 10
1.42146
 20
-5.99229
 30
0
  0
SPLINE
  5
BBC
330
A02
100
AcDbEntity
  8
Shape2DView004
100
AcDbSpline
210
0
220
0
230
1
 70
8
 71
1
 72
4
 73
2
 74
0
 40
0
 40
0
 40
0.5
 40
0.5
 10
1.54052
 20
-5.91292
 30
0
 10
1.4876
 20
-5.9526
 30
0
  0
SPLINE
  5
BBD
330
A02
100
AcDbEntity
  8
Shape2DView004
100
AcDbSpline
210
0
220
0
230
1
 70
8
 71
1
 72
4
 73
2
 74
0
 40
0
 40
0
 40
0.5
 40
0.5
 10
1.59344
 20
-5.87323
 30
0
 10
1.54052
 20
-5.91292
 30
0
  0
SPLINE
  5
BBE
330
A02
100
AcDbEntity
  8
Shape2DView004
100
AcDbSpline
210
0
220
0
230
1
 70
8
 71
1
 72
4
 73
2
 74
0
 40
0
 40
0
 40
0.565685
 40
0.565685
 10
1.64635
 20
-5.82031
 30
0
 10
1.59344
 20
-5.87323
 30
0
  0
SPLINE
  5
BBF
330
A02
100
AcDbEntity
  8
Shape2DView004
100
AcDbSpline
210
0
220
0
230
1
 70
8
 71
1
 72
4
 73
2
 74
0
 40
0
 40
0
 40
0.565685
 40
0.565685
 10
1.69927
 20
-5.7674
 30
0
 10
1.64635
 20
-5.82031
 30
0
  0
SPLINE
  5
BC0
330
A02
100
AcDbEntity
  8
Shape2DView004
100
AcDbSpline
210
0
220
0
230
1
 70
8
 71
1
 72
4
 73
2
 74
0
 40
0
 40
0
 40
0.223607
 40
0.223607
 10
1.72573
 20
-5.75417
 30
0
 10
1.69927
 20
-5.7674
 30
0
  0
SPLINE
  5
BC1
330
A02
100
AcDbEntity
  8
Shape2DView004
100
AcDbSpline
210
0
220
0
230
1
 70
8
 71
1
 72
4
 73
2
 74
0
 40
0
 40
0
 40
0.282843
 40
0.282843
 10
1.75219
 20
-5.72771
 30
0
 10
1.72573
 20
-5.75417
 30
0
  0
SPLINE
  5
BC2
330
A02
100
AcDbEntity
  8
Shape2DView004
100
AcDbSpline
210
0
220
0
230
1
 70
8
 71
1
 72
4
 73
2
 74
0
 40
0
 40
0
 40
0.5
 40
0.5
 10
1.79187
 20
-5.67479
 30
0
 10
1.75219
 20
-5.72771
 30
0
  0
SPLINE
  5
BC3
330
A02
100
AcDbEntity
  8
Shape2DView004
100
AcDbSpline
210
0
220
0
230
1
 70
8
 71
1
 72
4
 73
2
 74
0
 40
0
 40
0
 40
0.223607
 40
0.223607
 10
1.81833
 20
-5.66156
 30
0
 10
1.79187
 20
-5.67479
 30
0
  0
SPLINE
  5
BC4
330
A02
100
AcDbEntity
  8
Shape2DView004
100
AcDbSpline
210
0
220
0
230
1
 70
8
 71
1
 72
4
 73
2
 74
0
 40
0
 40
0
 40
0.3
 40
0.3
 10
1.85802
 20
-5.66156
 30
0
 10
1.81833
 20
-5.66156
 30
0
  0
SPLINE
  5
BC5
330
A02
100
AcDbEntity
  8
Shape2DView004
100
AcDbSpline
210
0
220
0
230
1
 70
8
 71
1
 72
4
 73
2
 74
0
 40
0
 40
0
 40
0.223607
 40
0.223607
 10
1.88448
 20
-5.64833
 30
0
 10
1.85802
 20
-5.66156
 30
0
  0
SPLINE
  5
BC6
330
A02
100
AcDbEntity
  8
Shape2DView004
100
AcDbSpline
210
0
220
0
230
1
 70
8
 71
1
 72
4
 73
2
 74
0
 40
0
 40
0
 40
0.223607
 40
0.223607
 10
1.91094
 20
-5.6351
 30
0
 10
1.88448
 20
-5.64833
 30
0
  0
SPLINE
  5
BC7
330
A02
100
AcDbEntity
  8
Shape2DView004
100
AcDbSpline
210
0
220
0
230
1
 70
8
 71
1
 72
4
 73
2
 74
0
 40
0
 40
0
 40
0.223607
 40
0.223607
 10
1.9374
 20
-5.62187
 30
0
 10
1.91094
 20
-5.6351
 30
0
  0
SPLINE
  5
BC8
330
A02
100
AcDbEntity
  8
Shape2DView004
100
AcDbSpline
210
0
220
0
230
1
 70
8
 71
1
 72
4
 73
2
 74
0
 40
0
 40
0
 40
0.141421
 40
0.141421
 10
1.95062
 20
-5.60865
 30
0
 10
1.9374
 20
-5.62187
 30
0
  0
SPLINE
  5
BC9
330
A02
100
AcDbEntity
  8
Shape2DView004
100
AcDbSpline
210
0
220
0
230
1
 70
8
 71
1
 72
4
 73
2
 74
0
 40
0
 40
0
 40
0.141421
 40
0.141421
 10
1.96385
 20
-5.59542
 30
0
 10
1.95062
 20
-5.60865
 30
0
  0
SPLINE
  5
BCA
330
A02
100
AcDbEntity
  8
Shape2DView004
100
AcDbSpline
210
0
220
0
230
1
 70
8
 71
1
 72
4
 73
2
 74
0
 40
0
 40
0
 40
0.141421
 40
0.141421
 10
1.97708
 20
-5.58219
 30
0
 10
1.96385
 20
-5.59542
 30
0
  0
SPLINE
  5
BCB
330
A02
100
AcDbEntity
  8
Shape2DView004
100
AcDbSpline
210
0
220
0
230
1
 70
8
 71
1
 72
4
 73
2
 74
0
 40
0
 40
0
 40
0.223607
 40
0.223607
 10
2.00354
 20
-5.56896
 30
0
 10
1.97708
 20
-5.58219
 30
0
  0
SPLINE
  5
BCC
330
A02
100
AcDbEntity
  8
Shape2DView004
100
AcDbSpline
210
0
220
0
230
1
 70
8
 71
1
 72
4
 73
2
 74
0
 40
0
 40
0
 40
0.1
 40
0.1
 10
2.00354
 20
-5.55573
 30
0
 10
2.00354
 20
-5.56896
 30
0
  0
SPLINE
  5
BCD
330
A02
100
AcDbEntity
  8
Shape2DView004
100
AcDbSpline
210
0
220
0
230
1
 70
8
 71
1
 72
4
 73
2
 74
0
 40
0
 40
0
 40
0.223607
 40
0.223607
 10
2.01677
 20
-5.52927
 30
0
 10
2.00354
 20
-5.55573
 30
0
  0
SPLINE
  5
BCE
330
A02
100
AcDbEntity
  8
Shape2DView004
100
AcDbSpline
210
0
220
0
230
1
 70
8
 71
1
 72
4
 73
2
 74
0
 40
0
 40
0
 40
0.1
 40
0.1
 10
2.01677
 20
-5.51604
 30
0
 10
2.01677
 20
-5.52927
 30
0
  0
SPLINE
  5
BCF
330
A02
100
AcDbEntity
  8
Shape2DView004
100
AcDbSpline
210
0
220
0
230
1
 70
8
 71
1
 72
4
 73
2
 74
0
 40
0
 40
0
 40
0.2
 40
0.2
 10
2.01677
 20
-5.48958
 30
0
 10
2.01677
 20
-5.51604
 30
0
  0
SPLINE
  5
BD0
330
A02
100
AcDbEntity
  8
Shape2DView004
100
AcDbSpline
210
0
220
0
230
1
 70
8
 71
1
 72
4
 73
2
 74
0
 40
0
 40
0
 40
0.1
 40
0.1
 10
2.01677
 20
-5.47635
 30
0
 10
2.01677
 20
-5.48958
 30
0
  0
SPLINE
  5
BD1
330
A02
100
AcDbEntity
  8
Shape2DView004
100
AcDbSpline
210
0
220
0
230
1
 70
8
 71
1
 72
4
 73
2
 74
0
 40
0
 40
0
 40
0.2
 40
0.2
 10
2.01677
 20
-5.4499
 30
0
 10
2.01677
 20
-5.47635
 30
0
  0
SPLINE
  5
BD2
330
A02
100
AcDbEntity
  8
Shape2DView004
100
AcDbSpline
210
0
220
0
230
1
 70
8
 71
1
 72
4
 73
2
 74
0
 40
0
 40
0
 40
0.1
 40
0.1
 10
2.01677
 20
-5.43667
 30
0
 10
2.01677
 20
-5.4499
 30
0
  0
SPLINE
  5
BD3
330
A02
100
AcDbEntity
  8
Shape2DView004
100
AcDbSpline
210
0
220
0
230
1
 70
8
 71
1
 72
4
 73
2
 74
0
 40
0
 40
0
 40
0.223607
 40
0.223607
 10
2.00354
 20
-5.41021
 30
0
 10
2.01677
 20
-5.43667
 30
0
  0
SPLINE
  5
BD4
330
A02
100
AcDbEntity
  8
Shape2DView004
100
AcDbSpline
210
0
220
0
230
1
 70
8
 71
1
 72
4
 73
2
 74
0
 40
0
 40
0
 40
0.1
 40
0.1
 10
2.00354
 20
-5.39698
 30
0
 10
2.00354
 20
-5.41021
 30
0
  0
SPLINE
  5
BD5
330
A02
100
AcDbEntity
  8
Shape2DView004
100
AcDbSpline
210
0
220
0
230
1
 70
8
 71
1
 72
4
 73
2
 74
0
 40
0
 40
0
 40
0.141421
 40
0.141421
 10
1.99031
 20
-5.38375
 30
0
 10
2.00354
 20
-5.39698
 30
0
  0
SPLINE
  5
BD6
330
A02
100
AcDbEntity
  8
Shape2DView004
100
AcDbSpline
210
0
220
0
230
1
 70
8
 71
1
 72
4
 73
2
 74
0
 40
0
 40
0
 40
0.360555
 40
0.360555
 10
1.96385
 20
-5.34406
 30
0
 10
1.99031
 20
-5.38375
 30
0
  0
SPLINE
  5
BD7
330
A02
100
AcDbEntity
  8
Shape2DView004
100
AcDbSpline
210
0
220
0
230
1
 70
8
 71
1
 72
4
 73
2
 74
0
 40
0
 40
0
 40
0.2
 40
0.2
 10
1.96385
 20
-5.3176
 30
0
 10
1.96385
 20
-5.34406
 30
0
  0
SPLINE
  5
BD8
330
A02
100
AcDbEntity
  8
Shape2DView004
100
AcDbSpline
210
0
220
0
230
1
 70
8
 71
1
 72
4
 73
2
 74
0
 40
0
 40
0
 40
0.141421
 40
0.141421
 10
1.95062
 20
-5.30437
 30
0
 10
1.96385
 20
-5.3176
 30
0
  0
SPLINE
  5
BD9
330
A02
100
AcDbEntity
  8
Shape2DView004
100
AcDbSpline
210
0
220
0
230
1
 70
8
 71
1
 72
4
 73
2
 74
0
 40
0
 40
0
 40
0.447214
 40
0.447214
 10
1.92417
 20
-5.25146
 30
0
 10
1.95062
 20
-5.30437
 30
0
  0
SPLINE
  5
BDA
330
A02
100
AcDbEntity
  8
Shape2DView004
100
AcDbSpline
210
0
220
0
230
1
 70
8
 71
1
 72
4
 73
2
 74
0
 40
0
 40
0
 40
0.316228
 40
0.316228
 10
1.91094
 20
-5.21177
 30
0
 10
1.92417
 20
-5.25146
 30
0
  0
SPLINE
  5
BDB
330
A02
100
AcDbEntity
  8
Shape2DView004
100
AcDbSpline
210
0
220
0
230
1
 70
8
 71
1
 72
4
 73
2
 74
0
 40
0
 40
0
 40
0.316228
 40
0.316228
 10
1.89771
 20
-5.17208
 30
0
 10
1.91094
 20
-5.21177
 30
0
  0
SPLINE
  5
BDC
330
A02
100
AcDbEntity
  8
Shape2DView004
100
AcDbSpline
210
0
220
0
230
1
 70
8
 71
1
 72
4
 73
2
 74
0
 40
0
 40
0
 40
0.223607
 40
0.223607
 10
1.88448
 20
-5.14562
 30
0
 10
1.89771
 20
-5.17208
 30
0
  0
SPLINE
  5
BDD
330
A02
100
AcDbEntity
  8
Shape2DView004
100
AcDbSpline
210
0
220
0
230
1
 70
8
 71
1
 72
4
 73
2
 74
0
 40
0
 40
0
 40
0.223607
 40
0.223607
 10
1.87125
 20
-5.11917
 30
0
 10
1.88448
 20
-5.14562
 30
0
  0
SPLINE
  5
BDE
330
A02
100
AcDbEntity
  8
Shape2DView004
100
AcDbSpline
210
0
220
0
230
1
 70
8
 71
1
 72
4
 73
2
 74
0
 40
0
 40
0
 40
0.1
 40
0.1
 10
1.87125
 20
-5.10594
 30
0
 10
1.87125
 20
-5.11917
 30
0
  0
SPLINE
  5
BDF
330
A02
100
AcDbEntity
  8
Shape2DView004
100
AcDbSpline
210
0
220
0
230
1
 70
8
 71
1
 72
4
 73
2
 74
0
 40
0
 40
0
 40
0.141421
 40
0.141421
 10
1.85802
 20
-5.09271
 30
0
 10
1.87125
 20
-5.10594
 30
0
  0
SPLINE
  5
BE0
330
A02
100
AcDbEntity
  8
Shape2DView004
100
AcDbSpline
210
0
220
0
230
1
 70
8
 71
1
 72
4
 73
2
 74
0
 40
0
 40
0
 40
0.2
 40
0.2
 10
1.85802
 20
-5.06625
 30
0
 10
1.85802
 20
-5.09271
 30
0
  0
SPLINE
  5
BE1
330
A02
100
AcDbEntity
  8
Shape2DView004
100
AcDbSpline
210
0
220
0
230
1
 70
8
 71
1
 72
4
 73
2
 74
0
 40
0
 40
0
 40
0.223607
 40
0.223607
 10
1.84479
 20
-5.03979
 30
0
 10
1.85802
 20
-5.06625
 30
0
  0
SPLINE
  5
BE2
330
A02
100
AcDbEntity
  8
Shape2DView004
100
AcDbSpline
210
0
220
0
230
1
 70
8
 71
1
 72
4
 73
2
 74
0
 40
0
 40
0
 40
0.2
 40
0.2
 10
1.84479
 20
-5.01333
 30
0
 10
1.84479
 20
-5.03979
 30
0
  0
SPLINE
  5
BE3
330
A02
100
AcDbEntity
  8
Shape2DView004
100
AcDbSpline
210
0
220
0
230
1
 70
8
 71
1
 72
4
 73
2
 74
0
 40
0
 40
0
 40
0.316228
 40
0.316228
 10
1.83156
 20
-4.97365
 30
0
 10
1.84479
 20
-5.01333
 30
0
  0
SPLINE
  5
BE4
330
A02
100
AcDbEntity
  8
Shape2DView004
100
AcDbSpline
210
0
220
0
230
1
 70
8
 71
1
 72
4
 73
2
 74
0
 40
0
 40
0
 40
0.2
 40
0.2
 10
1.83156
 20
-4.94719
 30
0
 10
1.83156
 20
-4.97365
 30
0
  0
SPLINE
  5
BE5
330
A02
100
AcDbEntity
  8
Shape2DView004
100
AcDbSpline
210
0
220
0
230
1
 70
8
 71
1
 72
4
 73
2
 74
0
 40
0
 40
0
 40
0.1
 40
0.1
 10
1.83156
 20
-4.93396
 30
0
 10
1.83156
 20
-4.94719
 30
0
  0
SPLINE
  5
BE6
330
A02
100
AcDbEntity
  8
Shape2DView004
100
AcDbSpline
210
0
220
0
230
1
 70
8
 71
1
 72
4
 73
2
 74
0
 40
0
 40
0
 40
0.1
 40
0.1
 10
1.83156
 20
-4.92073
 30
0
 10
1.83156
 20
-4.93396
 30
0
  0
SPLINE
  5
BE7
330
A02
100
AcDbEntity
  8
Shape2DView004
100
AcDbSpline
210
0
220
0
230
1
 70
8
 71
1
 72
4
 73
2
 74
0
 40
0
 40
0
 40
0.1
 40
0.1
 10
1.83156
 20
-4.9075
 30
0
 10
1.83156
 20
-4.92073
 30
0
  0
SPLINE
  5
BE8
330
A02
100
AcDbEntity
  8
Shape2DView004
100
AcDbSpline
210
0
220
0
230
1
 70
8
 71
1
 72
4
 73
2
 74
0
 40
0
 40
0
 40
0.1
 40
0.1
 10
1.83156
 20
-4.89427
 30
0
 10
1.83156
 20
-4.9075
 30
0
  0
SPLINE
  5
BE9
330
A02
100
AcDbEntity
  8
Shape2DView004
100
AcDbSpline
210
0
220
0
230
1
 70
8
 71
1
 72
4
 73
2
 74
0
 40
0
 40
0
 40
0.1
 40
0.1
 10
1.83156
 20
-4.88104
 30
0
 10
1.83156
 20
-4.89427
 30
0
  0
SPLINE
  5
BEA
330
A02
100
AcDbEntity
  8
Shape2DView004
100
AcDbSpline
210
0
220
0
230
1
 70
8
 71
1
 72
4
 73
2
 74
0
 40
0
 40
0
 40
1.42127
 40
1.42127
 10
1.7125
 20
-4.73552
 30
0
 10
1.83156
 20
-4.88104
 30
0
  0
SPLINE
  5
BEB
330
A02
100
AcDbEntity
  8
Shape2DView004
100
AcDbSpline
210
0
220
0
230
1
 70
8
 71
1
 72
4
 73
2
 74
0
 40
0
 40
0
 40
1.28062
 40
1.28062
 10
1.60667
 20
-4.60323
 30
0
 10
1.7125
 20
-4.73552
 30
0
  0
SPLINE
  5
BEC
330
A02
100
AcDbEntity
  8
Shape2DView004
100
AcDbSpline
210
0
220
0
230
1
 70
8
 71
1
 72
4
 73
2
 74
0
 40
0
 40
0
 40
1.36015
 40
1.36015
 10
1.50083
 20
-4.45771
 30
0
 10
1.60667
 20
-4.60323
 30
0
  0
SPLINE
  5
BED
330
A02
100
AcDbEntity
  8
Shape2DView004
100
AcDbSpline
210
0
220
0
230
1
 70
8
 71
1
 72
4
 73
2
 74
0
 40
0
 40
0
 40
1.34536
 40
1.34536
 10
1.38177
 20
-4.32542
 30
0
 10
1.50083
 20
-4.45771
 30
0
  0
SPLINE
  5
BEE
330
A02
100
AcDbEntity
  8
Shape2DView004
100
AcDbSpline
210
0
220
0
230
1
 70
8
 71
1
 72
4
 73
2
 74
0
 40
0
 40
0
 40
1.28062
 40
1.28062
 10
1.27594
 20
-4.19312
 30
0
 10
1.38177
 20
-4.32542
 30
0
  0
SPLINE
  5
BEF
330
A02
100
AcDbEntity
  8
Shape2DView004
100
AcDbSpline
210
0
220
0
230
1
 70
8
 71
1
 72
4
 73
2
 74
0
 40
0
 40
0
 40
4.39318
 40
4.39318
 10
0.892292
 20
-3.75656
 30
0
 10
1.27594
 20
-4.19312
 30
0
  0
SPLINE
  5
BF0
330
A02
100
AcDbEntity
  8
Shape2DView004
100
AcDbSpline
210
0
220
0
230
1
 70
8
 71
1
 72
4
 73
2
 74
0
 40
0
 40
0
 40
0.2
 40
0.2
 10
0.892292
 20
-3.7301
 30
0
 10
0.892292
 20
-3.75656
 30
0
  0
SPLINE
  5
BF1
330
A02
100
AcDbEntity
  8
Shape2DView004
100
AcDbSpline
210
0
220
0
230
1
 70
8
 71
1
 72
4
 73
2
 74
0
 40
0
 40
0
 40
3.33017
 40
3.33017
 10
1.18333
 20
-3.39937
 30
0
 10
0.892292
 20
-3.7301
 30
0
  0
SPLINE
  5
BF2
330
A02
100
AcDbEntity
  8
Shape2DView004
100
AcDbSpline
210
0
220
0
230
1
 70
8
 71
1
 72
4
 73
2
 74
0
 40
0
 40
0
 40
1.5
 40
1.5
 10
1.38177
 20
-3.39937
 30
0
 10
1.18333
 20
-3.39937
 30
0
  0
SPLINE
  5
BF3
330
A02
100
AcDbEntity
  8
Shape2DView004
100
AcDbSpline
210
0
220
0
230
1
 70
8
 71
1
 72
4
 73
2
 74
0
 40
0
 40
0
 40
4.25206
 40
4.25206
 10
1.75219
 20
-3.82271
 30
0
 10
1.38177
 20
-3.39937
 30
0
  0
SPLINE
  5
BF4
330
A02
100
AcDbEntity
  8
Shape2DView004
100
AcDbSpline
210
0
220
0
230
1
 70
8
 71
1
 72
4
 73
2
 74
0
 40
0
 40
0
 40
0.707107
 40
0.707107
 10
1.81833
 20
-3.88885
 30
0
 10
1.75219
 20
-3.82271
 30
0
  0
SPLINE
  5
BF5
330
A02
100
AcDbEntity
  8
Shape2DView004
100
AcDbSpline
210
0
220
0
230
1
 70
8
 71
1
 72
4
 73
2
 74
0
 40
0
 40
0
 40
0.640312
 40
0.640312
 10
1.87125
 20
-3.955
 30
0
 10
1.81833
 20
-3.88885
 30
0
  0
SPLINE
  5
BF6
330
A02
100
AcDbEntity
  8
Shape2DView004
100
AcDbSpline
210
0
220
0
230
1
 70
8
 71
1
 72
4
 73
2
 74
0
 40
0
 40
0
 40
0.360555
 40
0.360555
 10
1.91094
 20
-3.98146
 30
0
 10
1.87125
 20
-3.955
 30
0
  0
SPLINE
  5
BF7
330
A02
100
AcDbEntity
  8
Shape2DView004
100
AcDbSpline
210
0
220
0
230
1
 70
8
 71
1
 72
4
 73
2
 74
0
 40
0
 40
0
 40
0.282843
 40
0.282843
 10
1.9374
 20
-4.00792
 30
0
 10
1.91094
 20
-3.98146
 30
0
  0
SPLINE
  5
BF8
330
A02
100
AcDbEntity
  8
Shape2DView004
100
AcDbSpline
210
0
220
0
230
1
 70
8
 71
1
 72
4
 73
2
 74
0
 40
0
 40
0
 40
0.707107
 40
0.707107
 10
2.00354
 20
-4.07406
 30
0
 10
1.9374
 20
-4.00792
 30
0
  0
SPLINE
  5
BF9
330
A02
100
AcDbEntity
  8
Shape2DView004
100
AcDbSpline
210
0
220
0
230
1
 70
8
 71
1
 72
4
 73
2
 74
0
 40
0
 40
0
 40
0.707107
 40
0.707107
 10
2.06969
 20
-4.14021
 30
0
 10
2.00354
 20
-4.07406
 30
0
  0
SPLINE
  5
BFA
330
A02
100
AcDbEntity
  8
Shape2DView004
100
AcDbSpline
210
0
220
0
230
1
 70
8
 71
1
 72
4
 73
2
 74
0
 40
0
 40
0
 40
0.640312
 40
0.640312
 10
2.1226
 20
-4.20635
 30
0
 10
2.06969
 20
-4.14021
 30
0
  0
SPLINE
  5
BFB
330
A02
100
AcDbEntity
  8
Shape2DView004
100
AcDbSpline
210
0
220
0
230
1
 70
8
 71
1
 72
4
 73
2
 74
0
 40
0
 40
0
 40
0.707107
 40
0.707107
 10
2.18875
 20
-4.2725
 30
0
 10
2.1226
 20
-4.20635
 30
0
  0
SPLINE
  5
BFC
330
A02
100
AcDbEntity
  8
Shape2DView004
100
AcDbSpline
210
0
220
0
230
1
 70
8
 71
1
 72
4
 73
2
 74
0
 40
0
 40
0
 40
0.223607
 40
0.223607
 10
2.21521
 20
-4.28573
 30
0
 10
2.18875
 20
-4.2725
 30
0
  0
SPLINE
  5
BFD
330
A02
100
AcDbEntity
  8
Shape2DView004
100
AcDbSpline
210
0
220
0
230
1
 70
8
 71
1
 72
4
 73
2
 74
0
 40
0
 40
0
 40
0.141421
 40
0.141421
 10
2.22844
 20
-4.29896
 30
0
 10
2.21521
 20
-4.28573
 30
0
  0
SPLINE
  5
BFE
330
A02
100
AcDbEntity
  8
Shape2DView004
100
AcDbSpline
210
0
220
0
230
1
 70
8
 71
1
 72
4
 73
2
 74
0
 40
0
 40
0
 40
0.360555
 40
0.360555
 10
2.2549
 20
-4.33865
 30
0
 10
2.22844
 20
-4.29896
 30
0
  0
SPLINE
  5
BFF
330
A02
100
AcDbEntity
  8
Shape2DView004
100
AcDbSpline
210
0
220
0
230
1
 70
8
 71
1
 72
4
 73
2
 74
0
 40
0
 40
0
 40
1.41421
 40
1.41421
 10
2.38719
 20
-4.47094
 30
0
 10
2.2549
 20
-4.33865
 30
0
  0
SPLINE
  5
C00
330
A02
100
AcDbEntity
  8
Shape2DView004
100
AcDbSpline
210
0
220
0
230
1
 70
8
 71
1
 72
4
 73
2
 74
0
 40
0
 40
0
 40
0.2
 40
0.2
 10
2.41365
 20
-4.47094
 30
0
 10
2.38719
 20
-4.47094
 30
0
  0
SPLINE
  5
C01
330
A02
100
AcDbEntity
  8
Shape2DView004
100
AcDbSpline
210
0
220
0
230
1
 70
8
 71
1
 72
4
 73
2
 74
0
 40
0
 40
0
 40
0.1
 40
0.1
 10
2.42687
 20
-4.47094
 30
0
 10
2.41365
 20
-4.47094
 30
0
  0
SPLINE
  5
C02
330
A02
100
AcDbEntity
  8
Shape2DView004
100
AcDbSpline
210
0
220
0
230
1
 70
8
 71
1
 72
4
 73
2
 74
0
 40
0
 40
0
 40
0.223607
 40
0.223607
 10
2.45333
 20
-4.48417
 30
0
 10
2.42687
 20
-4.47094
 30
0
  0
SPLINE
  5
C03
330
A02
100
AcDbEntity
  8
Shape2DView004
100
AcDbSpline
210
0
220
0
230
1
 70
8
 71
1
 72
4
 73
2
 74
0
 40
0
 40
0
 40
0.141421
 40
0.141421
 10
2.46656
 20
-4.4974
 30
0
 10
2.45333
 20
-4.48417
 30
0
  0
SPLINE
  5
C04
330
A02
100
AcDbEntity
  8
Shape2DView004
100
AcDbSpline
210
0
220
0
230
1
 70
8
 71
1
 72
4
 73
2
 74
0
 40
0
 40
0
 40
0.223607
 40
0.223607
 10
2.49302
 20
-4.51062
 30
0
 10
2.46656
 20
-4.4974
 30
0
  0
SPLINE
  5
C05
330
A02
100
AcDbEntity
  8
Shape2DView004
100
AcDbSpline
210
0
220
0
230
1
 70
8
 71
1
 72
4
 73
2
 74
0
 40
0
 40
0
 40
0.1
 40
0.1
 10
2.50625
 20
-4.51062
 30
0
 10
2.49302
 20
-4.51062
 30
0
  0
SPLINE
  5
C06
330
A02
100
AcDbEntity
  8
Shape2DView004
100
AcDbSpline
210
0
220
0
230
1
 70
8
 71
1
 72
4
 73
2
 74
0
 40
0
 40
0
 40
0.141421
 40
0.141421
 10
2.51948
 20
-4.52385
 30
0
 10
2.50625
 20
-4.51062
 30
0
  0
SPLINE
  5
C07
330
A02
100
AcDbEntity
  8
Shape2DView004
100
AcDbSpline
210
0
220
0
230
1
 70
8
 71
1
 72
4
 73
2
 74
0
 40
0
 40
0
 40
0.360555
 40
0.360555
 10
2.54594
 20
-4.56354
 30
0
 10
2.51948
 20
-4.52385
 30
0
  0
SPLINE
  5
C08
330
A02
100
AcDbEntity
  8
Shape2DView004
100
AcDbSpline
210
0
220
0
230
1
 70
8
 71
1
 72
4
 73
2
 74
0
 40
0
 40
0
 40
0.223607
 40
0.223607
 10
2.5724
 20
-4.57677
 30
0
 10
2.54594
 20
-4.56354
 30
0
  0
SPLINE
  5
C09
330
A02
100
AcDbEntity
  8
Shape2DView004
100
AcDbSpline
210
0
220
0
230
1
 70
8
 71
1
 72
4
 73
2
 74
0
 40
0
 40
0
 40
0.141421
 40
0.141421
 10
2.58562
 20
-4.59
 30
0
 10
2.5724
 20
-4.57677
 30
0
  0
SPLINE
  5
C0A
330
A02
100
AcDbEntity
  8
Shape2DView004
100
AcDbSpline
210
0
220
0
230
1
 70
8
 71
1
 72
4
 73
2
 74
0
 40
0
 40
0
 40
0.360555
 40
0.360555
 10
2.61208
 20
-4.62969
 30
0
 10
2.58562
 20
-4.59
 30
0
  0
SPLINE
  5
C0B
330
A02
100
AcDbEntity
  8
Shape2DView004
100
AcDbSpline
210
0
220
0
230
1
 70
8
 71
1
 72
4
 73
2
 74
0
 40
0
 40
0
 40
0.141421
 40
0.141421
 10
2.62531
 20
-4.64292
 30
0
 10
2.61208
 20
-4.62969
 30
0
  0
SPLINE
  5
C0C
330
A02
100
AcDbEntity
  8
Shape2DView004
100
AcDbSpline
210
0
220
0
230
1
 70
8
 71
1
 72
4
 73
2
 74
0
 40
0
 40
0
 40
0.223607
 40
0.223607
 10
2.63854
 20
-4.66937
 30
0
 10
2.62531
 20
-4.64292
 30
0
  0
SPLINE
  5
C0D
330
A02
100
AcDbEntity
  8
Shape2DView004
100
AcDbSpline
210
0
220
0
230
1
 70
8
 71
1
 72
4
 73
2
 74
0
 40
0
 40
0
 40
0.608276
 40
0.608276
 10
2.71792
 20
-4.6826
 30
0
 10
2.63854
 20
-4.66937
 30
0
  0
SPLINE
  5
C0E
330
A02
100
AcDbEntity
  8
Shape2DView004
100
AcDbSpline
210
0
220
0
230
1
 70
8
 71
1
 72
4
 73
2
 74
0
 40
0
 40
0
 40
0.5
 40
0.5
 10
2.78406
 20
-4.6826
 30
0
 10
2.71792
 20
-4.6826
 30
0
  0
SPLINE
  5
C0F
330
A02
100
AcDbEntity
  8
Shape2DView004
100
AcDbSpline
210
0
220
0
230
1
 70
8
 71
1
 72
4
 73
2
 74
0
 40
0
 40
0
 40
0.3
 40
0.3
 10
2.82375
 20
-4.6826
 30
0
 10
2.78406
 20
-4.6826
 30
0
  0
SPLINE
  5
C10
330
A02
100
AcDbEntity
  8
Shape2DView004
100
AcDbSpline
210
0
220
0
230
1
 70
8
 71
1
 72
4
 73
2
 74
0
 40
0
 40
0
 40
0.2
 40
0.2
 10
2.85021
 20
-4.6826
 30
0
 10
2.82375
 20
-4.6826
 30
0
  0
SPLINE
  5
C11
330
A02
100
AcDbEntity
  8
Shape2DView004
100
AcDbSpline
210
0
220
0
230
1
 70
8
 71
1
 72
4
 73
2
 74
0
 40
0
 40
0
 40
0.3
 40
0.3
 10
2.8899
 20
-4.6826
 30
0
 10
2.85021
 20
-4.6826
 30
0
  0
SPLINE
  5
C12
330
A02
100
AcDbEntity
  8
Shape2DView004
100
AcDbSpline
210
0
220
0
230
1
 70
8
 71
1
 72
4
 73
2
 74
0
 40
0
 40
0
 40
0.223607
 40
0.223607
 10
2.91635
 20
-4.66937
 30
0
 10
2.8899
 20
-4.6826
 30
0
  0
SPLINE
  5
C13
330
A02
100
AcDbEntity
  8
Shape2DView004
100
AcDbSpline
210
0
220
0
230
1
 70
8
 71
1
 72
4
 73
2
 74
0
 40
0
 40
0
 40
0.2
 40
0.2
 10
2.94281
 20
-4.66937
 30
0
 10
2.91635
 20
-4.66937
 30
0
  0
SPLINE
  5
C14
330
A02
100
AcDbEntity
  8
Shape2DView004
100
AcDbSpline
210
0
220
0
230
1
 70
8
 71
1
 72
4
 73
2
 74
0
 40
0
 40
0
 40
0.3
 40
0.3
 10
2.9825
 20
-4.66937
 30
0
 10
2.94281
 20
-4.66937
 30
0
  0
SPLINE
  5
C15
330
A02
100
AcDbEntity
  8
Shape2DView004
100
AcDbSpline
210
0
220
0
230
1
 70
8
 71
1
 72
4
 73
2
 74
0
 40
0
 40
0
 40
0.223607
 40
0.223607
 10
3.00896
 20
-4.65615
 30
0
 10
2.9825
 20
-4.66937
 30
0
  0
SPLINE
  5
C16
330
A02
100
AcDbEntity
  8
Shape2DView004
100
AcDbSpline
210
0
220
0
230
1
 70
8
 71
1
 72
4
 73
2
 74
0
 40
0
 40
0
 40
0.223607
 40
0.223607
 10
3.03542
 20
-4.64292
 30
0
 10
3.00896
 20
-4.65615
 30
0
  0
SPLINE
  5
C17
330
A02
100
AcDbEntity
  8
Shape2DView004
100
AcDbSpline
210
0
220
0
230
1
 70
8
 71
1
 72
4
 73
2
 74
0
 40
0
 40
0
 40
0.2
 40
0.2
 10
3.06187
 20
-4.64292
 30
0
 10
3.03542
 20
-4.64292
 30
0
  0
SPLINE
  5
C18
330
A02
100
AcDbEntity
  8
Shape2DView004
100
AcDbSpline
210
0
220
0
230
1
 70
8
 71
1
 72
4
 73
2
 74
0
 40
0
 40
0
 40
0.141421
 40
0.141421
 10
3.0751
 20
-4.62969
 30
0
 10
3.06187
 20
-4.64292
 30
0
  0
SPLINE
  5
C19
330
A02
100
AcDbEntity
  8
Shape2DView004
100
AcDbSpline
210
0
220
0
230
1
 70
8
 71
1
 72
4
 73
2
 74
0
 40
0
 40
0
 40
0.223607
 40
0.223607
 10
3.10156
 20
-4.61646
 30
0
 10
3.0751
 20
-4.62969
 30
0
  0
SPLINE
  5
C1A
330
A02
100
AcDbEntity
  8
Shape2DView004
100
AcDbSpline
210
0
220
0
230
1
 70
8
 71
1
 72
4
 73
2
 74
0
 40
0
 40
0
 40
0.223607
 40
0.223607
 10
3.12802
 20
-4.60323
 30
0
 10
3.10156
 20
-4.61646
 30
0
  0
SPLINE
  5
C1B
330
A02
100
AcDbEntity
  8
Shape2DView004
100
AcDbSpline
210
0
220
0
230
1
 70
8
 71
1
 72
4
 73
2
 74
0
 40
0
 40
0
 40
0.141421
 40
0.141421
 10
3.14125
 20
-4.59
 30
0
 10
3.12802
 20
-4.60323
 30
0
  0
SPLINE
  5
C1C
330
A02
100
AcDbEntity
  8
Shape2DView004
100
AcDbSpline
210
0
220
0
230
1
 70
8
 71
1
 72
4
 73
2
 74
0
 40
0
 40
0
 40
0.223607
 40
0.223607
 10
3.16771
 20
-4.57677
 30
0
 10
3.14125
 20
-4.59
 30
0
  0
SPLINE
  5
C1D
330
A02
100
AcDbEntity
  8
Shape2DView004
100
AcDbSpline
210
0
220
0
230
1
 70
8
 71
1
 72
4
 73
2
 74
0
 40
0
 40
0
 40
0.223607
 40
0.223607
 10
3.18094
 20
-4.55031
 30
0
 10
3.16771
 20
-4.57677
 30
0
  0
SPLINE
  5
C1E
330
A02
100
AcDbEntity
  8
Shape2DView004
100
AcDbSpline
210
0
220
0
230
1
 70
8
 71
1
 72
4
 73
2
 74
0
 40
0
 40
0
 40
0.223607
 40
0.223607
 10
3.2074
 20
-4.53708
 30
0
 10
3.18094
 20
-4.55031
 30
0
  0
SPLINE
  5
C1F
330
A02
100
AcDbEntity
  8
Shape2DView004
100
AcDbSpline
210
0
220
0
230
1
 70
8
 71
1
 72
4
 73
2
 74
0
 40
0
 40
0
 40
0.360555
 40
0.360555
 10
3.23385
 20
-4.4974
 30
0
 10
3.2074
 20
-4.53708
 30
0
  0
SPLINE
  5
C20
330
A02
100
AcDbEntity
  8
Shape2DView004
100
AcDbSpline
210
0
220
0
230
1
 70
8
 71
1
 72
4
 73
2
 74
0
 40
0
 40
0
 40
0.447214
 40
0.447214
 10
3.26031
 20
-4.44448
 30
0
 10
3.23385
 20
-4.4974
 30
0
  0
SPLINE
  5
C21
330
A02
100
AcDbEntity
  8
Shape2DView004
100
AcDbSpline
210
0
220
0
230
1
 70
8
 71
1
 72
4
 73
2
 74
0
 40
0
 40
0
 40
0.360555
 40
0.360555
 10
3.28677
 20
-4.40479
 30
0
 10
3.26031
 20
-4.44448
 30
0
  0
SPLINE
  5
C22
330
A02
100
AcDbEntity
  8
Shape2DView004
100
AcDbSpline
210
0
220
0
230
1
 70
8
 71
1
 72
4
 73
2
 74
0
 40
0
 40
0
 40
0.538516
 40
0.538516
 10
3.31323
 20
-4.33865
 30
0
 10
3.28677
 20
-4.40479
 30
0
  0
SPLINE
  5
C23
330
A02
100
AcDbEntity
  8
Shape2DView004
100
AcDbSpline
210
0
220
0
230
1
 70
8
 71
1
 72
4
 73
2
 74
0
 40
0
 40
0
 40
0.2
 40
0.2
 10
3.31323
 20
-4.31219
 30
0
 10
3.31323
 20
-4.33865
 30
0
  0
SPLINE
  5
C24
330
A02
100
AcDbEntity
  8
Shape2DView004
100
AcDbSpline
210
0
220
0
230
1
 70
8
 71
1
 72
4
 73
2
 74
0
 40
0
 40
0
 40
0.223607
 40
0.223607
 10
3.32646
 20
-4.28573
 30
0
 10
3.31323
 20
-4.31219
 30
0
  0
SPLINE
  5
C25
330
A02
100
AcDbEntity
  8
Shape2DView004
100
AcDbSpline
210
0
220
0
230
1
 70
8
 71
1
 72
4
 73
2
 74
0
 40
0
 40
0
 40
0.2
 40
0.2
 10
3.32646
 20
-4.25927
 30
0
 10
3.32646
 20
-4.28573
 30
0
  0
SPLINE
  5
C26
330
A02
100
AcDbEntity
  8
Shape2DView004
100
AcDbSpline
210
0
220
0
230
1
 70
8
 71
1
 72
4
 73
2
 74
0
 40
0
 40
0
 40
0.316228
 40
0.316228
 10
3.33969
 20
-4.21958
 30
0
 10
3.32646
 20
-4.25927
 30
0
  0
SPLINE
  5
C27
330
A02
100
AcDbEntity
  8
Shape2DView004
100
AcDbSpline
210
0
220
0
230
1
 70
8
 71
1
 72
4
 73
2
 74
0
 40
0
 40
0
 40
3.30151
 40
3.30151
 10
3.69687
 20
-3.96823
 30
0
 10
3.33969
 20
-4.21958
 30
0
  0
SPLINE
  5
C28
330
A02
100
AcDbEntity
  8
Shape2DView004
100
AcDbSpline
210
0
220
0
230
1
 70
8
 71
1
 72
4
 73
2
 74
0
 40
0
 40
0
 40
0.223607
 40
0.223607
 10
3.72333
 20
-3.98146
 30
0
 10
3.69687
 20
-3.96823
 30
0
  0
SPLINE
  5
C29
330
A02
100
AcDbEntity
  8
Shape2DView004
100
AcDbSpline
210
0
220
0
230
1
 70
8
 71
1
 72
4
 73
2
 74
0
 40
0
 40
0
 40
0.2
 40
0.2
 10
3.74979
 20
-3.98146
 30
0
 10
3.72333
 20
-3.98146
 30
0
  0
SPLINE
  5
C2A
330
A02
100
AcDbEntity
  8
Shape2DView004
100
AcDbSpline
210
0
220
0
230
1
 70
8
 71
1
 72
4
 73
2
 74
0
 40
0
 40
0
 40
0.223607
 40
0.223607
 10
3.77625
 20
-3.99469
 30
0
 10
3.74979
 20
-3.98146
 30
0
  0
SPLINE
  5
C2B
330
A02
100
AcDbEntity
  8
Shape2DView004
100
AcDbSpline
210
0
220
0
230
1
 70
8
 71
1
 72
4
 73
2
 74
0
 40
0
 40
0
 40
0.2
 40
0.2
 10
3.80271
 20
-3.99469
 30
0
 10
3.77625
 20
-3.99469
 30
0
  0
SPLINE
  5
C2C
330
A02
100
AcDbEntity
  8
Shape2DView004
100
AcDbSpline
210
0
220
0
230
1
 70
8
 71
1
 72
4
 73
2
 74
0
 40
0
 40
0
 40
0.223607
 40
0.223607
 10
3.82917
 20
-4.00792
 30
0
 10
3.80271
 20
-3.99469
 30
0
  0
SPLINE
  5
C2D
330
A02
100
AcDbEntity
  8
Shape2DView004
100
AcDbSpline
210
0
220
0
230
1
 70
8
 71
1
 72
4
 73
2
 74
0
 40
0
 40
0
 40
0.223607
 40
0.223607
 10
3.85562
 20
-4.02115
 30
0
 10
3.82917
 20
-4.00792
 30
0
  0
SPLINE
  5
C2E
330
A02
100
AcDbEntity
  8
Shape2DView004
100
AcDbSpline
210
0
220
0
230
1
 70
8
 71
1
 72
4
 73
2
 74
0
 40
0
 40
0
 40
0.141421
 40
0.141421
 10
3.86885
 20
-4.03437
 30
0
 10
3.85562
 20
-4.02115
 30
0
  0
SPLINE
  5
C2F
330
A02
100
AcDbEntity
  8
Shape2DView004
100
AcDbSpline
210
0
220
0
230
1
 70
8
 71
1
 72
4
 73
2
 74
0
 40
0
 40
0
 40
0.282843
 40
0.282843
 10
3.89531
 20
-4.06083
 30
0
 10
3.86885
 20
-4.03437
 30
0
  0
SPLINE
  5
C30
330
A02
100
AcDbEntity
  8
Shape2DView004
100
AcDbSpline
210
0
220
0
230
1
 70
8
 71
1
 72
4
 73
2
 74
0
 40
0
 40
0
 40
0.141421
 40
0.141421
 10
3.90854
 20
-4.07406
 30
0
 10
3.89531
 20
-4.06083
 30
0
  0
SPLINE
  5
C31
330
A02
100
AcDbEntity
  8
Shape2DView004
100
AcDbSpline
210
0
220
0
230
1
 70
8
 71
1
 72
4
 73
2
 74
0
 40
0
 40
0
 40
0.223607
 40
0.223607
 10
3.935
 20
-4.08729
 30
0
 10
3.90854
 20
-4.07406
 30
0
  0
SPLINE
  5
C32
330
A02
100
AcDbEntity
  8
Shape2DView004
100
AcDbSpline
210
0
220
0
230
1
 70
8
 71
1
 72
4
 73
2
 74
0
 40
0
 40
0
 40
0.141421
 40
0.141421
 10
3.94823
 20
-4.10052
 30
0
 10
3.935
 20
-4.08729
 30
0
  0
SPLINE
  5
C33
330
A02
100
AcDbEntity
  8
Shape2DView004
100
AcDbSpline
210
0
220
0
230
1
 70
8
 71
1
 72
4
 73
2
 74
0
 40
0
 40
0
 40
0.223607
 40
0.223607
 10
3.96146
 20
-4.12698
 30
0
 10
3.94823
 20
-4.10052
 30
0
  0
SPLINE
  5
C34
330
A02
100
AcDbEntity
  8
Shape2DView004
100
AcDbSpline
210
0
220
0
230
1
 70
8
 71
1
 72
4
 73
2
 74
0
 40
0
 40
0
 40
0.141421
 40
0.141421
 10
3.97469
 20
-4.14021
 30
0
 10
3.96146
 20
-4.12698
 30
0
  0
SPLINE
  5
C35
330
A02
100
AcDbEntity
  8
Shape2DView004
100
AcDbSpline
210
0
220
0
230
1
 70
8
 71
1
 72
4
 73
2
 74
0
 40
0
 40
0
 40
0.223607
 40
0.223607
 10
3.98792
 20
-4.16667
 30
0
 10
3.97469
 20
-4.14021
 30
0
  0
SPLINE
  5
C36
330
A02
100
AcDbEntity
  8
Shape2DView004
100
AcDbSpline
210
0
220
0
230
1
 70
8
 71
1
 72
4
 73
2
 74
0
 40
0
 40
0
 40
0.141421
 40
0.141421
 10
4.00115
 20
-4.1799
 30
0
 10
3.98792
 20
-4.16667
 30
0
  0
SPLINE
  5
C37
330
A02
100
AcDbEntity
  8
Shape2DView004
100
AcDbSpline
210
0
220
0
230
1
 70
8
 71
1
 72
4
 73
2
 74
0
 40
0
 40
0
 40
0.223607
 40
0.223607
 10
4.01437
 20
-4.20635
 30
0
 10
4.00115
 20
-4.1799
 30
0
  0
SPLINE
  5
C38
330
A02
100
AcDbEntity
  8
Shape2DView004
100
AcDbSpline
210
0
220
0
230
1
 70
8
 71
1
 72
4
 73
2
 74
0
 40
0
 40
0
 40
0.223607
 40
0.223607
 10
4.0276
 20
-4.23281
 30
0
 10
4.01437
 20
-4.20635
 30
0
  0
SPLINE
  5
C39
330
A02
100
AcDbEntity
  8
Shape2DView004
100
AcDbSpline
210
0
220
0
230
1
 70
8
 71
1
 72
4
 73
2
 74
0
 40
0
 40
0
 40
0.223607
 40
0.223607
 10
4.04083
 20
-4.25927
 30
0
 10
4.0276
 20
-4.23281
 30
0
  0
SPLINE
  5
C3A
330
A02
100
AcDbEntity
  8
Shape2DView004
100
AcDbSpline
210
0
220
0
230
1
 70
8
 71
1
 72
4
 73
2
 74
0
 40
0
 40
0
 40
0.223607
 40
0.223607
 10
4.05406
 20
-4.28573
 30
0
 10
4.04083
 20
-4.25927
 30
0
  0
SPLINE
  5
C3B
330
A02
100
AcDbEntity
  8
Shape2DView004
100
AcDbSpline
210
0
220
0
230
1
 70
8
 71
1
 72
4
 73
2
 74
0
 40
0
 40
0
 40
0.223607
 40
0.223607
 10
4.06729
 20
-4.31219
 30
0
 10
4.05406
 20
-4.28573
 30
0
  0
SPLINE
  5
C3C
330
A02
100
AcDbEntity
  8
Shape2DView004
100
AcDbSpline
210
0
220
0
230
1
 70
8
 71
1
 72
4
 73
2
 74
0
 40
0
 40
0
 40
0.316228
 40
0.316228
 10
4.08052
 20
-4.35187
 30
0
 10
4.06729
 20
-4.31219
 30
0
  0
SPLINE
  5
C3D
330
A02
100
AcDbEntity
  8
Shape2DView004
100
AcDbSpline
210
0
220
0
230
1
 70
8
 71
1
 72
4
 73
2
 74
0
 40
0
 40
0
 40
0.2
 40
0.2
 10
4.08052
 20
-4.37833
 30
0
 10
4.08052
 20
-4.35187
 30
0
  0
SPLINE
  5
C3E
330
A02
100
AcDbEntity
  8
Shape2DView004
100
AcDbSpline
210
0
220
0
230
1
 70
8
 71
1
 72
4
 73
2
 74
0
 40
0
 40
0
 40
0.316228
 40
0.316228
 10
4.09375
 20
-4.41802
 30
0
 10
4.08052
 20
-4.37833
 30
0
  0
SPLINE
  5
C3F
330
A02
100
AcDbEntity
  8
Shape2DView004
100
AcDbSpline
210
0
220
0
230
1
 70
8
 71
1
 72
4
 73
2
 74
0
 40
0
 40
0
 40
0.223607
 40
0.223607
 10
4.10698
 20
-4.44448
 30
0
 10
4.09375
 20
-4.41802
 30
0
  0
SPLINE
  5
C40
330
A02
100
AcDbEntity
  8
Shape2DView004
100
AcDbSpline
210
0
220
0
230
1
 70
8
 71
1
 72
4
 73
2
 74
0
 40
0
 40
0
 40
3.32415
 40
3.32415
 10
3.78948
 20
-4.74875
 30
0
 10
4.10698
 20
-4.44448
 30
0
  0
SPLINE
  5
C41
330
A02
100
AcDbEntity
  8
Shape2DView004
100
AcDbSpline
210
0
220
0
230
1
 70
8
 71
1
 72
4
 73
2
 74
0
 40
0
 40
0
 40
0.223607
 40
0.223607
 10
3.76302
 20
-4.76198
 30
0
 10
3.78948
 20
-4.74875
 30
0
  0
SPLINE
  5
C42
330
A02
100
AcDbEntity
  8
Shape2DView004
100
AcDbSpline
210
0
220
0
230
1
 70
8
 71
1
 72
4
 73
2
 74
0
 40
0
 40
0
 40
0.223607
 40
0.223607
 10
3.73656
 20
-4.77521
 30
0
 10
3.76302
 20
-4.76198
 30
0
  0
SPLINE
  5
C43
330
A02
100
AcDbEntity
  8
Shape2DView004
100
AcDbSpline
210
0
220
0
230
1
 70
8
 71
1
 72
4
 73
2
 74
0
 40
0
 40
0
 40
0.3
 40
0.3
 10
3.69687
 20
-4.77521
 30
0
 10
3.73656
 20
-4.77521
 30
0
  0
SPLINE
  5
C44
330
A02
100
AcDbEntity
  8
Shape2DView004
100
AcDbSpline
210
0
220
0
230
1
 70
8
 71
1
 72
4
 73
2
 74
0
 40
0
 40
0
 40
0.223607
 40
0.223607
 10
3.67042
 20
-4.78844
 30
0
 10
3.69687
 20
-4.77521
 30
0
  0
SPLINE
  5
C45
330
A02
100
AcDbEntity
  8
Shape2DView004
100
AcDbSpline
210
0
220
0
230
1
 70
8
 71
1
 72
4
 73
2
 74
0
 40
0
 40
0
 40
0.1
 40
0.1
 10
3.65719
 20
-4.78844
 30
0
 10
3.67042
 20
-4.78844
 30
0
  0
SPLINE
  5
C46
330
A02
100
AcDbEntity
  8
Shape2DView004
100
AcDbSpline
210
0
220
0
230
1
 70
8
 71
1
 72
4
 73
2
 74
0
 40
0
 40
0
 40
0.141421
 40
0.141421
 10
3.64396
 20
-4.80167
 30
0
 10
3.65719
 20
-4.78844
 30
0
  0
SPLINE
  5
C47
330
A02
100
AcDbEntity
  8
Shape2DView004
100
AcDbSpline
210
0
220
0
230
1
 70
8
 71
1
 72
4
 73
2
 74
0
 40
0
 40
0
 40
0.2
 40
0.2
 10
3.6175
 20
-4.80167
 30
0
 10
3.64396
 20
-4.80167
 30
0
  0
SPLINE
  5
C48
330
A02
100
AcDbEntity
  8
Shape2DView004
100
AcDbSpline
210
0
220
0
230
1
 70
8
 71
1
 72
4
 73
2
 74
0
 40
0
 40
0
 40
0.223607
 40
0.223607
 10
3.59104
 20
-4.8149
 30
0
 10
3.6175
 20
-4.80167
 30
0
  0
SPLINE
  5
C49
330
A02
100
AcDbEntity
  8
Shape2DView004
100
AcDbSpline
210
0
220
0
230
1
 70
8
 71
1
 72
4
 73
2
 74
0
 40
0
 40
0
 40
0.141421
 40
0.141421
 10
3.57781
 20
-4.82812
 30
0
 10
3.59104
 20
-4.8149
 30
0
  0
SPLINE
  5
C4A
330
A02
100
AcDbEntity
  8
Shape2DView004
100
AcDbSpline
210
0
220
0
230
1
 70
8
 71
1
 72
4
 73
2
 74
0
 40
0
 40
0
 40
0.223607
 40
0.223607
 10
3.55135
 20
-4.84135
 30
0
 10
3.57781
 20
-4.82812
 30
0
  0
SPLINE
  5
C4B
330
A02
100
AcDbEntity
  8
Shape2DView004
100
AcDbSpline
210
0
220
0
230
1
 70
8
 71
1
 72
4
 73
2
 74
0
 40
0
 40
0
 40
0.2
 40
0.2
 10
3.5249
 20
-4.84135
 30
0
 10
3.55135
 20
-4.84135
 30
0
  0
SPLINE
  5
C4C
330
A02
100
AcDbEntity
  8
Shape2DView004
100
AcDbSpline
210
0
220
0
230
1
 70
8
 71
1
 72
4
 73
2
 74
0
 40
0
 40
0
 40
0.1
 40
0.1
 10
3.5249
 20
-4.85458
 30
0
 10
3.5249
 20
-4.84135
 30
0
  0
SPLINE
  5
C4D
330
A02
100
AcDbEntity
  8
Shape2DView004
100
AcDbSpline
210
0
220
0
230
1
 70
8
 71
1
 72
4
 73
2
 74
0
 40
0
 40
0
 40
0.1
 40
0.1
 10
3.51167
 20
-4.85458
 30
0
 10
3.5249
 20
-4.85458
 30
0
  0
SPLINE
  5
C4E
330
A02
100
AcDbEntity
  8
Shape2DView004
100
AcDbSpline
210
0
220
0
230
1
 70
8
 71
1
 72
4
 73
2
 74
0
 40
0
 40
0
 40
0.223607
 40
0.223607
 10
3.48521
 20
-4.86781
 30
0
 10
3.51167
 20
-4.85458
 30
0
  0
SPLINE
  5
C4F
330
A02
100
AcDbEntity
  8
Shape2DView004
100
AcDbSpline
210
0
220
0
230
1
 70
8
 71
1
 72
4
 73
2
 74
0
 40
0
 40
0
 40
0.141421
 40
0.141421
 10
3.47198
 20
-4.88104
 30
0
 10
3.48521
 20
-4.86781
 30
0
  0
SPLINE
  5
C50
330
A02
100
AcDbEntity
  8
Shape2DView004
100
AcDbSpline
210
0
220
0
230
1
 70
8
 71
1
 72
4
 73
2
 74
0
 40
0
 40
0
 40
0.1
 40
0.1
 10
3.45875
 20
-4.88104
 30
0
 10
3.47198
 20
-4.88104
 30
0
  0
SPLINE
  5
C51
330
A02
100
AcDbEntity
  8
Shape2DView004
100
AcDbSpline
210
0
220
0
230
1
 70
8
 71
1
 72
4
 73
2
 74
0
 40
0
 40
0
 40
0.1
 40
0.1
 10
3.45875
 20
-4.89427
 30
0
 10
3.45875
 20
-4.88104
 30
0
  0
SPLINE
  5
C52
330
A02
100
AcDbEntity
  8
Shape2DView004
100
AcDbSpline
210
0
220
0
230
1
 70
8
 71
1
 72
4
 73
2
 74
0
 40
0
 40
0
 40
0.141421
 40
0.141421
 10
3.44552
 20
-4.9075
 30
0
 10
3.45875
 20
-4.89427
 30
0
  0
SPLINE
  5
C53
330
A02
100
AcDbEntity
  8
Shape2DView004
100
AcDbSpline
210
0
220
0
230
1
 70
8
 71
1
 72
4
 73
2
 74
0
 40
0
 40
0
 40
0.141421
 40
0.141421
 10
3.43229
 20
-4.92073
 30
0
 10
3.44552
 20
-4.9075
 30
0
  0
SPLINE
  5
C54
330
A02
100
AcDbEntity
  8
Shape2DView004
100
AcDbSpline
210
0
220
0
230
1
 70
8
 71
1
 72
4
 73
2
 74
0
 40
0
 40
0
 40
0.1
 40
0.1
 10
3.41906
 20
-4.92073
 30
0
 10
3.43229
 20
-4.92073
 30
0
  0
SPLINE
  5
C55
330
A02
100
AcDbEntity
  8
Shape2DView004
100
AcDbSpline
210
0
220
0
230
1
 70
8
 71
1
 72
4
 73
2
 74
0
 40
0
 40
0
 40
0.1
 40
0.1
 10
3.41906
 20
-4.93396
 30
0
 10
3.41906
 20
-4.92073
 30
0
  0
SPLINE
  5
C56
330
A02
100
AcDbEntity
  8
Shape2DView004
100
AcDbSpline
210
0
220
0
230
1
 70
8
 71
1
 72
4
 73
2
 74
0
 40
0
 40
0
 40
0.141421
 40
0.141421
 10
3.40583
 20
-4.94719
 30
0
 10
3.41906
 20
-4.93396
 30
0
  0
SPLINE
  5
C57
330
A02
100
AcDbEntity
  8
Shape2DView004
100
AcDbSpline
210
0
220
0
230
1
 70
8
 71
1
 72
4
 73
2
 74
0
 40
0
 40
0
 40
0.141421
 40
0.141421
 10
3.3926
 20
-4.96042
 30
0
 10
3.40583
 20
-4.94719
 30
0
  0
SPLINE
  5
C58
330
A02
100
AcDbEntity
  8
Shape2DView004
100
AcDbSpline
210
0
220
0
230
1
 70
8
 71
1
 72
4
 73
2
 74
0
 40
0
 40
0
 40
0.141421
 40
0.141421
 10
3.37937
 20
-4.97365
 30
0
 10
3.3926
 20
-4.96042
 30
0
  0
SPLINE
  5
C59
330
A02
100
AcDbEntity
  8
Shape2DView004
100
AcDbSpline
210
0
220
0
230
1
 70
8
 71
1
 72
4
 73
2
 74
0
 40
0
 40
0
 40
0.1
 40
0.1
 10
3.37937
 20
-4.98687
 30
0
 10
3.37937
 20
-4.97365
 30
0
  0
SPLINE
  5
C5A
330
A02
100
AcDbEntity
  8
Shape2DView004
100
AcDbSpline
210
0
220
0
230
1
 70
8
 71
1
 72
4
 73
2
 74
0
 40
0
 40
0
 40
0.1
 40
0.1
 10
3.36615
 20
-4.98687
 30
0
 10
3.37937
 20
-4.98687
 30
0
  0
SPLINE
  5
C5B
330
A02
100
AcDbEntity
  8
Shape2DView004
100
AcDbSpline
210
0
220
0
230
1
 70
8
 71
1
 72
4
 73
2
 74
0
 40
0
 40
0
 40
0.1
 40
0.1
 10
3.36615
 20
-5.0001
 30
0
 10
3.36615
 20
-4.98687
 30
0
  0
SPLINE
  5
C5C
330
A02
100
AcDbEntity
  8
Shape2DView004
100
AcDbSpline
210
0
220
0
230
1
 70
8
 71
1
 72
4
 73
2
 74
0
 40
0
 40
0
 40
0.1
 40
0.1
 10
3.36615
 20
-5.01333
 30
0
 10
3.36615
 20
-5.0001
 30
0
  0
SPLINE
  5
C5D
330
A02
100
AcDbEntity
  8
Shape2DView004
100
AcDbSpline
210
0
220
0
230
1
 70
8
 71
1
 72
4
 73
2
 74
0
 40
0
 40
0
 40
0.141421
 40
0.141421
 10
3.35292
 20
-5.02656
 30
0
 10
3.36615
 20
-5.01333
 30
0
  0
SPLINE
  5
C5E
330
A02
100
AcDbEntity
  8
Shape2DView004
100
AcDbSpline
210
0
220
0
230
1
 70
8
 71
1
 72
4
 73
2
 74
0
 40
0
 40
0
 40
0.1
 40
0.1
 10
3.35292
 20
-5.03979
 30
0
 10
3.35292
 20
-5.02656
 30
0
  0
SPLINE
  5
C5F
330
A02
100
AcDbEntity
  8
Shape2DView004
100
AcDbSpline
210
0
220
0
230
1
 70
8
 71
1
 72
4
 73
2
 74
0
 40
0
 40
0
 40
0.1
 40
0.1
 10
3.35292
 20
-5.05302
 30
0
 10
3.35292
 20
-5.03979
 30
0
  0
SPLINE
  5
C60
330
A02
100
AcDbEntity
  8
Shape2DView004
100
AcDbSpline
210
0
220
0
230
1
 70
8
 71
1
 72
4
 73
2
 74
0
 40
0
 40
0
 40
0.1
 40
0.1
 10
3.35292
 20
-5.06625
 30
0
 10
3.35292
 20
-5.05302
 30
0
  0
SPLINE
  5
C61
330
A02
100
AcDbEntity
  8
Shape2DView004
100
AcDbSpline
210
0
220
0
230
1
 70
8
 71
1
 72
4
 73
2
 74
0
 40
0
 40
0
 40
0.1
 40
0.1
 10
3.35292
 20
-5.07948
 30
0
 10
3.35292
 20
-5.06625
 30
0
  0
SPLINE
  5
C62
330
A02
100
AcDbEntity
  8
Shape2DView004
100
AcDbSpline
210
0
220
0
230
1
 70
8
 71
1
 72
4
 73
2
 74
0
 40
0
 40
0
 40
0.1
 40
0.1
 10
3.35292
 20
-5.09271
 30
0
 10
3.35292
 20
-5.07948
 30
0
  0
SPLINE
  5
C63
330
A02
100
AcDbEntity
  8
Shape2DView004
100
AcDbSpline
210
0
220
0
230
1
 70
8
 71
1
 72
4
 73
2
 74
0
 40
0
 40
0
 40
0.1
 40
0.1
 10
3.35292
 20
-5.10594
 30
0
 10
3.35292
 20
-5.09271
 30
0
  0
SPLINE
  5
C64
330
A02
100
AcDbEntity
  8
Shape2DView004
100
AcDbSpline
210
0
220
0
230
1
 70
8
 71
1
 72
4
 73
2
 74
0
 40
0
 40
0
 40
0.2
 40
0.2
 10
3.35292
 20
-5.1324
 30
0
 10
3.35292
 20
-5.10594
 30
0
  0
SPLINE
  5
C65
330
A02
100
AcDbEntity
  8
Shape2DView004
100
AcDbSpline
210
0
220
0
230
1
 70
8
 71
1
 72
4
 73
2
 74
0
 40
0
 40
0
 40
0.1
 40
0.1
 10
3.35292
 20
-5.14562
 30
0
 10
3.35292
 20
-5.1324
 30
0
  0
SPLINE
  5
C66
330
A02
100
AcDbEntity
  8
Shape2DView004
100
AcDbSpline
210
0
220
0
230
1
 70
8
 71
1
 72
4
 73
2
 74
0
 40
0
 40
0
 40
0.141421
 40
0.141421
 10
3.36615
 20
-5.15885
 30
0
 10
3.35292
 20
-5.14562
 30
0
  0
SPLINE
  5
C67
330
A02
100
AcDbEntity
  8
Shape2DView004
100
AcDbSpline
210
0
220
0
230
1
 70
8
 71
1
 72
4
 73
2
 74
0
 40
0
 40
0
 40
0.1
 40
0.1
 10
3.36615
 20
-5.17208
 30
0
 10
3.36615
 20
-5.15885
 30
0
  0
SPLINE
  5
C68
330
A02
100
AcDbEntity
  8
Shape2DView004
100
AcDbSpline
210
0
220
0
230
1
 70
8
 71
1
 72
4
 73
2
 74
0
 40
0
 40
0
 40
0.316228
 40
0.316228
 10
3.35292
 20
-5.21177
 30
0
 10
3.36615
 20
-5.17208
 30
0
  0
SPLINE
  5
C69
330
A02
100
AcDbEntity
  8
Shape2DView004
100
AcDbSpline
210
0
220
0
230
1
 70
8
 71
1
 72
4
 73
2
 74
0
 40
0
 40
0
 40
0.447214
 40
0.447214
 10
3.32646
 20
-5.26469
 30
0
 10
3.35292
 20
-5.21177
 30
0
  0
SPLINE
  5
C6A
330
A02
100
AcDbEntity
  8
Shape2DView004
100
AcDbSpline
210
0
220
0
230
1
 70
8
 71
1
 72
4
 73
2
 74
0
 40
0
 40
0
 40
0.316228
 40
0.316228
 10
3.31323
 20
-5.30437
 30
0
 10
3.32646
 20
-5.26469
 30
0
  0
SPLINE
  5
C6B
330
A02
100
AcDbEntity
  8
Shape2DView004
100
AcDbSpline
210
0
220
0
230
1
 70
8
 71
1
 72
4
 73
2
 74
0
 40
0
 40
0
 40
0.360555
 40
0.360555
 10
3.28677
 20
-5.34406
 30
0
 10
3.31323
 20
-5.30437
 30
0
  0
SPLINE
  5
C6C
330
A02
100
AcDbEntity
  8
Shape2DView004
100
AcDbSpline
210
0
220
0
230
1
 70
8
 71
1
 72
4
 73
2
 74
0
 40
0
 40
0
 40
0.360555
 40
0.360555
 10
3.26031
 20
-5.38375
 30
0
 10
3.28677
 20
-5.34406
 30
0
  0
SPLINE
  5
C6D
330
A02
100
AcDbEntity
  8
Shape2DView004
100
AcDbSpline
210
0
220
0
230
1
 70
8
 71
1
 72
4
 73
2
 74
0
 40
0
 40
0
 40
0.424264
 40
0.424264
 10
3.22062
 20
-5.42344
 30
0
 10
3.26031
 20
-5.38375
 30
0
  0
SPLINE
  5
C6E
330
A02
100
AcDbEntity
  8
Shape2DView004
100
AcDbSpline
210
0
220
0
230
1
 70
8
 71
1
 72
4
 73
2
 74
0
 40
0
 40
0
 40
0.360555
 40
0.360555
 10
3.19417
 20
-5.46312
 30
0
 10
3.22062
 20
-5.42344
 30
0
  0
SPLINE
  5
C6F
330
A02
100
AcDbEntity
  8
Shape2DView004
100
AcDbSpline
210
0
220
0
230
1
 70
8
 71
1
 72
4
 73
2
 74
0
 40
0
 40
0
 40
0.360555
 40
0.360555
 10
3.15448
 20
-5.48958
 30
0
 10
3.19417
 20
-5.46312
 30
0
  0
SPLINE
  5
C70
330
A02
100
AcDbEntity
  8
Shape2DView004
100
AcDbSpline
210
0
220
0
230
1
 70
8
 71
1
 72
4
 73
2
 74
0
 40
0
 40
0
 40
0.424264
 40
0.424264
 10
3.11479
 20
-5.52927
 30
0
 10
3.15448
 20
-5.48958
 30
0
  0
SPLINE
  5
C71
330
A02
100
AcDbEntity
  8
Shape2DView004
100
AcDbSpline
210
0
220
0
230
1
 70
8
 71
1
 72
4
 73
2
 74
0
 40
0
 40
0
 40
0.424264
 40
0.424264
 10
3.0751
 20
-5.56896
 30
0
 10
3.11479
 20
-5.52927
 30
0
  0
SPLINE
  5
C72
330
A02
100
AcDbEntity
  8
Shape2DView004
100
AcDbSpline
210
0
220
0
230
1
 70
8
 71
1
 72
4
 73
2
 74
0
 40
0
 40
0
 40
0.5
 40
0.5
 10
3.02219
 20
-5.60865
 30
0
 10
3.0751
 20
-5.56896
 30
0
  0
SPLINE
  5
C73
330
A02
100
AcDbEntity
  8
Shape2DView004
100
AcDbSpline
210
0
220
0
230
1
 70
8
 71
1
 72
4
 73
2
 74
0
 40
0
 40
0
 40
0.424264
 40
0.424264
 10
2.9825
 20
-5.64833
 30
0
 10
3.02219
 20
-5.60865
 30
0
  0
SPLINE
  5
C74
330
A02
100
AcDbEntity
  8
Shape2DView004
100
AcDbSpline
210
0
220
0
230
1
 70
8
 71
1
 72
4
 73
2
 74
0
 40
0
 40
0
 40
0.447214
 40
0.447214
 10
2.92958
 20
-5.67479
 30
0
 10
2.9825
 20
-5.64833
 30
0
  0
SPLINE
  5
C75
330
A02
100
AcDbEntity
  8
Shape2DView004
100
AcDbSpline
210
0
220
0
230
1
 70
8
 71
1
 72
4
 73
2
 74
0
 40
0
 40
0
 40
0.5
 40
0.5
 10
2.87667
 20
-5.71448
 30
0
 10
2.92958
 20
-5.67479
 30
0
  0
SPLINE
  5
C76
330
A02
100
AcDbEntity
  8
Shape2DView004
100
AcDbSpline
210
0
220
0
230
1
 70
8
 71
1
 72
4
 73
2
 74
0
 40
0
 40
0
 40
0.538516
 40
0.538516
 10
2.81052
 20
-5.74094
 30
0
 10
2.87667
 20
-5.71448
 30
0
  0
SPLINE
  5
C77
330
A02
100
AcDbEntity
  8
Shape2DView004
100
AcDbSpline
210
0
220
0
230
1
 70
8
 71
1
 72
4
 73
2
 74
0
 40
0
 40
0
 40
0.5
 40
0.5
 10
2.7576
 20
-5.78062
 30
0
 10
2.81052
 20
-5.74094
 30
0
  0
SPLINE
  5
C78
330
A02
100
AcDbEntity
  8
Shape2DView004
100
AcDbSpline
210
0
220
0
230
1
 70
8
 71
1
 72
4
 73
2
 74
0
 40
0
 40
0
 40
1.02956
 40
1.02956
 10
2.63854
 20
-5.84677
 30
0
 10
2.7576
 20
-5.78062
 30
0
  0
SPLINE
  5
C79
330
A02
100
AcDbEntity
  8
Shape2DView004
100
AcDbSpline
210
0
220
0
230
1
 70
8
 71
1
 72
4
 73
2
 74
0
 40
0
 40
0
 40
0.943398
 40
0.943398
 10
2.53271
 20
-5.91292
 30
0
 10
2.63854
 20
-5.84677
 30
0
  0
SPLINE
  5
C7A
330
A02
100
AcDbEntity
  8
Shape2DView004
100
AcDbSpline
210
0
220
0
230
1
 70
8
 71
1
 72
4
 73
2
 74
0
 40
0
 40
0
 40
0.538516
 40
0.538516
 10
2.46656
 20
-5.93937
 30
0
 10
2.53271
 20
-5.91292
 30
0
  0
SPLINE
  5
C7B
330
A02
100
AcDbEntity
  8
Shape2DView004
100
AcDbSpline
210
0
220
0
230
1
 70
8
 71
1
 72
4
 73
2
 74
0
 40
0
 40
0
 40
0.447214
 40
0.447214
 10
2.41365
 20
-5.96583
 30
0
 10
2.46656
 20
-5.93937
 30
0
  0
SPLINE
  5
C7C
330
A02
100
AcDbEntity
  8
Shape2DView004
100
AcDbSpline
210
0
220
0
230
1
 70
8
 71
1
 72
4
 73
2
 74
0
 40
0
 40
0
 40
1.02956
 40
1.02956
 10
2.29458
 20
-6.03198
 30
0
 10
2.41365
 20
-5.96583
 30
0
  0
SPLINE
  5
C7D
330
A02
100
AcDbEntity
  8
Shape2DView004
100
AcDbSpline
210
0
220
0
230
1
 70
8
 71
1
 72
4
 73
2
 74
0
 40
0
 40
0
 40
0.894427
 40
0.894427
 10
2.18875
 20
-6.0849
 30
0
 10
2.29458
 20
-6.03198
 30
0
  0
SPLINE
  5
C7E
330
A02
100
AcDbEntity
  8
Shape2DView004
100
AcDbSpline
210
0
220
0
230
1
 70
8
 71
1
 72
4
 73
2
 74
0
 40
0
 40
0
 40
0.984886
 40
0.984886
 10
2.06969
 20
-6.13781
 30
0
 10
2.18875
 20
-6.0849
 30
0
  0
SPLINE
  5
C7F
330
A02
100
AcDbEntity
  8
Shape2DView004
100
AcDbSpline
210
0
220
0
230
1
 70
8
 71
1
 72
4
 73
2
 74
0
 40
0
 40
0
 40
0.8544
 40
0.8544
 10
1.96385
 20
-6.1775
 30
0
 10
2.06969
 20
-6.13781
 30
0
  0
SPLINE
  5
C80
330
A02
100
AcDbEntity
  8
Shape2DView004
100
AcDbSpline
210
0
220
0
230
1
 70
8
 71
1
 72
4
 73
2
 74
0
 40
0
 40
0
 40
0.538516
 40
0.538516
 10
1.89771
 20
-6.20396
 30
0
 10
1.96385
 20
-6.1775
 30
0
  0
SPLINE
  5
C81
330
A02
100
AcDbEntity
  8
Shape2DView004
100
AcDbSpline
210
0
220
0
230
1
 70
8
 71
1
 72
4
 73
2
 74
0
 40
0
 40
0
 40
0.447214
 40
0.447214
 10
1.84479
 20
-6.23042
 30
0
 10
1.89771
 20
-6.20396
 30
0
  0
SPLINE
  5
C82
330
A02
100
AcDbEntity
  8
Shape2DView004
100
AcDbSpline
210
0
220
0
230
1
 70
8
 71
1
 72
4
 73
2
 74
0
 40
0
 40
0
 40
0.948683
 40
0.948683
 10
1.72573
 20
-6.2701
 30
0
 10
1.84479
 20
-6.23042
 30
0
  0
SPLINE
  5
C83
330
A02
100
AcDbEntity
  8
Shape2DView004
100
AcDbSpline
210
0
220
0
230
1
 70
8
 71
1
 72
4
 73
2
 74
0
 40
0
 40
0
 40
0.447214
 40
0.447214
 10
1.67281
 20
-6.29656
 30
0
 10
1.72573
 20
-6.2701
 30
0
  0
SPLINE
  5
C84
330
A02
100
AcDbEntity
  8
Shape2DView004
100
AcDbSpline
210
0
220
0
230
1
 70
8
 71
1
 72
4
 73
2
 74
0
 40
0
 40
0
 40
0.412311
 40
0.412311
 10
1.6199
 20
-6.30979
 30
0
 10
1.67281
 20
-6.29656
 30
0
  0
SPLINE
  5
C85
330
A02
100
AcDbEntity
  8
Shape2DView004
100
AcDbSpline
210
0
220
0
230
1
 70
8
 71
1
 72
4
 73
2
 74
0
 40
0
 40
0
 40
0.538516
 40
0.538516
 10
1.55375
 20
-6.33625
 30
0
 10
1.6199
 20
-6.30979
 30
0
  0
SPLINE
  5
C86
330
A02
100
AcDbEntity
  8
Shape2DView004
100
AcDbSpline
210
0
220
0
230
1
 70
8
 71
1
 72
4
 73
2
 74
0
 40
0
 40
0
 40
0.412311
 40
0.412311
 10
1.50083
 20
-6.34948
 30
0
 10
1.55375
 20
-6.33625
 30
0
  0
SPLINE
  5
C87
330
A02
100
AcDbEntity
  8
Shape2DView004
100
AcDbSpline
210
0
220
0
230
1
 70
8
 71
1
 72
4
 73
2
 74
0
 40
0
 40
0
 40
0.447214
 40
0.447214
 10
1.44792
 20
-6.37594
 30
0
 10
1.50083
 20
-6.34948
 30
0
  0
SPLINE
  5
C88
330
A02
100
AcDbEntity
  8
Shape2DView004
100
AcDbSpline
210
0
220
0
230
1
 70
8
 71
1
 72
4
 73
2
 74
0
 40
0
 40
0
 40
0.509902
 40
0.509902
 10
1.38177
 20
-6.38917
 30
0
 10
1.44792
 20
-6.37594
 30
0
  0
SPLINE
  5
C89
330
A02
100
AcDbEntity
  8
Shape2DView004
100
AcDbSpline
210
0
220
0
230
1
 70
8
 71
1
 72
4
 73
2
 74
0
 40
0
 40
0
 40
0.412311
 40
0.412311
 10
1.32885
 20
-6.4024
 30
0
 10
1.38177
 20
-6.38917
 30
0
  0
SPLINE
  5
C8A
330
A02
100
AcDbEntity
  8
Shape2DView004
100
AcDbSpline
210
0
220
0
230
1
 70
8
 71
1
 72
4
 73
2
 74
0
 40
0
 40
0
 40
0.412311
 40
0.412311
 10
1.27594
 20
-6.41562
 30
0
 10
1.32885
 20
-6.4024
 30
0
  0
SPLINE
  5
C8B
330
A02
100
AcDbEntity
  8
Shape2DView004
100
AcDbSpline
210
0
220
0
230
1
 70
8
 71
1
 72
4
 73
2
 74
0
 40
0
 40
0
 40
0.412311
 40
0.412311
 10
1.22302
 20
-6.42885
 30
0
 10
1.27594
 20
-6.41562
 30
0
  0
SPLINE
  5
C8C
330
A02
100
AcDbEntity
  8
Shape2DView004
100
AcDbSpline
210
0
220
0
230
1
 70
8
 71
1
 72
4
 73
2
 74
0
 40
0
 40
0
 40
0.538516
 40
0.538516
 10
1.15687
 20
-6.45531
 30
0
 10
1.22302
 20
-6.42885
 30
0
  0
SPLINE
  5
C8D
330
A02
100
AcDbEntity
  8
Shape2DView004
100
AcDbSpline
210
0
220
0
230
1
 70
8
 71
1
 72
4
 73
2
 74
0
 40
0
 40
0
 40
0.412311
 40
0.412311
 10
1.10396
 20
-6.46854
 30
0
 10
1.15687
 20
-6.45531
 30
0
  0
SPLINE
  5
C8E
330
A02
100
AcDbEntity
  8
Shape2DView004
100
AcDbSpline
210
0
220
0
230
1
 70
8
 71
1
 72
4
 73
2
 74
0
 40
0
 40
0
 40
0.412311
 40
0.412311
 10
1.05104
 20
-6.48177
 30
0
 10
1.10396
 20
-6.46854
 30
0
  0
SPLINE
  5
C8F
330
A02
100
AcDbEntity
  8
Shape2DView004
100
AcDbSpline
210
0
220
0
230
1
 70
8
 71
3
 72
8
 73
4
 74
0
 40
0
 40
0
 40
0
 40
0
 40
1
 40
1
 40
1
 40
1
 10
-5.2725
 20
-3.84917
 30
0
 10
-5.29896
 20
-3.84917
 30
0
 10
-5.31219
 20
-3.83594
 30
0
 10
-5.33865
 20
-3.83594
 30
0
  0
SPLINE
  5
C90
330
A02
100
AcDbEntity
  8
Shape2DView004
100
AcDbSpline
210
0
220
0
230
1
 70
8
 71
2
 72
6
 73
3
 74
0
 40
0
 40
0
 40
0
 40
1
 40
1
 40
1
 10
-5.33865
 20
-3.83594
 30
0
 10
-5.40148
 20
-3.79625
 30
0
 10
-5.40479
 20
-3.71687
 30
0
  0
SPLINE
  5
C91
330
A02
100
AcDbEntity
  8
Shape2DView004
100
AcDbSpline
210
0
220
0
230
1
 70
8
 71
2
 72
6
 73
3
 74
0
 40
0
 40
0
 40
0
 40
1
 40
1
 40
1
 10
-5.40479
 20
-3.71687
 30
0
 10
-5.40148
 20
-3.6375
 30
0
 10
-5.33865
 20
-3.59781
 30
0
  0
SPLINE
  5
C92
330
A02
100
AcDbEntity
  8
Shape2DView004
100
AcDbSpline
210
0
220
0
230
1
 70
8
 71
2
 72
6
 73
3
 74
0
 40
0
 40
0
 40
0
 40
1
 40
1
 40
1
 10
-5.33865
 20
-3.59781
 30
0
 10
-5.31549
 20
-3.58128
 30
0
 10
-5.2725
 20
-3.58458
 30
0
  0
SPLINE
  5
C93
330
A02
100
AcDbEntity
  8
Shape2DView004
100
AcDbSpline
210
0
220
0
230
1
 70
8
 71
1
 72
4
 73
2
 74
0
 40
0
 40
0
 40
37.2
 40
37.2
 10
-5.2725
 20
-3.58458
 30
0
 10
-0.35125
 20
-3.58458
 30
0
  0
SPLINE
  5
C94
330
A02
100
AcDbEntity
  8
Shape2DView004
100
AcDbSpline
210
0
220
0
230
1
 70
8
 71
3
 72
8
 73
4
 74
0
 40
0
 40
0
 40
0
 40
0
 40
1
 40
1
 40
1
 40
1
 10
-0.35125
 20
-3.58458
 30
0
 10
-0.271875
 20
-3.58458
 30
0
 10
-0.218958
 20
-3.65073
 30
0
 10
-0.218958
 20
-3.71687
 30
0
  0
SPLINE
  5
C95
330
A02
100
AcDbEntity
  8
Shape2DView004
100
AcDbSpline
210
0
220
0
230
1
 70
8
 71
3
 72
8
 73
4
 74
0
 40
0
 40
0
 40
0
 40
0
 40
1
 40
1
 40
1
 40
1
 10
-0.218958
 20
-3.71687
 30
0
 10
-0.218958
 20
-3.79625
 30
0
 10
-0.285104
 20
-3.84917
 30
0
 10
-0.35125
 20
-3.84917
 30
0
  0
SPLINE
  5
C96
330
A02
100
AcDbEntity
  8
Shape2DView004
100
AcDbSpline
210
0
220
0
230
1
 70
8
 71
1
 72
4
 73
2
 74
0
 40
0
 40
0
 40
37.2
 40
37.2
 10
-0.35125
 20
-3.84917
 30
0
 10
-5.2725
 20
-3.84917
 30
0
  0
ENDSEC
  0
SECTION
  2
OBJECTS
  0
DICTIONARY
  5
F000
330
0
100
AcDbDictionary
  3
ACAD_GROUP
350
F001
  0
DICTIONARY
  5
F001
330
F000
100
AcDbDictionary
  0
ENDSEC
  0
EOF